<svg width="530" height="286" viewBox="0 0 530 286" fill="none" xmlns="http://www.w3.org/2000/svg">
<g clip-path="url(#clip0_457_329)">
<path d="M33.5706 238.858L31.9174 247.15C31.7929 247.784 31.6627 248.429 31.5211 249.069C30.1394 248.783 28.7068 248.863 27.3655 249.301C28.4296 250.821 29.3832 252.416 30.2189 254.073C29.1772 257.282 27.6486 260.248 25.0895 262.393C23.3804 263.794 21.339 264.731 19.1623 265.113C16.9856 265.496 14.747 265.311 12.6623 264.578L12.7359 264.249C9.98439 258.912 11.4791 252.182 14.8987 247.252C16.6428 244.82 18.7093 242.636 21.0415 240.76C23.3514 238.836 25.8482 237.109 28.3223 235.406C28.878 235.024 29.535 234.816 30.2094 234.809C30.8837 234.802 31.5448 234.996 32.1082 235.367C32.6715 235.738 33.1116 236.268 33.3721 236.89C33.6326 237.512 33.7017 238.197 33.5706 238.858Z" fill="#E4E4E4"/>
<path d="M13.251 284.529C12.5552 279.462 11.8396 274.33 12.3276 269.208C12.7613 264.66 14.1489 260.217 16.9752 256.574C18.4753 254.644 20.3006 252.991 22.369 251.688C22.9086 251.348 23.4045 252.202 22.8678 252.541C19.289 254.802 16.5208 258.141 14.9625 262.076C13.2414 266.453 12.9651 271.224 13.264 275.872C13.4435 278.684 13.8234 281.476 14.2067 284.266C14.2375 284.392 14.219 284.526 14.1548 284.639C14.0906 284.752 13.9856 284.836 13.8613 284.874C13.7349 284.908 13.6002 284.891 13.4863 284.826C13.3725 284.762 13.2887 284.655 13.2533 284.529L13.251 284.529Z" fill="#F2F2F2"/>
<path d="M19.2224 30.3571C43.4752 29.9355 67.7305 29.875 91.9885 30.1754C116.243 30.4777 140.489 31.1426 164.727 32.1701C178.329 32.7468 191.924 33.4376 205.514 34.2426C206.606 34.3071 206.602 32.6089 205.514 32.5446C181.3 31.1121 157.068 30.0402 132.819 29.329C108.573 28.6197 84.32 28.2731 60.06 28.2891C46.4468 28.2982 32.8342 28.4215 19.2224 28.6591C18.1307 28.6781 18.1273 30.3762 19.2224 30.3571Z" fill="#E6E6E6"/>
<path d="M188.241 19.7101L198.846 18.9211C199.93 18.8404 199.938 17.1418 198.846 17.223L188.241 18.0121C187.158 18.0927 187.149 19.7914 188.241 19.7101Z" fill="#E6E6E6"/>
<path d="M188.241 29.8981L198.846 29.109C199.93 29.0284 199.938 27.3298 198.846 27.411L188.241 28.2001C187.158 28.2807 187.149 29.9794 188.241 29.8981Z" fill="#E6E6E6"/>
<path d="M187.443 25.2454L202.521 26.6148C203.61 26.7137 203.603 25.015 202.521 24.9168L187.443 23.5474C186.355 23.4485 186.362 25.1472 187.443 25.2454Z" fill="#E6E6E6"/>
<path d="M25.4987 17.4266C24.7612 17.422 24.0387 17.6346 23.4212 18.0377C22.8038 18.4409 22.3186 19.0168 22.0264 19.6937C21.6994 20.3563 21.5984 21.1076 21.739 21.8329C21.8795 22.5582 22.2538 23.2175 22.8046 23.71C23.3224 24.1504 23.9434 24.4524 24.6097 24.5877C25.2759 24.723 25.9655 24.6872 26.6142 24.4837C27.2775 24.2521 27.8528 23.8206 28.2607 23.2487C28.6686 22.6767 28.8892 21.9924 28.892 21.29C28.9217 20.5106 28.7105 19.7411 28.2872 19.086C27.8639 18.4308 27.2491 17.9219 26.5263 17.6285C26.3092 17.5695 26.0775 17.5987 25.8818 17.7098C25.6861 17.8209 25.5423 18.0048 25.4817 18.2215C25.4281 18.4383 25.4597 18.6675 25.5701 18.8618C25.6804 19.0561 25.861 19.2007 26.0748 19.2658C26.2228 19.323 25.9396 19.1931 26.0778 19.2684C26.1346 19.2993 26.1925 19.3273 26.2483 19.3603C26.2957 19.3884 26.3411 19.4192 26.3873 19.4493C26.5458 19.5527 26.3099 19.3733 26.4112 19.4663C26.4991 19.5469 26.5862 19.6256 26.666 19.7146C26.6962 19.7483 26.8146 19.8418 26.7226 19.7764C26.6523 19.7264 26.6955 19.7382 26.7226 19.7783C26.7432 19.8088 26.7649 19.8385 26.7852 19.8691C26.8514 19.9693 26.9116 20.0733 26.9655 20.1806C26.978 20.2055 26.9894 20.2309 27.0021 20.2556C27.0258 20.3019 27.0603 20.314 27.0044 20.256C26.951 20.2006 26.985 20.2044 27.0041 20.2577C27.0167 20.2928 27.0304 20.3274 27.0426 20.3626C27.0824 20.4771 27.1159 20.5937 27.1427 20.712C27.1552 20.7666 27.1652 20.8216 27.1759 20.8766C27.2138 21.0716 27.1704 20.7554 27.1795 20.9002C27.1872 21.0211 27.1961 21.1407 27.194 21.2621C27.193 21.3177 27.1906 21.3732 27.1868 21.4286C27.1848 21.4563 27.1817 21.4838 27.1799 21.5115C27.1711 21.6447 27.1708 21.4628 27.1895 21.4503C27.1506 21.5634 27.1249 21.6806 27.1127 21.7996C27.0975 21.8523 27.0794 21.904 27.0625 21.9562C27.0034 22.1383 27.118 21.8569 27.055 21.9814C27.0032 22.0883 26.9453 22.1922 26.8815 22.2925C26.8538 22.3345 26.7495 22.4294 26.8348 22.3634C26.9274 22.2917 26.7863 22.4151 26.7562 22.4469C26.7175 22.4877 26.6773 22.527 26.6357 22.565C26.6091 22.591 26.581 22.6154 26.5515 22.6382C26.5461 22.6355 26.6934 22.5398 26.614 22.5904C26.5131 22.6548 26.4176 22.7236 26.3112 22.7796C26.2988 22.7862 26.1629 22.8491 26.1634 22.8514C26.1576 22.8284 26.3382 22.7878 26.2142 22.8278C26.1882 22.8362 26.1626 22.8464 26.1367 22.8551C26.0238 22.8931 25.9085 22.9238 25.7917 22.947C25.765 22.9523 25.7367 22.955 25.7103 22.9619C25.6225 22.9846 25.7942 22.9485 25.7994 22.9515C25.7345 22.9487 25.6695 22.9545 25.6061 22.9686C25.4856 22.9755 25.3648 22.9755 25.2443 22.9686C25.2164 22.967 25.1886 22.9642 25.1608 22.9626C25.096 22.9588 25.0485 22.9122 25.1347 22.9628C25.2011 23.0019 25.1956 22.9734 25.1367 22.9625C25.1092 22.9574 25.0815 22.9531 25.054 22.948C24.9347 22.9257 24.8168 22.8968 24.7007 22.8615C24.6383 22.8424 24.5771 22.8203 24.5154 22.7988C24.4886 22.791 24.4625 22.7809 24.4373 22.7687C24.4369 22.7617 24.5961 22.8448 24.5121 22.7995C24.406 22.7423 24.2963 22.6944 24.1927 22.6319C24.1374 22.5986 24.0843 22.5624 24.0306 22.5267C24.007 22.5124 23.9845 22.4963 23.9634 22.4785C23.9652 22.4714 24.095 22.5917 24.0269 22.5267C23.9406 22.4446 23.8484 22.371 23.7667 22.2836C23.7481 22.2635 23.7304 22.2426 23.7118 22.2225L23.6938 22.202C23.6477 22.1457 23.6469 22.146 23.6912 22.2028C23.7362 22.216 23.7341 22.2654 23.6914 22.2013C23.6762 22.1784 23.66 22.1562 23.6449 22.1333C23.5759 22.0351 23.5171 21.9301 23.4693 21.82C23.4735 21.8168 23.5429 22.0243 23.4898 21.8677C23.4798 21.8381 23.4685 21.809 23.4587 21.7793C23.4391 21.7205 23.422 21.661 23.4071 21.6009C23.3925 21.5413 23.3849 21.4799 23.3701 21.4206C23.3452 21.3206 23.3847 21.4994 23.3802 21.495C23.366 21.481 23.3721 21.3943 23.371 21.3735C23.3642 21.2403 23.3794 21.111 23.3818 20.9786C23.3836 20.876 23.3733 21.0585 23.3711 21.0532C23.3717 21.0225 23.3771 20.992 23.3873 20.963C23.4026 20.8932 23.4169 20.8234 23.4357 20.7544C23.4573 20.6753 23.4821 20.5972 23.5102 20.52C23.5207 20.4912 23.5334 20.4627 23.5432 20.4336C23.5789 20.327 23.4724 20.5624 23.5312 20.4662C23.612 20.334 23.6721 20.1908 23.7579 20.0602C23.7782 20.0292 23.9018 19.8568 23.8362 19.9438C23.7709 20.0306 23.9034 19.8662 23.9285 19.8383C24.0326 19.7223 24.1551 19.6271 24.263 19.5161C24.3268 19.4503 24.2184 19.5484 24.212 19.553C24.2454 19.5291 24.2781 19.5044 24.312 19.4811C24.3709 19.4404 24.4313 19.402 24.4932 19.3658C24.5628 19.325 24.6416 19.2946 24.7091 19.2514C24.7889 19.2004 24.6481 19.2738 24.6456 19.2753C24.682 19.2573 24.7202 19.2427 24.7594 19.232C24.8251 19.2087 25.1111 19.0853 25.1711 19.1239C25.1684 19.1221 24.954 19.1411 25.1273 19.13C25.1683 19.1274 25.2091 19.1234 25.2501 19.1217C25.3331 19.1182 25.4158 19.1203 25.4987 19.1246C25.7235 19.1232 25.9387 19.0332 26.0976 18.8743C26.2565 18.7154 26.3465 18.5003 26.348 18.2756C26.3432 18.052 26.2521 17.8388 26.0939 17.6806C25.9357 17.5224 25.7224 17.4314 25.4987 17.4266Z" fill="#E6E6E6"/>
<path d="M37.3881 17.4266C36.6506 17.422 35.9281 17.6346 35.3106 18.0377C34.6932 18.4409 34.2081 19.0168 33.9158 19.6937C33.5888 20.3563 33.4878 21.1076 33.6284 21.8329C33.7689 22.5582 34.1432 23.2175 34.694 23.71C35.2118 24.1504 35.8328 24.4524 36.4991 24.5877C37.1653 24.723 37.8549 24.6872 38.5036 24.4837C39.1669 24.2521 39.7422 23.8206 40.1501 23.2487C40.558 22.6767 40.7786 21.9924 40.7814 21.29C40.8111 20.5106 40.5999 19.7411 40.1766 19.086C39.7533 18.4308 39.1385 17.9219 38.4157 17.6285C38.1986 17.5695 37.9669 17.5987 37.7712 17.7098C37.5755 17.8209 37.4317 18.0048 37.3711 18.2215C37.3175 18.4383 37.3491 18.6675 37.4595 18.8618C37.5698 19.0561 37.7505 19.2007 37.9642 19.2658C38.1122 19.323 37.829 19.1931 37.9672 19.2684C38.024 19.2993 38.0819 19.3273 38.1377 19.3603C38.1851 19.3884 38.2305 19.4192 38.2767 19.4493C38.4352 19.5527 38.1993 19.3733 38.3006 19.4663C38.3885 19.5469 38.4756 19.6256 38.5554 19.7146C38.5856 19.7483 38.704 19.8418 38.612 19.7764C38.5417 19.7264 38.5849 19.7382 38.612 19.7783C38.6326 19.8088 38.6543 19.8385 38.6746 19.8691C38.7408 19.9693 38.801 20.0733 38.8549 20.1806C38.8674 20.2055 38.8788 20.2309 38.8915 20.2556C38.9152 20.3019 38.9497 20.314 38.8938 20.256C38.8404 20.2006 38.8744 20.2044 38.8935 20.2577C38.9061 20.2928 38.9198 20.3274 38.932 20.3626C38.9718 20.4771 39.0053 20.5937 39.0321 20.712C39.0446 20.7666 39.0546 20.8216 39.0653 20.8766C39.1032 21.0716 39.0598 20.7554 39.0689 20.9002C39.0766 21.0211 39.0855 21.1407 39.0834 21.2621C39.0824 21.3177 39.08 21.3732 39.0762 21.4286C39.0742 21.4563 39.0711 21.4838 39.0693 21.5115C39.0605 21.6447 39.0602 21.4628 39.0789 21.4503C39.04 21.5634 39.0143 21.6806 39.0021 21.7996C38.9869 21.8523 38.9688 21.904 38.9519 21.9562C38.8928 22.1383 39.0074 21.8569 38.9444 21.9814C38.8926 22.0883 38.8347 22.1922 38.7709 22.2925C38.7432 22.3345 38.6389 22.4294 38.7242 22.3634C38.8168 22.2917 38.6757 22.4151 38.6456 22.4469C38.6069 22.4877 38.5668 22.527 38.5251 22.565C38.4985 22.591 38.4704 22.6154 38.4409 22.6382C38.4355 22.6355 38.5828 22.5398 38.5034 22.5904C38.4025 22.6548 38.307 22.7236 38.2006 22.7796C38.1882 22.7862 38.0523 22.8491 38.0528 22.8514C38.047 22.8284 38.2276 22.7878 38.1036 22.8278C38.0776 22.8362 38.052 22.8464 38.0261 22.8551C37.9132 22.8931 37.798 22.9238 37.6811 22.947C37.6544 22.9523 37.6261 22.955 37.5997 22.9619C37.5119 22.9846 37.6836 22.9485 37.6888 22.9515C37.6239 22.9487 37.5589 22.9545 37.4955 22.9686C37.375 22.9755 37.2542 22.9755 37.1337 22.9686C37.1058 22.967 37.078 22.9642 37.0502 22.9626C36.9854 22.9588 36.938 22.9122 37.0241 22.9628C37.0905 23.0019 37.085 22.9734 37.0261 22.9625C36.9986 22.9574 36.9709 22.9531 36.9434 22.948C36.8241 22.9257 36.7062 22.8968 36.5901 22.8615C36.5277 22.8424 36.4665 22.8203 36.4048 22.7988C36.378 22.791 36.3519 22.7809 36.3267 22.7687C36.3263 22.7617 36.4855 22.8448 36.4015 22.7995C36.2954 22.7423 36.1857 22.6944 36.0821 22.6319C36.0268 22.5986 35.9737 22.5624 35.92 22.5267C35.8964 22.5124 35.8739 22.4963 35.8528 22.4785C35.8546 22.4714 35.9845 22.5917 35.9163 22.5267C35.83 22.4446 35.7378 22.371 35.6561 22.2836C35.6375 22.2635 35.6198 22.2426 35.6012 22.2225L35.5832 22.202C35.5371 22.1457 35.5363 22.146 35.5806 22.2028C35.6256 22.216 35.6236 22.2654 35.5808 22.2013C35.5656 22.1784 35.5495 22.1562 35.5343 22.1333C35.4653 22.0351 35.4065 21.9301 35.3587 21.82C35.3629 21.8168 35.4323 22.0243 35.3792 21.8677C35.3692 21.8381 35.3579 21.809 35.3481 21.7793C35.3286 21.7205 35.3114 21.661 35.2965 21.6009C35.2819 21.5413 35.2743 21.4799 35.2595 21.4206C35.2346 21.3206 35.2741 21.4994 35.2696 21.495C35.2554 21.481 35.2615 21.3943 35.2604 21.3735C35.2536 21.2403 35.2688 21.111 35.2712 20.9786C35.273 20.876 35.2627 21.0585 35.2605 21.0532C35.2611 21.0225 35.2665 20.992 35.2767 20.963C35.292 20.8932 35.3063 20.8234 35.3252 20.7544C35.3467 20.6753 35.3715 20.5972 35.3996 20.52C35.4101 20.4912 35.4228 20.4627 35.4326 20.4336C35.4683 20.327 35.3618 20.5624 35.4206 20.4662C35.5014 20.334 35.5615 20.1908 35.6473 20.0602C35.6677 20.0292 35.7912 19.8568 35.7256 19.9438C35.6603 20.0306 35.7928 19.8662 35.8179 19.8383C35.922 19.7223 36.0445 19.6271 36.1524 19.5161C36.2162 19.4503 36.1078 19.5484 36.1014 19.553C36.1348 19.5291 36.1675 19.5044 36.2014 19.4811C36.2603 19.4404 36.3207 19.402 36.3826 19.3658C36.4522 19.325 36.531 19.2946 36.5985 19.2514C36.6783 19.2004 36.5375 19.2738 36.535 19.2753C36.5715 19.2573 36.6096 19.2427 36.6488 19.232C36.7145 19.2087 37.0005 19.0853 37.0605 19.1239C37.0578 19.1221 36.8434 19.1411 37.0167 19.13C37.0577 19.1274 37.0985 19.1234 37.1395 19.1217C37.2225 19.1182 37.3052 19.1203 37.3881 19.1246C37.6129 19.1232 37.8281 19.0332 37.987 18.8743C38.1459 18.7154 38.2359 18.5003 38.2374 18.2756C38.2326 18.052 38.1415 17.8388 37.9833 17.6806C37.8251 17.5224 37.6118 17.4314 37.3881 17.4266Z" fill="#E6E6E6"/>
<path d="M49.2773 17.4266C48.5398 17.422 47.8173 17.6346 47.1998 18.0377C46.5823 18.4409 46.0972 19.0168 45.8049 19.6937C45.4779 20.3563 45.377 21.1076 45.5175 21.8329C45.6581 22.5582 46.0324 23.2175 46.5832 23.71C47.101 24.1504 47.722 24.4524 48.3882 24.5877C49.0544 24.723 49.7441 24.6872 50.3927 24.4837C51.0561 24.2521 51.6313 23.8206 52.0393 23.2487C52.4472 22.6767 52.6678 21.9924 52.6706 21.29C52.7002 20.5106 52.4891 19.7411 52.0658 19.086C51.6425 18.4308 51.0277 17.9219 50.3049 17.6285C50.0877 17.5695 49.8561 17.5987 49.6604 17.7098C49.4647 17.8209 49.3208 18.0048 49.2602 18.2215C49.2067 18.4383 49.2383 18.6675 49.3486 18.8618C49.459 19.0561 49.6396 19.2007 49.8534 19.2658C50.0014 19.323 49.7182 19.1931 49.8564 19.2684C49.9132 19.2993 49.9711 19.3273 50.0269 19.3603C50.0743 19.3884 50.1197 19.4192 50.1659 19.4493C50.3244 19.5527 50.0885 19.3733 50.1898 19.4663C50.2777 19.5469 50.3647 19.6256 50.4446 19.7146C50.4748 19.7483 50.5931 19.8418 50.5012 19.7764C50.4308 19.7264 50.474 19.7382 50.5011 19.7783C50.5217 19.8088 50.5435 19.8385 50.5638 19.8691C50.63 19.9693 50.6902 20.0733 50.744 20.1806C50.7565 20.2055 50.7679 20.2309 50.7806 20.2556C50.8044 20.3019 50.8389 20.314 50.783 20.256C50.7295 20.2006 50.7636 20.2044 50.7827 20.2577C50.7952 20.2928 50.8089 20.3274 50.8212 20.3626C50.861 20.4771 50.8944 20.5937 50.9213 20.712C50.9338 20.7666 50.9438 20.8216 50.9545 20.8766C50.9924 21.0716 50.9489 20.7554 50.9581 20.9002C50.9658 21.0211 50.9747 21.1407 50.9726 21.2621C50.9716 21.3177 50.9692 21.3732 50.9653 21.4286C50.9634 21.4563 50.9603 21.4838 50.9585 21.5115C50.9497 21.6447 50.9494 21.4628 50.968 21.4503C50.9292 21.5634 50.9035 21.6806 50.8913 21.7996C50.8761 21.8523 50.858 21.904 50.8411 21.9562C50.782 22.1383 50.8966 21.8569 50.8336 21.9814C50.7817 22.0883 50.7238 22.1922 50.6601 22.2925C50.6324 22.3345 50.5281 22.4294 50.6134 22.3634C50.706 22.2917 50.5648 22.4151 50.5347 22.4469C50.4961 22.4877 50.4559 22.527 50.4143 22.565C50.3877 22.591 50.3595 22.6154 50.3301 22.6382C50.3247 22.6355 50.472 22.5398 50.3926 22.5904C50.2917 22.6548 50.1961 22.7236 50.0898 22.7796C50.0774 22.7862 49.9414 22.8491 49.942 22.8514C49.9361 22.8284 50.1168 22.7878 49.9928 22.8278C49.9667 22.8362 49.9412 22.8464 49.9152 22.8551C49.8023 22.8931 49.6871 22.9238 49.5703 22.947C49.5435 22.9523 49.5152 22.955 49.4889 22.9619C49.4011 22.9846 49.5728 22.9485 49.5779 22.9515C49.513 22.9487 49.4481 22.9545 49.3847 22.9686C49.2642 22.9755 49.1434 22.9755 49.0229 22.9686C48.995 22.967 48.9672 22.9642 48.9393 22.9626C48.8746 22.9588 48.8271 22.9122 48.9132 22.9628C48.9797 23.0019 48.9741 22.9734 48.9153 22.9625C48.8878 22.9574 48.8601 22.9531 48.8326 22.948C48.7133 22.9257 48.5954 22.8968 48.4793 22.8615C48.4168 22.8424 48.3556 22.8203 48.294 22.7988C48.2672 22.791 48.241 22.7809 48.2159 22.7687C48.2155 22.7617 48.3747 22.8448 48.2906 22.7995C48.1846 22.7423 48.0749 22.6944 47.9713 22.6319C47.916 22.5986 47.8629 22.5624 47.8092 22.5267C47.7855 22.5124 47.7631 22.4963 47.742 22.4785C47.7437 22.4714 47.8736 22.5917 47.8054 22.5267C47.7192 22.4446 47.627 22.371 47.5453 22.2836C47.5266 22.2635 47.509 22.2426 47.4903 22.2225L47.4723 22.202C47.4263 22.1457 47.4254 22.146 47.4698 22.2028C47.5148 22.216 47.5127 22.2654 47.47 22.2013C47.4548 22.1784 47.4386 22.1562 47.4234 22.1333C47.3545 22.0351 47.2956 21.9301 47.2479 21.82C47.252 21.8168 47.3215 22.0243 47.2684 21.8677C47.2583 21.8381 47.2471 21.809 47.2372 21.7793C47.2177 21.7205 47.2005 21.661 47.1857 21.6009C47.171 21.5413 47.1635 21.4799 47.1487 21.4206C47.1237 21.3206 47.1633 21.4994 47.1588 21.495C47.1446 21.481 47.1506 21.3943 47.1496 21.3735C47.1428 21.2403 47.158 21.111 47.1603 20.9786C47.1622 20.876 47.1518 21.0585 47.1497 21.0532C47.1502 21.0225 47.1557 20.992 47.1658 20.963C47.1812 20.8932 47.1955 20.8234 47.2143 20.7544C47.2359 20.6753 47.2607 20.5972 47.2887 20.52C47.2992 20.4912 47.312 20.4627 47.3218 20.4336C47.3575 20.327 47.251 20.5624 47.3097 20.4662C47.3905 20.334 47.4507 20.1908 47.5365 20.0602C47.5568 20.0292 47.6804 19.8568 47.6148 19.9438C47.5495 20.0306 47.6819 19.8662 47.707 19.8383C47.8112 19.7223 47.9337 19.6271 48.0415 19.5161C48.1054 19.4503 47.997 19.5484 47.9906 19.553C48.024 19.5291 48.0567 19.5044 48.0905 19.4811C48.1495 19.4404 48.2099 19.402 48.2717 19.3658C48.3414 19.325 48.4202 19.2946 48.4877 19.2514C48.5675 19.2004 48.4267 19.2738 48.4242 19.2753C48.4606 19.2573 48.4987 19.2427 48.5379 19.232C48.6037 19.2087 48.8897 19.0853 48.9497 19.1239C48.947 19.1221 48.7325 19.1411 48.9059 19.13C48.9469 19.1274 48.9877 19.1234 49.0287 19.1217C49.1117 19.1182 49.1944 19.1203 49.2773 19.1246C49.5021 19.1232 49.7172 19.0332 49.8762 18.8743C50.0351 18.7154 50.1251 18.5003 50.1265 18.2756C50.1217 18.052 50.0307 17.8388 49.8725 17.6806C49.7142 17.5224 49.501 17.4314 49.2773 17.4266Z" fill="#E6E6E6"/>
<path d="M221.035 205.46H12.742C10.1081 205.457 7.58292 204.41 5.72045 202.548C3.85798 200.686 2.81034 198.161 2.80737 195.528V9.9319C2.81033 7.2987 3.85795 4.7742 5.72042 2.91225C7.58288 1.05029 10.1081 0.00295275 12.742 0H221.035C223.669 0.00295276 226.194 1.05029 228.057 2.91225C229.919 4.7742 230.967 7.2987 230.97 9.9319V195.528C230.967 198.161 229.919 200.686 228.057 202.548C226.194 204.41 223.669 205.457 221.035 205.46ZM12.742 1.13201C10.4083 1.13466 8.17093 2.06265 6.52076 3.71237C4.87058 5.36209 3.94235 7.59883 3.93969 9.9319V195.528C3.94241 197.861 4.87067 200.098 6.52084 201.748C8.17102 203.397 10.4083 204.325 12.742 204.328H221.035C223.369 204.325 225.606 203.397 227.256 201.748C228.907 200.098 229.835 197.861 229.837 195.528V9.9319C229.835 7.59884 228.907 5.36209 227.256 3.71237C225.606 2.06265 223.369 1.13467 221.035 1.13201H12.742Z" fill="#E6E6E6"/>
<path d="M12.3967 126.279L85.646 126.056L158.522 125.835L199.631 125.71C199.851 125.702 200.06 125.609 200.213 125.451C200.366 125.293 200.451 125.081 200.451 124.861C200.451 124.641 200.366 124.429 200.213 124.271C200.06 124.112 199.851 124.019 199.631 124.012L126.382 124.234L53.506 124.456L12.3967 124.581C12.1766 124.589 11.968 124.682 11.815 124.84C11.662 124.998 11.5764 125.21 11.5764 125.43C11.5764 125.65 11.662 125.862 11.815 126.02C11.968 126.179 12.1766 126.271 12.3967 126.279Z" fill="#E6E6E6"/>
<path d="M49.35 124.902L49.8029 98.1661C49.8214 97.073 48.123 97.0728 48.1044 98.1661L47.6515 124.902C47.633 125.996 49.3315 125.996 49.35 124.902Z" fill="#E6E6E6"/>
<path d="M84.3587 125.192L85.4625 91.5856L85.7778 81.9838C85.8137 80.8908 84.1152 80.8921 84.0794 81.9838L82.9756 115.59L82.6602 125.192C82.6243 126.285 84.3229 126.283 84.3587 125.192Z" fill="#E6E6E6"/>
<path d="M119.273 66.0534C118.607 77.9565 117.375 113.066 116.709 124.969C116.648 126.061 118.347 126.057 118.408 124.969C119.074 113.066 120.306 77.9565 120.971 66.0534C121.032 64.9616 119.334 64.9651 119.273 66.0534Z" fill="#E6E6E6"/>
<path d="M154.019 113.025L153.811 124.466C153.791 125.559 155.489 125.559 155.509 124.466C155.755 110.953 156.386 111.394 156.455 107.58C156.475 106.487 154.777 106.487 154.757 107.58C154.757 107.58 154.265 99.5126 154.019 113.025Z" fill="#E6E6E6"/>
<path d="M188.052 82.97L188.244 115.067L188.299 124.258C188.307 124.478 188.4 124.687 188.558 124.84C188.716 124.993 188.928 125.078 189.148 125.078C189.369 125.078 189.58 124.993 189.739 124.84C189.897 124.687 189.99 124.478 189.998 124.258L189.805 92.1609L189.75 82.97C189.743 82.7499 189.65 82.5414 189.492 82.3884C189.333 82.2354 189.122 82.1499 188.901 82.1499C188.681 82.1499 188.469 82.2354 188.311 82.3884C188.152 82.5414 188.06 82.7499 188.052 82.97Z" fill="#E6E6E6"/>
<path d="M12.5333 125.324C11.1274 121.461 14.2966 117.747 17.5531 116.077C21.4545 114.077 25.9426 113.624 29.8853 111.696C35.7634 108.822 40.0447 103.664 43.8544 98.5005C47.7755 93.1861 51.3632 87.4825 56.3456 83.0669C58.9712 80.6882 62.0721 78.8942 65.4431 77.8035C69.6906 76.4783 74.1953 76.3874 78.5842 76.9215C87.6533 78.025 96.0604 81.7698 104.811 84.1499C113.061 86.3938 122.151 87.6557 130.249 84.1662C134.363 82.3933 137.728 79.4199 141.341 76.8468C144.838 74.3305 148.749 72.4447 152.896 71.2747C161.024 69.0149 169.902 69.6183 177.47 73.4386C184.426 76.905 189.935 82.7169 193.022 89.8484C196.61 98.4169 196.143 107.992 194.971 117.011C194.668 119.342 194.307 121.666 193.943 123.988C193.775 125.057 195.411 125.517 195.581 124.439C197.04 115.139 198.495 105.545 196.679 96.1865C195.109 88.0149 190.614 80.6953 184.036 75.5972C177.43 70.4853 169.218 67.8943 160.874 68.2893C156.501 68.4922 152.196 69.4493 148.15 71.1184C143.949 72.8554 140.392 75.43 136.779 78.139C133.065 80.9243 129.235 83.2282 124.623 84.1366C120.15 85.0177 115.496 84.6874 111.042 83.8555C101.852 82.1389 93.2859 78.2038 84.1738 76.1876C75.7314 74.3196 66.6213 74.1329 59.0615 78.901C53.2462 82.5687 49.1371 88.2627 45.1935 93.7609C41.2845 99.2108 37.3261 105.039 31.6102 108.762C28.1233 111.033 24.2037 111.871 20.3032 113.148C16.3926 114.428 12.6383 116.588 11.0438 120.594C10.3565 122.244 10.3037 124.089 10.8955 125.775C11.2664 126.794 12.9084 126.354 12.5333 125.324Z" fill="#E6E6E6"/>
<path d="M48.7865 94.469L48.7842 94.4702L48.7889 94.469H48.7865Z" fill="#E6E6E6"/>
<path d="M51.7315 92.9071C51.339 92.2121 50.7127 91.6787 49.964 91.4017C49.2153 91.1247 48.3926 91.1219 47.6421 91.3939C47.269 91.5301 46.927 91.7396 46.6363 92.0102C46.3457 92.2808 46.1122 92.6069 45.9498 92.9692C45.9173 93.0462 45.8983 93.1272 45.8717 93.2061C45.8349 93.2656 45.7907 93.3193 45.7577 93.3815C45.4057 94.0828 45.3093 94.8848 45.4852 95.6495C45.661 96.4142 46.0981 97.0936 46.7211 97.5708C47.3441 98.048 48.1141 98.293 48.8984 98.2637C49.6826 98.2344 50.4322 97.9326 51.0178 97.4103C51.6333 96.854 52.0398 96.1039 52.1697 95.2846C52.2995 94.4653 52.1449 93.6263 51.7315 92.9071ZM49.6043 94.349C49.6087 94.4313 49.6113 94.3919 49.6043 94.349V94.349ZM49.3881 93.8575C49.3798 93.8479 49.3808 93.849 49.3881 93.8575V93.8575ZM48.4351 94.2406C48.4211 94.2177 48.4223 94.221 48.4351 94.2406V94.2406ZM48.661 94.4321C48.6935 94.4466 48.7148 94.4504 48.661 94.4321V94.4321ZM48.7618 94.4801L48.7842 94.4699C48.7787 94.4704 48.7732 94.4693 48.7684 94.4668L48.769 94.4666L48.7865 94.4688L48.7898 94.4673L48.7797 94.465C48.7885 94.4647 48.7892 94.466 48.7898 94.4673C48.8909 94.4211 48.8227 94.4433 48.7641 94.4614L48.7602 94.4605C48.7236 94.4419 48.6843 94.4293 48.6438 94.4231C48.64 94.421 48.6356 94.4195 48.6324 94.4173C48.5999 94.3941 48.4356 94.2658 48.588 94.4003C48.5549 94.371 48.5221 94.3423 48.4909 94.3106C48.4725 94.2918 48.4558 94.2713 48.441 94.2494C48.421 94.2151 48.4016 94.1805 48.3828 94.1456L48.38 94.1268C48.3775 94.1111 48.3757 94.1046 48.3736 94.0953C48.3746 94.0855 48.3761 94.0751 48.3776 94.065C48.389 94.0345 48.3963 94.0025 48.3992 93.9701L48.4058 93.9618C48.4302 93.9278 48.4515 93.8881 48.4748 93.8527C48.3517 94.0396 48.5229 93.8321 48.5357 93.8058C48.5379 93.8013 48.5341 93.8038 48.535 93.8006C48.54 93.7979 48.5385 93.7998 48.5445 93.7963C48.5827 93.7738 48.6188 93.7488 48.6575 93.7273C48.7037 93.7017 48.8854 93.6502 48.6969 93.704C48.7397 93.6918 48.7808 93.6763 48.8241 93.665C48.8319 93.663 48.8954 93.6541 48.9296 93.648C48.9596 93.6472 48.9887 93.6463 48.9918 93.6464C49.0059 93.6465 49.02 93.6483 49.0341 93.6489C49.0028 93.6531 49.1414 93.683 49.1825 93.6893C49.1885 93.694 49.1915 93.697 49.1996 93.7029C49.2344 93.7283 49.2767 93.7509 49.3135 93.7747C49.1492 93.6685 49.3156 93.7831 49.347 93.8145C49.3658 93.8332 49.383 93.8532 49.4007 93.8729C49.4169 93.8917 49.4315 93.9118 49.4444 93.9329C49.4714 93.9823 49.5 94.0322 49.5283 94.0807L49.5361 94.0932C49.536 94.0948 49.5359 94.0964 49.5359 94.098C49.5507 94.1767 49.5724 94.2539 49.6009 94.3288C49.6023 94.3351 49.6034 94.3415 49.6042 94.348C49.6068 94.3911 49.6104 94.4341 49.6105 94.4774L49.6101 94.4862C49.4793 94.418 49.3342 94.3819 49.1867 94.3809C49.0392 94.3798 48.8936 94.4138 48.7618 94.4801Z" fill="#E6E6E6"/>
<path d="M48.7918 94.468C48.7945 94.4689 48.7913 94.469 48.7913 94.469L48.7918 94.468Z" fill="#E6E6E6"/>
<path d="M48.7921 94.4688L48.7888 94.4693C48.7929 94.4697 48.7921 94.4688 48.7921 94.4688Z" fill="#E6E6E6"/>
<path d="M48.79 94.4673L48.792 94.4683L48.79 94.4673Z" fill="#E6E6E6"/>
<path d="M85.0209 78.6208L85.0186 78.622L85.0233 78.6208H85.0209Z" fill="#E6E6E6"/>
<path d="M87.9657 77.0589C87.5731 76.3639 86.9469 75.8306 86.1981 75.5535C85.4494 75.2765 84.6268 75.2738 83.8762 75.5458C83.5031 75.6819 83.1611 75.8915 82.8705 76.1621C82.5798 76.4326 82.3463 76.7587 82.1839 77.1211C82.1514 77.1981 82.1324 77.279 82.1059 77.3579C82.0691 77.4174 82.0248 77.4711 81.9919 77.5334C81.6398 78.2346 81.5435 79.0367 81.7193 79.8014C81.8951 80.566 82.3322 81.2455 82.9552 81.7226C83.5782 82.1998 84.3482 82.4449 85.1325 82.4156C85.9168 82.3863 86.6663 82.0845 87.252 81.5621C87.8675 81.0059 88.274 80.2557 88.4038 79.4365C88.5336 78.6172 88.379 77.7781 87.9657 77.0589ZM85.8385 78.5009C85.8429 78.5831 85.8454 78.5437 85.8385 78.5009V78.5009ZM85.6222 78.0093C85.6139 77.9998 85.615 78.0008 85.6222 78.0093V78.0093ZM84.6692 78.3925C84.6552 78.3696 84.6564 78.3728 84.6692 78.3925V78.3925ZM84.8951 78.5839C84.9276 78.5984 84.9489 78.6022 84.8951 78.5839V78.5839ZM84.996 78.632L85.0183 78.6217C85.0128 78.6223 85.0073 78.6212 85.0025 78.6186L85.0031 78.6185L85.0206 78.6207L85.0239 78.6192L85.0138 78.6168C85.0226 78.6165 85.0233 78.6178 85.0239 78.6192C85.1249 78.5729 85.0568 78.5951 84.9982 78.6132L84.9943 78.6123C84.9577 78.5938 84.9184 78.5812 84.8778 78.575C84.8741 78.5729 84.8697 78.5714 84.8665 78.5691C84.834 78.546 84.6697 78.4176 84.8221 78.5522C84.7889 78.5229 84.7562 78.4941 84.725 78.4625C84.7066 78.4436 84.6899 78.4231 84.6751 78.4013C84.6551 78.367 84.6357 78.3324 84.6169 78.2975L84.6141 78.2786C84.6116 78.263 84.6098 78.2565 84.6077 78.2471C84.6087 78.2374 84.6102 78.227 84.6117 78.2168C84.6231 78.1863 84.6304 78.1544 84.6333 78.1219L84.6399 78.1137C84.6643 78.0796 84.6856 78.0399 84.7089 78.0046C84.5858 78.1915 84.757 77.9839 84.7698 77.9576C84.772 77.9532 84.7682 77.9556 84.7691 77.9525C84.7741 77.9497 84.7726 77.9516 84.7786 77.9481C84.8167 77.9257 84.8529 77.9006 84.8916 77.8792C84.9378 77.8536 85.1195 77.802 84.931 77.8559C84.9738 77.8436 85.0149 77.8282 85.0582 77.8169C85.066 77.8149 85.1295 77.806 85.1637 77.7998C85.1937 77.7991 85.2228 77.7982 85.2259 77.7982C85.24 77.7984 85.254 77.8001 85.2682 77.8007C85.2369 77.8049 85.3755 77.8349 85.4166 77.8412C85.4226 77.8459 85.4256 77.8489 85.4337 77.8548C85.4685 77.8802 85.5108 77.9028 85.5476 77.9265C85.3833 77.8204 85.5497 77.9349 85.5811 77.9663C85.5998 77.9851 85.6171 78.0051 85.6348 78.0248C85.651 78.0436 85.6656 78.0636 85.6785 78.0848C85.7055 78.1341 85.7341 78.184 85.7624 78.2326L85.7702 78.245C85.7701 78.2466 85.77 78.2483 85.77 78.2499C85.7848 78.3286 85.8065 78.4058 85.835 78.4806C85.8364 78.487 85.8375 78.4934 85.8382 78.4998C85.8409 78.5429 85.8445 78.5859 85.8446 78.6293L85.8442 78.638C85.7134 78.5699 85.5683 78.5338 85.4208 78.5327C85.2733 78.5317 85.1277 78.5657 84.996 78.632Z" fill="#E6E6E6"/>
<path d="M85.0262 78.6206L85.0229 78.6211C85.0271 78.6215 85.0262 78.6206 85.0262 78.6206Z" fill="#E6E6E6"/>
<path d="M85.0242 78.6191L85.0262 78.6201L85.0242 78.6191Z" fill="#E6E6E6"/>
<path d="M85.0261 78.6199C85.0289 78.6207 85.0256 78.6208 85.0256 78.6208L85.0261 78.6199Z" fill="#E6E6E6"/>
<path d="M120.126 86.5432L120.128 86.5442L120.126 86.5432Z" fill="#E6E6E6"/>
<path d="M123.068 61.2108C122.675 60.5158 122.049 59.9824 121.3 59.7054C120.551 59.4284 119.729 59.4256 118.978 59.6976C118.605 59.8338 118.263 60.0433 117.973 60.3139C117.682 60.5845 117.448 60.9106 117.286 61.2729C117.253 61.3499 117.234 61.4309 117.208 61.5098C117.171 61.5693 117.127 61.623 117.094 61.6852C116.742 62.3865 116.646 63.1885 116.821 63.9532C116.997 64.7179 117.434 65.3973 118.057 65.8745C118.68 66.3517 119.45 66.5967 120.235 66.5674C121.019 66.5381 121.768 66.2363 122.354 65.714C122.97 65.1577 123.376 64.4076 123.506 63.5883C123.636 62.769 123.481 61.93 123.068 61.2108ZM120.941 62.6527C120.945 62.735 120.947 62.6956 120.941 62.6527V62.6527ZM120.724 62.1612C120.716 62.1516 120.717 62.1527 120.724 62.1612V62.1612ZM119.771 62.5443C119.757 62.5214 119.758 62.5247 119.771 62.5443V62.5443ZM119.997 62.7358C120.03 62.7503 120.051 62.7541 119.997 62.7358V62.7358ZM120.098 62.7838L120.12 62.7736C120.115 62.7741 120.109 62.773 120.105 62.7705L120.105 62.7704L120.123 62.7725L120.126 62.771L120.116 62.7687C120.125 62.7684 120.125 62.7697 120.126 62.771C120.227 62.7248 120.159 62.747 120.1 62.7651L120.096 62.7642C120.06 62.7456 120.02 62.733 119.98 62.7268C119.976 62.7247 119.972 62.7232 119.969 62.721C119.936 62.6978 119.772 62.5695 119.924 62.704C119.891 62.6747 119.858 62.646 119.827 62.6144C119.809 62.5955 119.792 62.575 119.777 62.5531C119.757 62.5188 119.738 62.4842 119.719 62.4493L119.716 62.4305C119.714 62.4149 119.712 62.4084 119.71 62.399C119.711 62.3893 119.712 62.3788 119.714 62.3687C119.725 62.3382 119.732 62.3063 119.735 62.2738L119.742 62.2655C119.766 62.2315 119.788 62.1918 119.811 62.1564C119.688 62.3433 119.859 62.1358 119.872 62.1095C119.874 62.105 119.87 62.1075 119.871 62.1044C119.876 62.1016 119.875 62.1035 119.881 62.1C119.919 62.0775 119.955 62.0525 119.994 62.031C120.04 62.0054 120.222 61.9539 120.033 62.0077C120.076 61.9955 120.117 61.9801 120.16 61.9688C120.168 61.9667 120.232 61.9578 120.266 61.9517C120.296 61.9509 120.325 61.95 120.328 61.9501C120.342 61.9502 120.356 61.952 120.37 61.9526C120.339 61.9568 120.478 61.9867 120.519 61.993C120.525 61.9977 120.528 62.0007 120.536 62.0066C120.571 62.032 120.613 62.0546 120.65 62.0784C120.485 61.9722 120.652 62.0868 120.683 62.1182C120.702 62.1369 120.719 62.1569 120.737 62.1767C120.753 62.1954 120.768 62.2155 120.781 62.2366C120.808 62.286 120.836 62.3359 120.864 62.3844L120.872 62.3969C120.872 62.3985 120.872 62.4001 120.872 62.4017C120.887 62.4804 120.909 62.5577 120.937 62.6325C120.938 62.6388 120.94 62.6452 120.94 62.6517C120.943 62.6948 120.947 62.7378 120.947 62.7811L120.946 62.7899C120.815 62.7217 120.67 62.6856 120.523 62.6846C120.375 62.6835 120.23 62.7176 120.098 62.7838Z" fill="#E6E6E6"/>
<path d="M120.123 86.5449L120.12 86.5461L120.125 86.5449H120.123Z" fill="#E6E6E6"/>
<path d="M120.128 86.5447L120.125 86.5452C120.129 86.5456 120.128 86.5447 120.128 86.5447Z" fill="#E6E6E6"/>
<path d="M120.128 86.5439C120.131 86.5448 120.127 86.5449 120.127 86.5449L120.128 86.5439Z" fill="#E6E6E6"/>
<path d="M158.736 104.793C158.343 104.098 157.717 103.565 156.968 103.288C156.219 103.011 155.397 103.008 154.646 103.28C154.273 103.416 153.931 103.626 153.64 103.896C153.35 104.167 153.116 104.493 152.954 104.855C152.921 104.932 152.902 105.013 152.876 105.092C152.839 105.152 152.795 105.206 152.762 105.268C152.41 105.969 152.313 106.771 152.489 107.536C152.665 108.3 153.102 108.98 153.725 109.457C154.348 109.934 155.118 110.179 155.903 110.15C156.687 110.121 157.436 109.819 158.022 109.297C158.637 108.74 159.044 107.99 159.174 107.171C159.304 106.352 159.149 105.513 158.736 104.793ZM156.608 106.235C156.613 106.317 156.615 106.278 156.608 106.235V106.235ZM156.392 105.744C156.384 105.734 156.385 105.735 156.392 105.744V105.744ZM155.439 106.127C155.425 106.104 155.426 106.107 155.439 106.127V106.127ZM155.665 106.318C155.698 106.333 155.719 106.337 155.665 106.318V106.318ZM155.766 106.366L155.788 106.356C155.783 106.357 155.777 106.356 155.772 106.353L155.773 106.353L155.791 106.355L155.794 106.354L155.784 106.351C155.793 106.351 155.793 106.352 155.794 106.354C155.895 106.307 155.827 106.329 155.768 106.348L155.764 106.347C155.728 106.328 155.688 106.316 155.648 106.309C155.644 106.307 155.64 106.306 155.637 106.303C155.604 106.28 155.44 106.152 155.592 106.287C155.559 106.257 155.526 106.228 155.495 106.197C155.477 106.178 155.46 106.158 155.445 106.136C155.425 106.101 155.406 106.067 155.387 106.032L155.384 106.013C155.382 105.997 155.38 105.991 155.378 105.981C155.379 105.972 155.38 105.961 155.382 105.951C155.393 105.921 155.4 105.889 155.403 105.856L155.41 105.848C155.434 105.814 155.456 105.774 155.479 105.739C155.356 105.926 155.527 105.718 155.54 105.692C155.542 105.688 155.538 105.69 155.539 105.687C155.544 105.684 155.543 105.686 155.549 105.682C155.587 105.66 155.623 105.635 155.662 105.614C155.708 105.588 155.89 105.536 155.701 105.59C155.744 105.578 155.785 105.563 155.828 105.551C155.836 105.549 155.899 105.54 155.934 105.534C155.964 105.533 155.993 105.533 155.996 105.533C156.01 105.533 156.024 105.534 156.038 105.535C156.007 105.539 156.145 105.569 156.187 105.576C156.193 105.58 156.196 105.583 156.204 105.589C156.239 105.615 156.281 105.637 156.318 105.661C156.153 105.555 156.32 105.669 156.351 105.701C156.37 105.719 156.387 105.739 156.405 105.759C156.421 105.778 156.436 105.798 156.449 105.819C156.475 105.869 156.504 105.918 156.532 105.967L156.54 105.979C156.54 105.981 156.54 105.983 156.54 105.984C156.555 106.063 156.577 106.14 156.605 106.215C156.606 106.221 156.608 106.228 156.608 106.234C156.611 106.277 156.615 106.32 156.615 106.364L156.614 106.372C156.483 106.304 156.338 106.268 156.191 106.267C156.043 106.266 155.898 106.3 155.766 106.366Z" fill="#E6E6E6"/>
<path d="M155.791 68.9988L155.789 69L155.793 68.9988H155.791Z" fill="#E6E6E6"/>
<path d="M155.796 68.9985L155.793 68.999C155.797 68.9995 155.796 68.9985 155.796 68.9985Z" fill="#E6E6E6"/>
<path d="M155.796 68.9978C155.799 68.9986 155.796 68.9987 155.796 68.9987L155.796 68.9978Z" fill="#E6E6E6"/>
<path d="M155.794 68.9971L155.796 68.9981L155.794 68.9971Z" fill="#E6E6E6"/>
<path d="M192.139 78.7572C191.746 78.0622 191.12 77.5288 190.371 77.2518C189.623 76.9748 188.8 76.972 188.05 77.244C187.676 77.3802 187.334 77.5897 187.044 77.8603C186.753 78.1309 186.52 78.457 186.357 78.8193C186.325 78.8963 186.306 78.9773 186.279 79.0562C186.242 79.1157 186.198 79.1694 186.165 79.2316C185.813 79.9329 185.717 80.7349 185.893 81.4996C186.068 82.2643 186.506 82.9437 187.129 83.4209C187.752 83.8981 188.522 84.1431 189.306 84.1138C190.09 84.0845 190.84 83.7827 191.425 83.2604C192.041 82.7041 192.447 81.954 192.577 81.1347C192.707 80.3154 192.552 79.4764 192.139 78.7572ZM190.012 80.1991C190.016 80.2814 190.019 80.242 190.012 80.1991V80.1991ZM189.796 79.7076C189.787 79.698 189.788 79.6991 189.796 79.7076V79.7076ZM188.843 80.0907C188.829 80.0678 188.83 80.0711 188.843 80.0907V80.0907ZM189.068 80.2822C189.101 80.2966 189.122 80.3005 189.068 80.2822V80.2822ZM189.169 80.3302L189.192 80.32C189.186 80.3205 189.181 80.3194 189.176 80.3169L189.176 80.3167L189.194 80.3189L189.197 80.3174L189.187 80.3151C189.196 80.3148 189.197 80.3161 189.197 80.3174C189.298 80.2712 189.23 80.2933 189.172 80.3115L189.168 80.3106C189.131 80.292 189.092 80.2794 189.051 80.2732C189.047 80.2711 189.043 80.2696 189.04 80.2674C189.007 80.2442 188.843 80.1159 188.995 80.2504C188.962 80.2211 188.929 80.1924 188.898 80.1607C188.88 80.1419 188.863 80.1214 188.848 80.0995C188.828 80.0652 188.809 80.0306 188.79 79.9957L188.787 79.9769C188.785 79.9612 188.783 79.9547 188.781 79.9454C188.782 79.9356 188.784 79.9252 188.785 79.9151C188.796 79.8846 188.804 79.8526 188.807 79.8202L188.813 79.8119C188.838 79.7779 188.859 79.7382 188.882 79.7028C188.759 79.8897 188.93 79.6822 188.943 79.6559C188.945 79.6514 188.942 79.6538 188.942 79.6507C188.947 79.648 188.946 79.6499 188.952 79.6464C188.99 79.6239 189.026 79.5989 189.065 79.5774C189.111 79.5518 189.293 79.5003 189.104 79.5541C189.147 79.5419 189.188 79.5264 189.232 79.5151C189.239 79.5131 189.303 79.5042 189.337 79.4981C189.367 79.4973 189.396 79.4964 189.399 79.4965C189.413 79.4966 189.427 79.4984 189.441 79.499C189.41 79.5032 189.549 79.5331 189.59 79.5394C189.596 79.5441 189.599 79.5471 189.607 79.553C189.642 79.5784 189.684 79.601 189.721 79.6248C189.557 79.5186 189.723 79.6332 189.754 79.6646C189.773 79.6833 189.79 79.7033 189.808 79.723C189.824 79.7418 189.839 79.7619 189.852 79.783C189.879 79.8324 189.907 79.8823 189.936 79.9308L189.944 79.9433C189.943 79.9449 189.943 79.9465 189.943 79.9481C189.958 80.0268 189.98 80.104 190.008 80.1789C190.01 80.1852 190.011 80.1916 190.012 80.1981C190.014 80.2412 190.018 80.2842 190.018 80.3275L190.018 80.3363C189.887 80.2681 189.742 80.232 189.594 80.231C189.447 80.2299 189.301 80.2639 189.169 80.3302Z" fill="#E6E6E6"/>
<path d="M189.194 80.3188L189.192 80.32L189.197 80.3188H189.194Z" fill="#E6E6E6"/>
<path d="M189.198 80.3171L189.199 80.3181L189.198 80.3171Z" fill="#E6E6E6"/>
<path d="M189.199 80.3179C189.202 80.3187 189.199 80.3188 189.199 80.3188L189.199 80.3179Z" fill="#E6E6E6"/>
<path d="M189.2 80.3188L189.197 80.3194C189.201 80.3198 189.2 80.3188 189.2 80.3188Z" fill="#E6E6E6"/>
<path d="M180.041 106.258L153.716 107.721C153.568 107.729 153.422 107.68 153.308 107.584C153.195 107.488 153.123 107.352 153.107 107.204C153.091 107.056 153.132 106.908 153.222 106.79C153.312 106.672 153.444 106.592 153.59 106.569L180.497 102.191L180.041 106.258Z" fill="#3F3D56"/>
<path d="M213.496 164.849L223.416 148.164L230.748 151.626C230.748 151.626 218.114 167.401 217.711 167.855C217.883 168.622 217.819 169.423 217.526 170.152C217.233 170.882 216.726 171.505 216.071 171.939C215.416 172.374 214.644 172.6 213.858 172.587C213.072 172.573 212.309 172.322 211.669 171.866C211.029 171.409 210.543 170.769 210.274 170.031C210.006 169.292 209.968 168.489 210.166 167.729C210.364 166.968 210.789 166.285 211.383 165.771C211.978 165.257 212.714 164.935 213.496 164.849Z" fill="#FFB6B6"/>
<path d="M217.622 126.091L233.694 134.474C234.698 135.197 235.54 136.122 236.167 137.19C236.793 138.257 237.19 139.443 237.332 140.673C237.474 141.902 237.357 143.148 236.99 144.33C236.623 145.511 236.013 146.604 235.2 147.537L224.12 160.243L219.293 153.704L223.014 145.927L215.81 144.028L217.622 126.091Z" fill="#6C63FF"/>
<path d="M171.821 106.531L170.011 125.856L161.902 125.869C161.902 125.869 166.555 106.203 166.724 105.62C166.239 105.002 165.954 104.25 165.906 103.466C165.858 102.681 166.05 101.901 166.455 101.227C166.86 100.554 167.461 100.02 168.176 99.6947C168.892 99.3699 169.69 99.2699 170.464 99.4081C171.238 99.5463 171.951 99.9161 172.51 100.469C173.069 101.021 173.447 101.73 173.595 102.502C173.742 103.274 173.651 104.073 173.334 104.792C173.018 105.511 172.49 106.118 171.821 106.531Z" fill="#FFB6B6"/>
<path d="M187.962 146.05L169.299 142.628C161.44 141.683 158.215 136.514 159.633 131.471L164.196 115.244L171.361 119.084L171.333 127.704L181.361 126.334L187.962 146.05Z" fill="#6C63FF"/>
<path d="M180.322 279.602H175.191L172.75 259.813H180.324L180.322 279.602Z" fill="#FFB6B6"/>
<path d="M180.503 284.954L164.723 284.954V284.754C164.723 283.125 165.37 281.564 166.522 280.412C167.674 279.261 169.236 278.614 170.865 278.614L173.748 276.427L179.126 278.614L180.504 278.614L180.503 284.954Z" fill="#2F2E41"/>
<path d="M216.633 279.602H221.765L224.206 259.813H216.632L216.633 279.602Z" fill="#FFB6B6"/>
<path d="M216.452 284.954L232.233 284.954V284.754C232.233 283.125 231.586 281.564 230.434 280.412C229.282 279.261 227.72 278.614 226.091 278.614L223.208 276.427L217.83 278.614L216.452 278.614L216.452 284.954Z" fill="#2F2E41"/>
<path d="M172.524 245.271C172.6 244.142 173.202 237.898 173.202 237.898L174.646 224.655L177.19 189.55L179.457 180.323L190.682 184.694L199.789 180.329L210.615 183.789L219.044 186.949C219.044 186.949 219.059 188.302 219.124 189.936C219.21 192.075 219.362 194.698 219.723 195.38C220.325 196.585 220.174 203.053 220.174 203.053C220.174 203.053 220.773 216.213 221.527 217.656C222.281 219.099 222.433 222.104 222.205 222.706C221.978 223.309 222.96 239.113 222.96 239.113C222.96 239.113 225.479 267.081 223.898 271.299C222.318 275.516 216.345 272.753 216.345 272.753C216.345 272.753 216.634 271.628 214.902 271.097C213.17 270.567 207.894 230.91 207.894 230.91C207.894 230.91 206.913 222.779 206.011 220.448C205.108 218.118 204.278 211.57 204.278 211.57C204.278 211.57 198.707 200.733 198.635 198.323C198.635 198.323 197.906 196.069 197.217 198.551C196.527 201.033 194.496 206.978 194.496 206.978L192.515 214.279L190.184 225.188L188.675 234.373C188.675 234.373 186.416 246.563 186.056 247.09C185.695 247.616 186.056 258.753 186.056 258.753C186.056 258.753 184.309 268.237 181.841 269.893C179.373 271.548 172.833 269.919 172.833 269.919C172.833 269.919 172.448 246.4 172.524 245.271Z" fill="#2F2E41"/>
<path d="M180.915 150.632L179.48 169.207L177.326 171.437C177.131 171.638 176.98 171.876 176.88 172.137C176.78 172.398 176.733 172.677 176.743 172.956C176.754 173.235 176.82 173.51 176.939 173.763C177.057 174.016 177.226 174.242 177.434 174.429L176.247 176.464L175.827 182.877C175.707 183.376 175.699 183.895 175.803 184.398C175.907 184.9 176.121 185.374 176.429 185.784C176.737 186.194 177.132 186.532 177.586 186.772C178.04 187.012 178.541 187.149 179.053 187.173L216.212 188.918C216.722 188.942 217.23 188.854 217.702 188.66C218.175 188.465 218.598 188.17 218.943 187.794C219.289 187.418 219.547 186.971 219.701 186.484C219.854 185.998 219.899 185.483 219.832 184.977L216.672 161.197V159.419L215.257 155.985L215.984 144.482L217.675 126.223L207.846 123.685L202.516 120.019L193.256 120.166L187.638 124.779L180.147 125.952L174.481 127.078L173.76 128.646L175.203 128.332L180.435 148.732L180.915 150.632Z" fill="#6C63FF"/>
<path d="M197.679 117.53C203.703 117.53 208.587 112.648 208.587 106.625C208.587 100.603 203.703 95.7205 197.679 95.7205C191.655 95.7205 186.771 100.603 186.771 106.625C186.771 112.648 191.655 117.53 197.679 117.53Z" fill="#FFB6B6"/>
<path d="M195.049 116.826L202.93 116.424C203.94 116.373 205.042 116.284 205.776 115.589C206.172 115.16 206.475 114.655 206.67 114.105C207.398 112.414 208.127 110.722 208.837 109.022C209.819 106.671 210.783 104.188 210.533 101.653C210.474 100.495 209.988 99.3997 209.169 98.5788C208.751 98.1832 208.214 97.9372 207.641 97.8792C207.069 97.8212 206.493 97.9545 206.004 98.2582C205.883 97.4562 205.581 96.6923 205.12 96.0243C204.66 95.3563 204.054 94.8017 203.348 94.4023C201.922 93.6146 200.293 93.2695 198.67 93.4108C196.315 93.5626 194.066 94.4486 192.241 95.9442C191.727 96.4177 191.179 96.8521 190.601 97.2436C190.31 97.4381 189.982 97.5712 189.638 97.6349C189.294 97.6986 188.94 97.6914 188.599 97.6139C188.261 97.5235 187.967 97.3139 187.771 97.0237C187.576 96.7335 187.492 96.3824 187.535 96.0352C186.98 96.4501 186.6 97.0568 186.468 97.7369C186.336 98.4171 186.462 99.122 186.822 99.7141C186.413 99.8854 185.967 99.9481 185.526 99.896C185.086 99.8439 184.666 99.6788 184.308 99.4168C183.925 99.607 183.586 99.8751 183.312 100.204C183.038 100.533 182.836 100.915 182.719 101.327C182.602 101.738 182.571 102.169 182.63 102.593C182.69 103.017 182.837 103.424 183.062 103.787C183.287 104.151 183.586 104.464 183.939 104.705C184.293 104.947 184.692 105.112 185.113 105.19C185.534 105.268 185.966 105.257 186.383 105.159C186.799 105.06 187.19 104.876 187.531 104.617C188.01 105.287 187.831 106.197 187.769 107.018C187.707 107.838 187.927 108.858 188.718 109.085C189.788 109.392 190.654 107.952 191.767 107.967C192.042 107.989 192.306 108.079 192.538 108.228C192.769 108.377 192.96 108.581 193.094 108.822C193.356 109.305 193.536 109.829 193.625 110.372L195.049 116.782" fill="#2F2E41"/>
<path d="M502.329 214.876C502.329 213.188 501.762 211.817 501.066 211.814H311.207C310.507 211.817 309.943 213.188 309.94 214.876V284.387C309.94 284.544 309.882 284.695 309.777 284.811C309.671 284.927 309.526 285 309.37 285.015C308.861 285.064 308.351 285.11 307.842 285.152C307.829 285.152 307.816 285.155 307.804 285.155C307.526 285.18 307.249 285.199 306.972 285.221H306.969C306.826 284.957 306.685 284.691 306.546 284.423C306.499 284.333 306.474 284.232 306.474 284.13V210.904C306.474 210.437 306.493 209.968 306.524 209.505C306.569 208.869 306.648 208.236 306.761 207.608C307.293 204.682 308.497 202.7 309.865 202.694H502.405C502.605 202.695 502.802 202.737 502.985 202.817C503.254 202.936 503.497 203.106 503.7 203.318C503.977 203.605 504.213 203.928 504.403 204.278C505.187 205.842 505.639 207.55 505.73 209.297C505.73 209.316 505.733 209.335 505.733 209.354C505.777 209.864 505.799 210.384 505.796 210.904L505.84 217.655L505.868 221.681L505.953 234.314L505.985 238.8L506.123 284.859C506.123 285.026 506.057 285.186 505.939 285.304C505.821 285.422 505.66 285.489 505.493 285.489H502.96C502.793 285.489 502.632 285.422 502.514 285.304C502.396 285.186 502.329 285.026 502.329 284.859V214.876Z" fill="#E6E6E6"/>
<path d="M450.739 171.103H430.281C429.992 171.104 429.714 171.219 429.51 171.424C429.305 171.629 429.191 171.906 429.191 172.196V204.504H451.831V172.196C451.831 172.052 451.803 171.91 451.748 171.778C451.693 171.645 451.613 171.525 451.511 171.423C451.41 171.322 451.289 171.241 451.157 171.186C451.024 171.131 450.882 171.103 450.739 171.103ZM440.579 189.46C439.939 189.457 439.326 189.202 438.874 188.75C438.421 188.297 438.166 187.685 438.163 187.045V183.319C438.163 182.678 438.417 182.064 438.87 181.611C439.324 181.158 439.938 180.904 440.579 180.904C441.219 180.904 441.834 181.158 442.287 181.611C442.74 182.064 442.994 182.678 442.994 183.319V187.045C442.991 187.685 442.736 188.297 442.284 188.75C441.831 189.202 441.218 189.457 440.579 189.46Z" fill="#CCCCCC"/>
<path d="M429.121 203.47V206.588C429.121 206.749 429.186 206.904 429.3 207.018C429.414 207.132 429.569 207.197 429.73 207.197H451.292C451.453 207.196 451.608 207.132 451.722 207.018C451.836 206.903 451.901 206.749 451.901 206.588V203.47H429.121Z" fill="#3F3D56"/>
<path d="M484.615 120.683H397.166C396.415 120.684 395.695 120.983 395.164 121.514C394.632 122.045 394.333 122.765 394.332 123.516V182.511C394.333 183.262 394.632 183.982 395.163 184.513C395.694 185.045 396.415 185.343 397.166 185.344H484.615C485.366 185.343 486.087 185.045 486.618 184.513C487.149 183.982 487.448 183.262 487.449 182.511V123.516C487.448 122.765 487.149 122.045 486.617 121.514C486.086 120.983 485.366 120.684 484.615 120.683Z" fill="#E6E6E6"/>
<path d="M483.885 122.729H397.897C397.495 122.73 397.109 122.89 396.825 123.175C396.541 123.46 396.381 123.846 396.381 124.248V181.78C396.382 182.182 396.542 182.567 396.826 182.851C397.11 183.135 397.495 183.294 397.897 183.295H483.885C484.287 183.294 484.672 183.135 484.956 182.851C485.24 182.567 485.4 182.182 485.401 181.78V124.248C485.401 123.846 485.241 123.46 484.957 123.175C484.673 122.89 484.287 122.73 483.885 122.729Z" fill="white"/>
<path d="M467.136 208.282H415.978C415.838 208.282 415.699 208.25 415.573 208.19C415.447 208.13 415.335 208.042 415.247 207.934C415.159 207.825 415.096 207.698 415.063 207.562C415.03 207.426 415.028 207.284 415.057 207.147L415.851 203.378C415.896 203.167 416.012 202.978 416.179 202.842C416.347 202.706 416.556 202.632 416.771 202.631H466.342C466.558 202.632 466.767 202.706 466.934 202.842C467.102 202.978 467.218 203.167 467.263 203.378L468.057 207.147C468.085 207.284 468.083 207.426 468.05 207.562C468.018 207.698 467.955 207.825 467.866 207.934C467.778 208.042 467.667 208.13 467.54 208.19C467.414 208.25 467.276 208.282 467.136 208.282Z" fill="#CCCCCC"/>
<path d="M418.434 203.31H417.411C417.258 203.31 417.135 203.433 417.135 203.586V203.978C417.135 204.131 417.258 204.255 417.411 204.255H418.434C418.587 204.255 418.71 204.131 418.71 203.978V203.586C418.71 203.433 418.587 203.31 418.434 203.31Z" fill="#E6E6E6"/>
<path d="M421.585 203.31H420.562C420.41 203.31 420.286 203.433 420.286 203.586V203.978C420.286 204.131 420.41 204.255 420.562 204.255H421.585C421.738 204.255 421.861 204.131 421.861 203.978V203.586C421.861 203.433 421.738 203.31 421.585 203.31Z" fill="#E6E6E6"/>
<path d="M424.736 203.31H423.713C423.561 203.31 423.437 203.433 423.437 203.586V203.978C423.437 204.131 423.561 204.255 423.713 204.255H424.736C424.889 204.255 425.013 204.131 425.013 203.978V203.586C425.013 203.433 424.889 203.31 424.736 203.31Z" fill="#E6E6E6"/>
<path d="M427.888 203.31H426.865C426.712 203.31 426.588 203.433 426.588 203.586V203.978C426.588 204.131 426.712 204.255 426.865 204.255H427.888C428.04 204.255 428.164 204.131 428.164 203.978V203.586C428.164 203.433 428.04 203.31 427.888 203.31Z" fill="#E6E6E6"/>
<path d="M431.039 203.31H430.016C429.863 203.31 429.74 203.433 429.74 203.586V203.978C429.74 204.131 429.863 204.255 430.016 204.255H431.039C431.191 204.255 431.315 204.131 431.315 203.978V203.586C431.315 203.433 431.191 203.31 431.039 203.31Z" fill="#E6E6E6"/>
<path d="M434.19 203.31H433.167C433.015 203.31 432.891 203.433 432.891 203.586V203.978C432.891 204.131 433.015 204.255 433.167 204.255H434.19C434.343 204.255 434.466 204.131 434.466 203.978V203.586C434.466 203.433 434.343 203.31 434.19 203.31Z" fill="#E6E6E6"/>
<path d="M437.341 203.31H436.318C436.166 203.31 436.042 203.433 436.042 203.586V203.978C436.042 204.131 436.166 204.255 436.318 204.255H437.341C437.494 204.255 437.618 204.131 437.618 203.978V203.586C437.618 203.433 437.494 203.31 437.341 203.31Z" fill="#E6E6E6"/>
<path d="M440.493 203.31H439.47C439.317 203.31 439.193 203.433 439.193 203.586V203.978C439.193 204.131 439.317 204.255 439.47 204.255H440.493C440.645 204.255 440.769 204.131 440.769 203.978V203.586C440.769 203.433 440.645 203.31 440.493 203.31Z" fill="#E6E6E6"/>
<path d="M443.644 203.31H442.621C442.468 203.31 442.344 203.433 442.344 203.586V203.978C442.344 204.131 442.468 204.255 442.621 204.255H443.644C443.796 204.255 443.92 204.131 443.92 203.978V203.586C443.92 203.433 443.796 203.31 443.644 203.31Z" fill="#E6E6E6"/>
<path d="M446.795 203.31H445.772C445.62 203.31 445.496 203.433 445.496 203.586V203.978C445.496 204.131 445.62 204.255 445.772 204.255H446.795C446.948 204.255 447.071 204.131 447.071 203.978V203.586C447.071 203.433 446.948 203.31 446.795 203.31Z" fill="#E6E6E6"/>
<path d="M449.946 203.31H448.923C448.771 203.31 448.647 203.433 448.647 203.586V203.978C448.647 204.131 448.771 204.255 448.923 204.255H449.946C450.099 204.255 450.223 204.131 450.223 203.978V203.586C450.223 203.433 450.099 203.31 449.946 203.31Z" fill="#E6E6E6"/>
<path d="M453.098 203.31H452.075C451.922 203.31 451.798 203.433 451.798 203.586V203.978C451.798 204.131 451.922 204.255 452.075 204.255H453.098C453.25 204.255 453.374 204.131 453.374 203.978V203.586C453.374 203.433 453.25 203.31 453.098 203.31Z" fill="#E6E6E6"/>
<path d="M456.249 203.31H455.226C455.073 203.31 454.949 203.433 454.949 203.586V203.978C454.949 204.131 455.073 204.255 455.226 204.255H456.249C456.401 204.255 456.525 204.131 456.525 203.978V203.586C456.525 203.433 456.401 203.31 456.249 203.31Z" fill="#E6E6E6"/>
<path d="M459.4 203.31H458.377C458.224 203.31 458.101 203.433 458.101 203.586V203.978C458.101 204.131 458.224 204.255 458.377 204.255H459.4C459.552 204.255 459.676 204.131 459.676 203.978V203.586C459.676 203.433 459.552 203.31 459.4 203.31Z" fill="#E6E6E6"/>
<path d="M462.551 203.31H461.528C461.376 203.31 461.252 203.433 461.252 203.586V203.978C461.252 204.131 461.376 204.255 461.528 204.255H462.551C462.704 204.255 462.828 204.131 462.828 203.978V203.586C462.828 203.433 462.704 203.31 462.551 203.31Z" fill="#E6E6E6"/>
<path d="M465.702 203.31H464.679C464.527 203.31 464.403 203.433 464.403 203.586V203.978C464.403 204.131 464.527 204.255 464.679 204.255H465.702C465.855 204.255 465.979 204.131 465.979 203.978V203.586C465.979 203.433 465.855 203.31 465.702 203.31Z" fill="#E6E6E6"/>
<path d="M418.397 204.885H417.374C417.221 204.885 417.097 205.008 417.097 205.161V205.554C417.097 205.706 417.221 205.83 417.374 205.83H418.397C418.549 205.83 418.673 205.706 418.673 205.554V205.161C418.673 205.008 418.549 204.885 418.397 204.885Z" fill="#E6E6E6"/>
<path d="M421.548 204.885H420.525C420.372 204.885 420.249 205.008 420.249 205.161V205.554C420.249 205.706 420.372 205.83 420.525 205.83H421.548C421.7 205.83 421.824 205.706 421.824 205.554V205.161C421.824 205.008 421.7 204.885 421.548 204.885Z" fill="#E6E6E6"/>
<path d="M424.699 204.885H423.676C423.524 204.885 423.4 205.008 423.4 205.161V205.554C423.4 205.706 423.524 205.83 423.676 205.83H424.699C424.852 205.83 424.976 205.706 424.976 205.554V205.161C424.976 205.008 424.852 204.885 424.699 204.885Z" fill="#E6E6E6"/>
<path d="M427.85 204.885H426.827C426.675 204.885 426.551 205.008 426.551 205.161V205.554C426.551 205.706 426.675 205.83 426.827 205.83H427.85C428.003 205.83 428.127 205.706 428.127 205.554V205.161C428.127 205.008 428.003 204.885 427.85 204.885Z" fill="#E6E6E6"/>
<path d="M431.002 204.885H429.979C429.826 204.885 429.702 205.008 429.702 205.161V205.554C429.702 205.706 429.826 205.83 429.979 205.83H431.002C431.154 205.83 431.278 205.706 431.278 205.554V205.161C431.278 205.008 431.154 204.885 431.002 204.885Z" fill="#E6E6E6"/>
<path d="M434.153 204.885H433.13C432.977 204.885 432.854 205.008 432.854 205.161V205.554C432.854 205.706 432.977 205.83 433.13 205.83H434.153C434.305 205.83 434.429 205.706 434.429 205.554V205.161C434.429 205.008 434.305 204.885 434.153 204.885Z" fill="#E6E6E6"/>
<path d="M437.304 204.885H436.281C436.129 204.885 436.005 205.008 436.005 205.161V205.554C436.005 205.706 436.129 205.83 436.281 205.83H437.304C437.457 205.83 437.581 205.706 437.581 205.554V205.161C437.581 205.008 437.457 204.885 437.304 204.885Z" fill="#E6E6E6"/>
<path d="M440.455 204.885H439.432C439.28 204.885 439.156 205.008 439.156 205.161V205.554C439.156 205.706 439.28 205.83 439.432 205.83H440.455C440.608 205.83 440.732 205.706 440.732 205.554V205.161C440.732 205.008 440.608 204.885 440.455 204.885Z" fill="#E6E6E6"/>
<path d="M443.607 204.885H442.584C442.431 204.885 442.307 205.008 442.307 205.161V205.554C442.307 205.706 442.431 205.83 442.584 205.83H443.607C443.759 205.83 443.883 205.706 443.883 205.554V205.161C443.883 205.008 443.759 204.885 443.607 204.885Z" fill="#E6E6E6"/>
<path d="M446.758 204.885H445.735C445.582 204.885 445.458 205.008 445.458 205.161V205.554C445.458 205.706 445.582 205.83 445.735 205.83H446.758C446.91 205.83 447.034 205.706 447.034 205.554V205.161C447.034 205.008 446.91 204.885 446.758 204.885Z" fill="#E6E6E6"/>
<path d="M449.909 204.885H448.886C448.734 204.885 448.61 205.008 448.61 205.161V205.554C448.61 205.706 448.734 205.83 448.886 205.83H449.909C450.062 205.83 450.185 205.706 450.185 205.554V205.161C450.185 205.008 450.062 204.885 449.909 204.885Z" fill="#E6E6E6"/>
<path d="M453.06 204.885H452.037C451.885 204.885 451.761 205.008 451.761 205.161V205.554C451.761 205.706 451.885 205.83 452.037 205.83H453.06C453.213 205.83 453.337 205.706 453.337 205.554V205.161C453.337 205.008 453.213 204.885 453.06 204.885Z" fill="#E6E6E6"/>
<path d="M456.212 204.885H455.189C455.036 204.885 454.912 205.008 454.912 205.161V205.554C454.912 205.706 455.036 205.83 455.189 205.83H456.212C456.364 205.83 456.488 205.706 456.488 205.554V205.161C456.488 205.008 456.364 204.885 456.212 204.885Z" fill="#E6E6E6"/>
<path d="M459.363 204.885H458.34C458.187 204.885 458.063 205.008 458.063 205.161V205.554C458.063 205.706 458.187 205.83 458.34 205.83H459.363C459.515 205.83 459.639 205.706 459.639 205.554V205.161C459.639 205.008 459.515 204.885 459.363 204.885Z" fill="#E6E6E6"/>
<path d="M462.514 204.885H461.491C461.339 204.885 461.215 205.008 461.215 205.161V205.554C461.215 205.706 461.339 205.83 461.491 205.83H462.514C462.667 205.83 462.79 205.706 462.79 205.554V205.161C462.79 205.008 462.667 204.885 462.514 204.885Z" fill="#E6E6E6"/>
<path d="M465.665 204.885H464.642C464.49 204.885 464.366 205.008 464.366 205.161V205.554C464.366 205.706 464.49 205.83 464.642 205.83H465.665C465.818 205.83 465.942 205.706 465.942 205.554V205.161C465.942 205.008 465.818 204.885 465.665 204.885Z" fill="#E6E6E6"/>
<path d="M444.552 206.775H432.5C432.347 206.775 432.223 206.899 432.223 207.051V207.444C432.223 207.596 432.347 207.72 432.5 207.72H444.552C444.705 207.72 444.828 207.596 444.828 207.444V207.051C444.828 206.899 444.705 206.775 444.552 206.775Z" fill="#E6E6E6"/>
<path d="M479.562 130.656H399.104C399.02 130.654 398.941 130.619 398.882 130.56C398.824 130.5 398.791 130.42 398.791 130.336C398.791 130.252 398.824 130.172 398.882 130.112C398.941 130.052 399.02 130.018 399.104 130.016H479.562C479.646 130.018 479.726 130.052 479.784 130.112C479.842 130.172 479.875 130.252 479.875 130.336C479.875 130.42 479.842 130.5 479.784 130.56C479.726 130.619 479.646 130.654 479.562 130.656Z" fill="#CACACA"/>
<path d="M404.581 128.383C405.616 128.383 406.456 127.525 406.456 126.467C406.456 125.408 405.616 124.55 404.581 124.55C403.545 124.55 402.706 125.408 402.706 126.467C402.706 127.525 403.545 128.383 404.581 128.383Z" fill="#CCCCCC"/>
<path d="M411.058 128.383C412.094 128.383 412.934 127.525 412.934 126.467C412.934 125.408 412.094 124.55 411.058 124.55C410.023 124.55 409.183 125.408 409.183 126.467C409.183 127.525 410.023 128.383 411.058 128.383Z" fill="#CCCCCC"/>
<path d="M417.536 128.383C418.572 128.383 419.411 127.525 419.411 126.467C419.411 125.408 418.572 124.55 417.536 124.55C416.501 124.55 415.661 125.408 415.661 126.467C415.661 127.525 416.501 128.383 417.536 128.383Z" fill="#CCCCCC"/>
<path d="M475.662 125.025H471.061C470.969 125.027 470.883 125.064 470.819 125.13C470.755 125.195 470.719 125.282 470.719 125.373C470.719 125.465 470.755 125.552 470.819 125.617C470.883 125.682 470.969 125.72 471.061 125.722H475.662C475.753 125.72 475.84 125.682 475.904 125.617C475.968 125.552 476.004 125.465 476.004 125.373C476.004 125.282 475.968 125.195 475.904 125.13C475.84 125.064 475.753 125.027 475.662 125.025Z" fill="#CCCCCC"/>
<path d="M475.662 126.333H471.061C470.969 126.335 470.883 126.372 470.819 126.437C470.755 126.502 470.719 126.59 470.719 126.681C470.719 126.772 470.755 126.86 470.819 126.925C470.883 126.99 470.969 127.028 471.061 127.029H475.662C475.753 127.028 475.84 126.99 475.904 126.925C475.968 126.86 476.004 126.772 476.004 126.681C476.004 126.59 475.968 126.502 475.904 126.437C475.84 126.372 475.753 126.335 475.662 126.333Z" fill="#CCCCCC"/>
<path d="M475.662 127.638H471.061C470.969 127.64 470.883 127.678 470.819 127.743C470.755 127.808 470.719 127.896 470.719 127.987C470.719 128.078 470.755 128.166 470.819 128.231C470.883 128.296 470.969 128.333 471.061 128.335H475.662C475.753 128.333 475.84 128.296 475.904 128.231C475.968 128.166 476.004 128.078 476.004 127.987C476.004 127.896 475.968 127.808 475.904 127.743C475.84 127.678 475.753 127.64 475.662 127.638Z" fill="#CCCCCC"/>
<path d="M445.829 148.083H435.776C435.02 148.083 434.408 148.695 434.408 149.45C434.408 150.205 435.02 150.817 435.776 150.817H445.829C446.584 150.817 447.197 150.205 447.197 149.45C447.197 148.695 446.584 148.083 445.829 148.083Z" fill="#6C63FF"/>
<path d="M452.324 153.551H429.281C428.526 153.551 427.914 154.163 427.914 154.918C427.914 155.673 428.526 156.285 429.281 156.285H452.324C453.079 156.285 453.691 155.673 453.691 154.918C453.691 154.163 453.079 153.551 452.324 153.551Z" fill="#E6E6E6"/>
<path d="M452.324 159.019H429.281C428.526 159.019 427.914 159.631 427.914 160.385C427.914 161.14 428.526 161.752 429.281 161.752H452.324C453.079 161.752 453.691 161.14 453.691 160.385C453.691 159.631 453.079 159.019 452.324 159.019Z" fill="#E6E6E6"/>
<path d="M297.079 244.201L292.444 241.985L298.811 222.618L305.651 225.888L297.079 244.201Z" fill="#FFB6B6"/>
<path d="M328.151 241.079C327.814 241.29 327.477 241.497 327.137 241.705C326.459 242.12 325.775 242.529 325.091 242.93C324.747 243.131 324.399 243.332 324.056 243.529V243.539L324.035 243.543L324.028 243.546L323.504 243.676L322.752 241.688L322.404 240.772L321.914 239.476L321.015 237.103L316.283 224.613L323.64 222.799L323.916 223.925H323.919L324.056 224.484L326.626 234.905L327.15 237.035L327.167 237.1L327.484 238.373L327.756 239.476L328.059 240.708L328.151 241.079Z" fill="#FFB6B6"/>
<path d="M372.037 197.214C371.571 197.963 371.094 198.709 370.614 199.447C369.722 200.822 368.807 202.177 367.867 203.511C367.867 203.514 367.864 203.514 367.86 203.518C367.312 204.025 366.707 204.467 366.056 204.835C366.029 204.855 365.998 204.869 365.971 204.886C365.492 205.151 364.982 205.355 364.452 205.495C364.262 205.543 364.068 205.59 363.877 205.638C363.189 205.801 362.509 205.941 361.831 206.063C360.626 206.278 359.434 206.431 358.25 206.526C358.154 206.536 358.059 206.543 357.964 206.55C353.092 206.907 348.35 206.332 343.4 205.389C340.955 204.927 338.46 204.372 335.876 203.797C335.032 203.606 334.184 203.419 333.326 203.232C333.262 203.218 333.194 203.201 333.125 203.187C331.9 202.919 330.654 202.653 329.377 202.391C327.77 202.061 326.112 201.741 324.39 201.438L324.512 203.865C324.614 205.731 325.002 207.571 325.663 209.32C326.398 211.471 326.981 213.173 325.752 216.716L325.159 218.431C325.466 219.283 325.572 220.195 325.467 221.094C325.363 221.993 325.051 222.856 324.557 223.615L324.438 223.795L329.377 236.289L329.697 237.099H327.168L324.056 237.103H318.783L311.174 221.842L310.81 221.113V221.076L311.596 191.748C311.606 191.49 311.627 191.228 311.661 190.969C311.8 189.793 312.171 188.657 312.754 187.626C313.337 186.595 314.119 185.691 315.055 184.965C315.952 184.265 316.98 183.749 318.078 183.449C319.176 183.148 320.323 183.069 321.452 183.216L324.056 183.553L329.377 184.241L333.125 184.727L333.2 184.737L344.254 186.167L345.048 182.934L345.194 182.879L349.848 181.174L365.944 175.276L365.984 175.262L367.043 174.874L367.169 175.078C367.207 175.14 367.244 175.201 367.278 175.262C368.324 177.138 369.177 179.115 369.821 181.164C370.905 184.51 371.797 187.916 372.494 191.364C372.524 191.514 372.551 191.65 372.575 191.772L372.585 191.81C372.596 191.868 372.602 191.905 372.606 191.915C372.925 193.7 372.728 195.538 372.037 197.214Z" fill="#2F2E41"/>
<path d="M372.717 186.406C372.666 186.189 372.601 185.967 372.533 185.753C371.992 184.129 371.363 182.536 370.647 180.981C369.843 179.212 368.88 177.316 367.733 175.264C367.178 174.27 366.581 173.236 365.942 172.163C365.622 171.625 365.289 171.077 364.945 170.519C364.931 170.494 364.916 170.469 364.9 170.444L364.802 170.281L348.876 172.412L342.945 173.205L342.591 176.159L342.506 176.89C342.503 176.89 342.503 176.89 342.506 176.894L342.268 178.888V178.892L341.951 181.526L341.924 181.523L333.124 180.382L324.055 179.208L319.183 178.579C318.054 178.432 316.907 178.51 315.809 178.811C314.711 179.111 313.683 179.627 312.786 180.328C311.85 181.053 311.068 181.958 310.485 182.989C309.903 184.019 309.531 185.156 309.392 186.332C309.361 186.57 309.341 186.815 309.331 187.057L304.735 197.944C301.985 204.456 300.233 211.344 299.54 218.378L296.169 229.15L296.649 229.194L303.792 229.858L305.678 230.035L309.831 223.974C310.304 223.283 310.754 222.571 311.172 221.843C311.862 220.654 312.475 219.421 313.007 218.154L321.992 196.78C322.686 196.899 323.374 197.013 324.055 197.121C327.204 197.631 330.227 198.047 333.124 198.37C342.544 199.421 350.701 199.503 357.962 198.611C360.001 198.363 361.972 198.036 363.876 197.631C364.573 197.485 365.262 197.327 365.942 197.158C366.102 197.121 366.259 197.083 366.415 197.042C367.822 196.68 369.116 195.97 370.177 194.978C371.239 193.986 372.035 192.744 372.492 191.365C373.038 189.768 373.116 188.047 372.717 186.406Z" fill="#2F2E41"/>
<path d="M298.559 241.038L293.545 238.636L292.758 238.258L291.502 241.341L282.732 243.271C282.299 243.366 281.907 243.597 281.614 243.931C281.321 244.264 281.143 244.683 281.105 245.125C281.067 245.567 281.171 246.01 281.403 246.388C281.634 246.767 281.981 247.062 282.392 247.229L290.961 250.725L293.681 248.278L293.014 251.562L296.241 252.879L299.778 241.624L298.559 241.038Z" fill="#2F2E41"/>
<path d="M329.377 236.29L329.697 237.1H329.377V236.29Z" fill="#2F2E41"/>
<path d="M327.631 237.272L322.376 239.092L321.552 239.377L322.829 242.452L317.956 249.992C317.715 250.364 317.599 250.804 317.626 251.247C317.652 251.69 317.82 252.113 318.104 252.454C318.388 252.795 318.774 253.036 319.205 253.142C319.636 253.249 320.09 253.214 320.5 253.044L329.049 249.5L329.259 245.848L331.097 248.651L334.317 247.317L328.909 236.831L327.631 237.272Z" fill="#2F2E41"/>
<path d="M295.739 124.662C295.988 125.147 296.341 125.572 296.772 125.906C297.203 126.241 297.702 126.476 298.234 126.597C298.766 126.718 299.318 126.72 299.852 126.604C300.385 126.489 300.886 126.257 301.32 125.927L312.369 133.26L312.39 126.37L301.895 120.463C301.291 119.771 300.454 119.324 299.543 119.207C298.632 119.09 297.71 119.312 296.951 119.829C296.192 120.347 295.65 121.125 295.427 122.015C295.203 122.906 295.314 123.848 295.739 124.662Z" fill="#FFB6B6"/>
<path d="M303.994 127.846L309.149 121.983L330.139 134.441L357.963 131.893C359.338 131.768 360.724 131.946 362.023 132.416C363.322 132.886 364.501 133.636 365.477 134.613C366.453 135.589 367.202 136.769 367.671 138.068C368.14 139.367 368.317 140.753 368.19 142.127C367.957 144.61 366.749 146.9 364.83 148.493C362.911 150.086 360.438 150.854 357.954 150.627L326.617 147.727L303.994 127.846Z" fill="#CCCCCC"/>
<path d="M368.573 127.937L368.525 127.876C364.611 127.49 360.669 128.248 357.176 130.057C353.684 131.866 350.792 134.649 348.85 138.068L346.489 142.227C338.85 151.562 344.401 158 344.733 158.957L342.082 171.178L342.676 175.268L342.973 176.483L373.236 192.292C374.959 184.015 373.293 176.963 367.016 171.575L373.09 152.683C374.436 148.506 374.728 144.061 373.941 139.743C373.153 135.425 371.309 131.37 368.573 127.937Z" fill="#CCCCCC"/>
<path d="M344.51 219.719H334.803C334.269 219.718 333.753 219.525 333.35 219.175C332.947 218.825 332.684 218.341 332.609 217.813C332.009 213.403 332.009 208.933 332.609 204.523C332.683 204.001 332.941 203.522 333.336 203.173C333.731 202.824 334.238 202.627 334.766 202.618C337.82 201.249 341.109 201.249 344.544 202.618C344.864 202.622 345.179 202.696 345.467 202.835C345.755 202.974 346.009 203.174 346.212 203.422C346.423 203.679 346.574 203.981 346.654 204.304C346.734 204.627 346.741 204.964 346.674 205.291C345.895 209.17 345.895 213.166 346.674 217.045C346.741 217.372 346.734 217.709 346.654 218.032C346.574 218.355 346.423 218.657 346.212 218.914C346.006 219.166 345.746 219.369 345.452 219.508C345.157 219.647 344.836 219.719 344.51 219.719Z" fill="#6C63FF"/>
<path d="M343.493 207.684H335.323C335.256 207.685 335.189 207.672 335.126 207.647C335.064 207.621 335.007 207.584 334.959 207.536C334.911 207.489 334.873 207.433 334.847 207.37C334.821 207.308 334.808 207.241 334.808 207.174C334.808 207.106 334.821 207.04 334.847 206.977C334.873 206.915 334.911 206.859 334.959 206.811C335.007 206.764 335.064 206.726 335.126 206.701C335.189 206.676 335.256 206.663 335.323 206.663H343.493C343.561 206.663 343.628 206.676 343.69 206.701C343.753 206.726 343.81 206.764 343.858 206.811C343.905 206.859 343.943 206.915 343.969 206.977C343.995 207.04 344.009 207.106 344.009 207.174C344.009 207.241 343.995 207.308 343.969 207.37C343.943 207.433 343.905 207.489 343.858 207.536C343.81 207.584 343.753 207.621 343.69 207.647C343.628 207.672 343.561 207.685 343.493 207.684Z" fill="white"/>
<path d="M343.493 211.769H335.323C335.256 211.769 335.189 211.756 335.126 211.731C335.064 211.706 335.007 211.668 334.959 211.621C334.911 211.573 334.873 211.517 334.847 211.454C334.821 211.392 334.808 211.325 334.808 211.258C334.808 211.191 334.821 211.124 334.847 211.062C334.873 210.999 334.911 210.943 334.959 210.896C335.007 210.848 335.064 210.811 335.126 210.785C335.189 210.76 335.256 210.747 335.323 210.748H343.493C343.561 210.747 343.628 210.76 343.69 210.785C343.753 210.811 343.81 210.848 343.858 210.896C343.905 210.943 343.943 210.999 343.969 211.062C343.995 211.124 344.009 211.191 344.009 211.258C344.009 211.325 343.995 211.392 343.969 211.454C343.943 211.517 343.905 211.573 343.858 211.621C343.81 211.668 343.753 211.706 343.69 211.731C343.628 211.756 343.561 211.769 343.493 211.769Z" fill="white"/>
<path d="M343.494 215.853H335.323C335.256 215.853 335.189 215.841 335.126 215.815C335.064 215.79 335.007 215.752 334.959 215.705C334.911 215.657 334.873 215.601 334.847 215.539C334.821 215.476 334.808 215.41 334.808 215.342C334.808 215.275 334.821 215.208 334.847 215.146C334.873 215.083 334.911 215.027 334.959 214.979C335.007 214.932 335.064 214.894 335.126 214.869C335.189 214.844 335.256 214.831 335.323 214.832H343.494C343.561 214.831 343.628 214.844 343.69 214.869C343.753 214.894 343.81 214.932 343.858 214.979C343.906 215.027 343.944 215.083 343.97 215.146C343.996 215.208 344.009 215.275 344.009 215.342C344.009 215.41 343.996 215.476 343.97 215.539C343.944 215.601 343.906 215.657 343.858 215.705C343.81 215.752 343.753 215.79 343.69 215.815C343.628 215.841 343.561 215.853 343.494 215.853Z" fill="white"/>
<path d="M297.519 128.026H287.812C287.278 128.025 286.762 127.832 286.359 127.482C285.956 127.132 285.692 126.648 285.618 126.12C285.018 121.71 285.018 117.24 285.618 112.83C285.692 112.308 285.949 111.83 286.345 111.48C286.74 111.131 287.247 110.934 287.774 110.925C290.829 109.556 294.118 109.556 297.552 110.925C297.872 110.929 298.187 111.003 298.476 111.142C298.764 111.281 299.018 111.481 299.22 111.729C299.431 111.986 299.583 112.288 299.663 112.611C299.743 112.934 299.75 113.271 299.683 113.598C298.903 117.477 298.903 121.473 299.683 125.353C299.75 125.679 299.743 126.016 299.663 126.339C299.583 126.662 299.431 126.964 299.22 127.221C299.014 127.473 298.755 127.676 298.46 127.815C298.166 127.955 297.845 128.026 297.519 128.026Z" fill="#6C63FF"/>
<path d="M296.502 115.992H288.332C288.264 115.992 288.197 115.979 288.135 115.954C288.073 115.929 288.016 115.891 287.968 115.844C287.92 115.796 287.882 115.74 287.856 115.677C287.83 115.615 287.817 115.548 287.817 115.481C287.817 115.414 287.83 115.347 287.856 115.285C287.882 115.222 287.92 115.166 287.968 115.118C288.016 115.071 288.073 115.033 288.135 115.008C288.197 114.983 288.264 114.97 288.332 114.97H296.502C296.57 114.97 296.637 114.983 296.699 115.008C296.762 115.033 296.818 115.071 296.866 115.118C296.914 115.166 296.952 115.222 296.978 115.285C297.004 115.347 297.017 115.414 297.017 115.481C297.017 115.548 297.004 115.615 296.978 115.677C296.952 115.74 296.914 115.796 296.866 115.844C296.818 115.891 296.762 115.929 296.699 115.954C296.637 115.979 296.57 115.992 296.502 115.992Z" fill="white"/>
<path d="M296.502 120.076H288.332C288.264 120.076 288.197 120.064 288.135 120.038C288.073 120.013 288.016 119.975 287.968 119.928C287.92 119.88 287.882 119.824 287.856 119.762C287.83 119.699 287.817 119.633 287.817 119.565C287.817 119.498 287.83 119.431 287.856 119.369C287.882 119.307 287.92 119.25 287.968 119.203C288.016 119.155 288.073 119.118 288.135 119.092C288.197 119.067 288.264 119.054 288.332 119.055H296.502C296.57 119.054 296.637 119.067 296.699 119.092C296.762 119.118 296.818 119.155 296.866 119.203C296.914 119.25 296.952 119.307 296.978 119.369C297.004 119.431 297.017 119.498 297.017 119.565C297.017 119.633 297.004 119.699 296.978 119.762C296.952 119.824 296.914 119.88 296.866 119.928C296.818 119.975 296.762 120.013 296.699 120.038C296.637 120.064 296.57 120.076 296.502 120.076Z" fill="white"/>
<path d="M296.502 124.16H288.332C288.264 124.16 288.197 124.148 288.135 124.122C288.072 124.097 288.016 124.059 287.968 124.012C287.92 123.964 287.882 123.908 287.856 123.846C287.83 123.783 287.816 123.717 287.816 123.649C287.816 123.582 287.83 123.515 287.856 123.453C287.882 123.39 287.92 123.334 287.968 123.287C288.016 123.239 288.072 123.202 288.135 123.176C288.197 123.151 288.264 123.138 288.332 123.139H296.502C296.57 123.138 296.637 123.151 296.699 123.176C296.762 123.202 296.819 123.239 296.867 123.287C296.914 123.334 296.953 123.39 296.979 123.453C297.004 123.515 297.018 123.582 297.018 123.649C297.018 123.717 297.004 123.783 296.979 123.846C296.953 123.908 296.914 123.964 296.867 124.012C296.819 124.059 296.762 124.097 296.699 124.122C296.637 124.148 296.57 124.16 296.502 124.16Z" fill="white"/>
<path d="M127.105 152.93H117.398C116.864 152.93 116.348 152.737 115.945 152.387C115.542 152.036 115.278 151.553 115.203 151.024C114.604 146.615 114.604 142.144 115.203 137.735C115.278 137.213 115.535 136.734 115.931 136.385C116.326 136.035 116.833 135.838 117.36 135.829C120.415 134.461 123.704 134.461 127.138 135.829C127.458 135.833 127.773 135.907 128.061 136.046C128.35 136.185 128.604 136.386 128.806 136.633C129.017 136.891 129.168 137.192 129.249 137.515C129.329 137.839 129.336 138.176 129.269 138.502C128.489 142.381 128.489 146.377 129.269 150.257C129.336 150.583 129.329 150.92 129.249 151.243C129.168 151.567 129.017 151.868 128.806 152.126C128.6 152.378 128.341 152.581 128.046 152.72C127.752 152.859 127.43 152.931 127.105 152.93Z" fill="#6C63FF"/>
<path d="M126.088 140.896H117.918C117.85 140.896 117.783 140.884 117.721 140.858C117.658 140.833 117.602 140.795 117.554 140.748C117.506 140.7 117.468 140.644 117.442 140.582C117.416 140.519 117.403 140.453 117.403 140.385C117.403 140.318 117.416 140.251 117.442 140.189C117.468 140.127 117.506 140.07 117.554 140.023C117.602 139.975 117.658 139.938 117.721 139.912C117.783 139.887 117.85 139.874 117.918 139.875H126.088C126.156 139.874 126.223 139.887 126.285 139.912C126.348 139.938 126.404 139.975 126.452 140.023C126.5 140.07 126.538 140.127 126.564 140.189C126.59 140.251 126.603 140.318 126.603 140.385C126.603 140.453 126.59 140.519 126.564 140.582C126.538 140.644 126.5 140.7 126.452 140.748C126.404 140.795 126.348 140.833 126.285 140.858C126.223 140.884 126.156 140.896 126.088 140.896Z" fill="white"/>
<path d="M126.088 144.98H117.918C117.85 144.98 117.783 144.968 117.721 144.942C117.658 144.917 117.602 144.879 117.554 144.832C117.506 144.784 117.468 144.728 117.442 144.666C117.416 144.603 117.403 144.537 117.403 144.469C117.403 144.402 117.416 144.335 117.442 144.273C117.468 144.211 117.506 144.154 117.554 144.107C117.602 144.059 117.658 144.022 117.721 143.996C117.783 143.971 117.85 143.958 117.918 143.959H126.088C126.156 143.958 126.223 143.971 126.285 143.996C126.348 144.022 126.404 144.059 126.452 144.107C126.5 144.154 126.538 144.211 126.564 144.273C126.59 144.335 126.603 144.402 126.603 144.469C126.603 144.537 126.59 144.603 126.564 144.666C126.538 144.728 126.5 144.784 126.452 144.832C126.404 144.879 126.348 144.917 126.285 144.942C126.223 144.968 126.156 144.98 126.088 144.98Z" fill="white"/>
<path d="M126.088 149.064H117.918C117.85 149.065 117.783 149.052 117.721 149.027C117.658 149.001 117.602 148.964 117.554 148.916C117.506 148.869 117.468 148.812 117.442 148.75C117.416 148.688 117.402 148.621 117.402 148.554C117.402 148.486 117.416 148.419 117.442 148.357C117.468 148.295 117.506 148.238 117.554 148.191C117.602 148.143 117.658 148.106 117.721 148.08C117.783 148.055 117.85 148.042 117.918 148.043H126.088C126.156 148.042 126.223 148.055 126.285 148.08C126.348 148.106 126.405 148.143 126.453 148.191C126.5 148.238 126.538 148.295 126.564 148.357C126.59 148.419 126.604 148.486 126.604 148.554C126.604 148.621 126.59 148.688 126.564 148.75C126.538 148.812 126.5 148.869 126.453 148.916C126.405 148.964 126.348 149.001 126.285 149.027C126.223 149.052 126.156 149.065 126.088 149.064Z" fill="white"/>
<path d="M347.354 207.313C347.824 207.035 348.227 206.658 348.536 206.208C348.844 205.758 349.05 205.246 349.138 204.708C349.227 204.17 349.197 203.619 349.05 203.094C348.903 202.568 348.642 202.082 348.286 201.668L354.953 190.207L348.072 190.594L342.796 201.419C342.141 202.063 341.744 202.924 341.682 203.84C341.619 204.756 341.895 205.664 342.457 206.39C343.019 207.116 343.828 207.612 344.73 207.782C345.633 207.952 346.567 207.785 347.354 207.313Z" fill="#FFB6B6"/>
<path d="M350.044 198.886L343.884 194.09L355.078 172.403L350.884 144.787C350.676 143.422 350.772 142.028 351.164 140.704C351.557 139.38 352.235 138.159 353.153 137.126C354.07 136.094 355.204 135.277 356.473 134.732C357.742 134.187 359.115 133.928 360.496 133.974C362.989 134.058 365.346 135.129 367.051 136.949C368.756 138.77 369.669 141.192 369.589 143.685L368.553 175.13L350.044 198.886Z" fill="#CCCCCC"/>
<path d="M52.3049 192.961C52.6929 192.571 52.9906 192.101 53.1772 191.584C53.3638 191.066 53.4346 190.514 53.3847 189.967C53.3348 189.419 53.1654 188.889 52.8884 188.414C52.6115 187.939 52.2336 187.53 51.7816 187.217L57.7727 157.467L51.1566 159.591L46.361 188.366C45.8848 189.16 45.7165 190.101 45.8879 191.011C46.0594 191.921 46.5588 192.736 47.2914 193.303C48.0241 193.869 48.9391 194.147 49.8631 194.084C50.7871 194.021 51.6559 193.622 52.3049 192.961Z" fill="#9E616A"/>
<path d="M61.1511 130.019L57.0462 126.922C57.0462 126.922 53.4249 126.665 52.7836 133.194C52.1422 139.722 50.8253 152.446 50.8253 152.446L44.5439 181.531L53.2391 183.439L59.9669 152.051L64.003 142.73L61.1511 130.019Z" fill="#CCCCCC"/>
<path d="M54.3835 177.512L77.5151 177.127L79.4429 161.324H54.3835V177.512Z" fill="#9E616A"/>
<path d="M75.2018 274.754H80.5418L83.0822 254.162L75.2007 254.163L75.2018 274.754Z" fill="#9E616A"/>
<path d="M41.7476 275.249L47.0876 275.211L49.4836 254.602L42.5385 256.195L41.7476 275.249Z" fill="#9E616A"/>
<path d="M58.4491 147.716L57.2393 150.861L57.481 154.006L81.1618 162.206L79.987 148.442L77.3249 145.296L58.4491 147.716Z" fill="#FFB6B6"/>
<path d="M68.6085 119.413C73.2796 119.413 77.0663 115.628 77.0663 110.958C77.0663 106.288 73.2796 102.502 68.6085 102.502C63.9373 102.502 60.1506 106.288 60.1506 110.958C60.1506 115.628 63.9373 119.413 68.6085 119.413Z" fill="#9E616A"/>
<path d="M73.8774 272.121L82.3189 271.617V275.233L90.3445 280.774C90.7409 281.048 91.0395 281.441 91.1966 281.896C91.3537 282.351 91.3611 282.845 91.2177 283.305C91.0743 283.764 90.7877 284.166 90.3997 284.452C90.0117 284.737 89.5425 284.891 89.0608 284.891H79.0109L77.2786 281.314L76.6022 284.891H72.813L73.8774 272.121Z" fill="#2F2E41"/>
<path d="M39.9208 272.628L48.3586 272.065L48.3839 275.681L56.4481 281.166C56.8464 281.436 57.1477 281.827 57.308 282.282C57.4682 282.736 57.4791 283.229 57.339 283.69C57.1988 284.151 56.915 284.555 56.529 284.843C56.143 285.131 55.6749 285.288 55.1932 285.291L45.1435 285.362L43.3862 281.798L42.7349 285.379L38.9458 285.405L39.9208 272.628Z" fill="#2F2E41"/>
<path d="M40.0859 259.46L43.9743 228.388L48.6006 195.627C45.2127 189.337 52.8414 169.804 52.8414 169.804L53.9183 169.856L78.2915 174.452L78.2862 174.429C83.2713 188.022 84.9229 194.737 84.6498 209.213L83.6677 261.248H83.9757C84.487 261.248 84.9773 261.451 85.3388 261.813C85.7003 262.174 85.9034 262.664 85.9034 263.175C85.9034 263.687 85.7003 264.177 85.3388 264.538C84.9773 264.9 84.487 265.103 83.9757 265.103H74.3376C74.0842 265.103 73.8331 265.054 73.5989 264.957C73.3646 264.86 73.1517 264.718 72.9724 264.539C72.793 264.36 72.6508 264.148 72.5537 263.914C72.4566 263.68 72.4066 263.429 72.4066 263.175C72.4066 262.922 72.4566 262.671 72.5537 262.437C72.6508 262.203 72.793 261.991 72.9724 261.812C73.1517 261.633 73.3646 261.491 73.5989 261.394C73.8331 261.297 74.0842 261.248 74.3376 261.248H74.5861L65.7394 199.289L58.2388 225.305L49.7572 259.222C52.8414 258.451 52.3625 260.237 52.3625 261.248C52.3625 261.759 52.1595 262.25 51.798 262.611C51.4365 262.972 50.9462 263.176 50.4349 263.176H40.7968C40.3485 263.176 39.9141 263.02 39.5685 262.735C39.2229 262.449 38.9877 262.052 38.9034 261.612C38.8192 261.172 38.8912 260.716 39.1071 260.323C39.323 259.931 39.6691 259.625 40.0859 259.46Z" fill="#2F2E41"/>
<path d="M50.9436 170.816L51.7147 163.107C51.7947 162.793 51.9723 162.512 52.222 162.304C52.4717 162.097 52.7806 161.974 53.1045 161.953C53.4258 158.281 54.7775 142.44 54.8582 141.749L54.8614 141.72L55.476 128.593C55.4983 128.116 55.6956 127.664 56.03 127.324C56.3644 126.983 56.8126 126.778 57.289 126.747L60.5354 126.535C60.5799 126.533 60.6222 126.514 60.6531 126.482C60.6841 126.45 60.7014 126.407 60.7014 126.363C60.7014 126.004 60.772 125.65 60.9092 125.318C61.0464 124.987 61.2475 124.686 61.501 124.433C61.7545 124.18 62.0555 123.978 62.3867 123.841C62.7179 123.704 63.073 123.634 63.4315 123.634H73.0431C73.6657 123.634 74.2667 123.861 74.7335 124.273C75.2002 124.685 75.5006 125.253 75.5782 125.87C75.5824 125.913 75.6026 125.952 75.6346 125.981C75.6666 126.009 75.7082 126.024 75.7509 126.023H75.752C76.8442 126.001 77.9082 126.37 78.751 127.065C79.5939 127.76 80.1597 128.734 80.3458 129.81C81.6598 137.453 84.2932 154.8 82.9912 164.444C82.538 167.802 83.515 165.143 83.6864 167.952C83.7035 168.223 83.6667 168.495 83.5784 168.753C83.49 169.01 83.3517 169.247 83.1715 169.451C83.5405 169.585 83.8417 169.859 84.0098 170.214C84.1778 170.569 84.1991 170.975 84.0691 171.346L84.238 171.304C84.1885 171.5 84.1008 171.685 83.9799 171.847C83.859 172.01 83.7073 172.147 83.5335 172.251C83.3596 172.354 83.167 172.423 82.9666 172.452C82.7663 172.482 82.5621 172.471 82.3657 172.422L57.2193 175.828C56.3935 175.62 50.7354 171.641 50.9436 170.816Z" fill="#CCCCCC"/>
<path d="M118.138 139.475C117.981 140.002 117.709 140.488 117.344 140.899C116.978 141.309 116.527 141.635 116.021 141.853C115.516 142.07 114.969 142.174 114.419 142.158C113.87 142.141 113.33 142.004 112.839 141.757L103.117 150.626L101.827 143.8L111.262 136.446C111.733 135.649 112.48 135.052 113.362 134.768C114.243 134.484 115.198 134.534 116.046 134.907C116.893 135.281 117.574 135.952 117.96 136.794C118.346 137.635 118.409 138.589 118.138 139.475Z" fill="#9E616A"/>
<path d="M84.302 132.695C84.302 132.695 80.9122 125.037 76.6308 126.559C72.3495 128.081 74.56 135.512 74.56 135.512L90.6452 159.744C90.6452 159.744 113.846 144.865 111.025 144.76C108.203 144.655 107.36 139.525 107.36 139.525L95.0976 145.65L94.6827 143.469L94.0177 144.134L92.3018 142.784L84.302 132.695Z" fill="#CCCCCC"/>
<path d="M361.597 124.282C368.118 124.282 373.405 118.997 373.405 112.477C373.405 105.957 368.118 100.672 361.597 100.672C355.075 100.672 349.788 105.957 349.788 112.477C349.788 118.997 355.075 124.282 361.597 124.282Z" fill="#FFB6B6"/>
<path d="M399.493 129.848C398.131 131.779 396.142 133.179 393.864 133.81C392.953 134.081 392.012 134.241 391.062 134.286C390.945 133.212 390.664 132.163 390.229 131.174C390.273 132.226 390.127 133.278 389.797 134.279C388.37 134.198 386.976 133.824 385.7 133.182C384.447 132.551 383.358 131.638 382.52 130.513C381.681 129.389 381.116 128.085 380.87 126.704C380.37 123.475 381.834 120.305 382.363 117.081C382.895 113.857 381.897 109.773 378.74 108.926C376.336 108.28 376.606 108.559 374.607 110.043C376.686 113.116 369.007 124.377 365.865 123.395C364.088 122.84 362.951 121.21 362.584 121.21C360.114 125.464 364.765 132.63 360.078 134.119L360.464 133.733C363.293 130.254 357.38 122.89 360.209 119.411C360.998 118.438 361.838 117.285 361.605 116.054C361.384 114.883 359.527 114.264 358.983 115.226C359.961 112.985 358.516 109.994 356.124 109.419C354 108.906 354.038 109.538 351.906 109.812C351.767 108.891 351.506 107.992 351.132 107.139C351.171 108.058 351.063 108.978 350.813 109.863C350.06 109.848 349.333 109.585 348.744 109.115C347.006 107.714 347.358 104.772 348.91 103.167C350.464 101.562 352.773 100.985 354.976 100.611C355.616 96.1531 367.918 95.6882 369.549 100.142C370.243 96.8161 374.408 95.09 377.645 96.1218C380.882 97.1536 383.128 100.176 384.311 103.361C385.494 106.544 385.824 109.97 386.552 113.286C387.281 116.602 388.512 119.979 391.047 122.24C393.583 124.497 397.713 125.245 400.385 123.148C400.773 124.256 400.895 125.44 400.74 126.604C400.585 127.768 400.158 128.88 399.493 129.848Z" fill="#2F2E41"/>
<path d="M510.277 156.788L508.624 165.08C508.499 165.714 508.369 166.359 508.228 166.998C506.846 166.712 505.413 166.792 504.072 167.231C505.136 168.751 506.09 170.345 506.925 172.002C505.884 175.211 504.355 178.177 501.796 180.322C500.087 181.723 498.046 182.66 495.869 183.043C493.692 183.425 491.454 183.241 489.369 182.507L489.442 182.179C486.691 176.841 488.186 170.111 491.605 165.182C493.349 162.749 495.416 160.565 497.748 158.689C500.058 156.765 502.555 155.039 505.029 153.335C505.585 152.953 506.242 152.745 506.916 152.738C507.59 152.732 508.251 152.926 508.815 153.296C509.378 153.667 509.818 154.197 510.079 154.819C510.339 155.441 510.408 156.126 510.277 156.788Z" fill="#E4E4E4"/>
<path d="M489.958 202.458C489.262 197.391 488.546 192.259 489.034 187.137C489.468 182.589 490.855 178.146 493.682 174.503C495.182 172.574 497.007 170.92 499.076 169.617C499.615 169.278 500.111 170.132 499.574 170.47C495.995 172.731 493.227 176.07 491.669 180.006C489.948 184.382 489.672 189.153 489.971 193.801C490.15 196.613 490.53 199.405 490.913 202.195C490.944 202.322 490.926 202.455 490.861 202.568C490.797 202.681 490.692 202.765 490.568 202.803C490.441 202.837 490.307 202.82 490.193 202.755C490.079 202.691 489.995 202.584 489.96 202.458L489.958 202.458Z" fill="#F2F2F2"/>
<path d="M529.326 285.826L0.674121 286C0.495672 286 0.324713 285.928 0.198713 285.802C0.0727131 285.676 0.00195312 285.505 0.00195312 285.326C0.00195312 285.148 0.0727131 284.977 0.198713 284.85C0.324713 284.724 0.495672 284.653 0.674121 284.652L529.326 284.478C529.504 284.479 529.675 284.55 529.801 284.676C529.927 284.803 529.998 284.974 529.998 285.152C529.998 285.331 529.927 285.502 529.801 285.628C529.675 285.754 529.504 285.826 529.326 285.826Z" fill="#CACACA"/>
<path d="M58.6541 105.78C57.3569 106.403 55.9049 105.466 54.785 104.539L55.1856 104.885C53.2063 106.81 52.2809 109.58 51.8287 112.306C51.3761 115.03 51.3256 117.815 50.7558 120.52C50.1854 123.221 49.0024 125.935 46.7925 127.59C43.8321 129.806 39.749 129.664 36.1159 128.985C36.0675 128.975 36.0224 128.967 35.974 128.958C36.9516 126.136 37.3489 123.146 37.1423 120.167C36.1685 123.152 34.5106 125.869 32.3009 128.1C29.8921 127.438 27.541 126.581 25.2705 125.539C23.8014 124.863 22.2195 123.939 21.8117 122.374C21.403 120.82 22.3522 119.191 23.6214 118.21C24.8907 117.229 26.4485 116.718 27.8944 116.019C29.338 115.323 30.7666 114.332 31.3446 112.835C32.6777 109.391 28.88 105.44 30.36 102.055C31.0899 100.39 32.8776 99.4848 34.5579 98.7868C37.123 97.724 39.7571 96.8357 42.4421 96.1281C44.7991 95.5066 47.2602 95.0235 49.6613 95.431C52.0624 95.8384 54.4148 97.2985 55.2789 99.5782C56.7209 100.065 58.2517 100.614 59.1771 101.828C60.1021 103.038 60.0275 105.122 58.6541 105.78Z" fill="#2F2E41"/>
<path d="M70.1961 101.79C66.4852 98.8613 63.4848 99.3613 61.1702 101.181C60.7811 100.748 59.1251 101.939 58.5645 101.768L56.5366 105.574C55.493 107.414 55.0649 109.294 55.2336 110.351C53.3141 115.733 57.866 119.367 63.249 121.286C65.3969 122.057 67.7406 122.091 69.9099 121.382L69.9761 120.465L70.3837 121.217C70.3837 121.217 75.3048 131.347 76.4677 131.802C75.7621 129.972 73.9011 121.275 73.3816 119.462C72.6693 116.995 73.1559 113.077 73.5745 110.674C73.8355 109.193 73.8491 107.679 73.6149 106.193L73.6046 106.128L74.7559 108.452L77.3393 106.828C76.352 103.953 76.3323 100.513 70.1961 101.79Z" fill="#2F2E41"/>
</g>
<defs>
<clipPath id="clip0_457_329">
<rect width="530" height="286" fill="white"/>
</clipPath>
</defs>
</svg>
