<svg width="1857" height="978" viewBox="0 0 1857 978" fill="none" xmlns="http://www.w3.org/2000/svg">
<g clip-path="url(#clip0_635_38)">
<mask id="mask0_635_38" style="mask-type:luminance" maskUnits="userSpaceOnUse" x="0" y="6" width="1857" height="978">
<path d="M0 6H1857V984H0V6Z" fill="white"/>
</mask>
<g mask="url(#mask0_635_38)">
<path opacity="0.043478" d="M-413.406 979.17H146.508C259.932 979.17 362.152 910.742 405.377 805.878L488.282 604.754C527.729 509.056 616.755 442.927 719.769 432.804L854.309 419.583C953.556 409.831 1030.22 328.066 1033.58 228.398C1035.91 159.085 1073.21 93.8208 1136.76 66.0482C1202.97 37.1106 1258.46 25.2767 1336.82 19.2509" stroke="#AB21EC" stroke-width="5" stroke-linecap="round" stroke-dasharray="0.05 20"/>
<path opacity="0.086957" d="M-403.406 979.17H156.508C269.932 979.17 372.152 910.742 415.377 805.878L498.282 604.754C537.729 509.056 626.755 442.927 729.769 432.804L864.309 419.583C963.556 409.831 1040.22 328.066 1043.58 228.398C1045.91 159.085 1083.21 93.8208 1146.76 66.0482C1212.97 37.1106 1268.46 25.2767 1346.82 19.2509" stroke="#AB21EC" stroke-width="5" stroke-linecap="round" stroke-dasharray="0.05 20"/>
<path opacity="0.130435" d="M-393.406 979.17H166.508C279.932 979.17 382.152 910.742 425.377 805.878L508.282 604.754C547.729 509.056 636.755 442.927 739.769 432.804L874.309 419.583C973.556 409.831 1050.22 328.066 1053.58 228.398C1055.91 159.086 1093.21 93.8208 1156.76 66.0482C1222.97 37.1107 1278.46 25.2767 1356.82 19.2509" stroke="#AB21EC" stroke-width="5" stroke-linecap="round" stroke-dasharray="0.05 20"/>
<path opacity="0.173913" d="M-383.406 979.17H176.508C289.932 979.17 392.152 910.742 435.377 805.878L518.282 604.754C557.729 509.056 646.755 442.927 749.769 432.804L884.309 419.583C983.556 409.831 1060.22 328.066 1063.58 228.398C1065.91 159.086 1103.21 93.8208 1166.76 66.0482C1232.97 37.1107 1288.46 25.2767 1366.82 19.2509" stroke="#AB21EC" stroke-width="5" stroke-linecap="round" stroke-dasharray="0.05 20"/>
<path opacity="0.217391" d="M-373.406 979.17H186.508C299.932 979.17 402.152 910.742 445.377 805.878L528.282 604.754C567.729 509.056 656.755 442.927 759.769 432.804L894.309 419.583C993.556 409.831 1070.22 328.066 1073.58 228.398C1075.91 159.086 1113.21 93.8208 1176.76 66.0482C1242.97 37.1107 1298.46 25.2767 1376.82 19.2509" stroke="#AB21EC" stroke-width="5" stroke-linecap="round" stroke-dasharray="0.05 20"/>
<path opacity="0.26087" d="M-363.406 979.17H196.508C309.932 979.17 412.152 910.742 455.377 805.878L538.282 604.754C577.729 509.056 666.755 442.927 769.769 432.804L904.309 419.583C1003.56 409.831 1080.22 328.066 1083.58 228.398C1085.91 159.086 1123.21 93.8208 1186.76 66.0482C1252.97 37.1107 1308.46 25.2767 1386.82 19.2509" stroke="#AB21EC" stroke-width="5" stroke-linecap="round" stroke-dasharray="0.05 20"/>
<path opacity="0.304348" d="M-353.406 979.17H206.508C319.932 979.17 422.152 910.742 465.377 805.878L548.282 604.754C587.729 509.056 676.755 442.927 779.769 432.804L914.309 419.583C1013.56 409.831 1090.22 328.066 1093.58 228.398C1095.91 159.086 1133.21 93.8208 1196.76 66.0482C1262.97 37.1107 1318.46 25.2767 1396.82 19.2509" stroke="#AB21EC" stroke-width="5" stroke-linecap="round" stroke-dasharray="0.05 20"/>
<path opacity="0.347826" d="M-343.406 979.17H216.508C329.932 979.17 432.152 910.742 475.377 805.878L558.282 604.754C597.729 509.056 686.755 442.927 789.769 432.804L924.309 419.583C1023.56 409.831 1100.22 328.066 1103.58 228.398C1105.91 159.086 1143.21 93.8209 1206.76 66.0482C1272.97 37.1107 1328.46 25.2768 1406.82 19.251" stroke="#AB21EC" stroke-width="5" stroke-linecap="round" stroke-dasharray="0.05 20"/>
<path opacity="0.391304" d="M-333.406 979.17H226.508C339.932 979.17 442.152 910.742 485.377 805.878L568.282 604.754C607.729 509.056 696.755 442.927 799.769 432.804L934.309 419.583C1033.56 409.831 1110.22 328.066 1113.58 228.398C1115.91 159.085 1153.21 93.8208 1216.76 66.0482C1282.97 37.1106 1338.46 25.2767 1416.82 19.2509" stroke="#AB21EC" stroke-width="5" stroke-linecap="round" stroke-dasharray="0.05 20"/>
<path opacity="0.434783" d="M-323.406 979.17H236.508C349.932 979.17 452.152 910.742 495.377 805.878L578.282 604.754C617.729 509.056 706.755 442.927 809.769 432.804L944.309 419.583C1043.56 409.831 1120.22 328.066 1123.58 228.398C1125.91 159.085 1163.21 93.8208 1226.76 66.0482C1292.97 37.1106 1348.46 25.2767 1426.82 19.2509" stroke="#AB21EC" stroke-width="5" stroke-linecap="round" stroke-dasharray="0.05 20"/>
<path opacity="0.478261" d="M-313.406 979.17H246.508C359.932 979.17 462.152 910.742 505.377 805.878L588.282 604.754C627.729 509.056 716.755 442.927 819.769 432.804L954.309 419.583C1053.56 409.831 1130.22 328.066 1133.58 228.398C1135.91 159.085 1173.21 93.8208 1236.76 66.0482C1302.97 37.1106 1358.46 25.2767 1436.82 19.2509" stroke="#AB21EC" stroke-width="5" stroke-linecap="round" stroke-dasharray="0.05 20"/>
<path opacity="0.521739" d="M-303.406 979.17H256.508C369.932 979.17 472.152 910.742 515.377 805.878L598.282 604.754C637.729 509.056 726.755 442.927 829.769 432.804L964.309 419.583C1063.56 409.831 1140.22 328.066 1143.58 228.398C1145.91 159.085 1183.21 93.8208 1246.76 66.0482C1312.97 37.1106 1368.46 25.2767 1446.82 19.2509" stroke="#AB21EC" stroke-width="5" stroke-linecap="round" stroke-dasharray="0.05 20"/>
<path opacity="0.565217" d="M-293.406 979.17H266.508C379.932 979.17 482.152 910.742 525.377 805.878L608.282 604.754C647.729 509.056 736.755 442.927 839.769 432.804L974.309 419.583C1073.56 409.831 1150.22 328.066 1153.58 228.398C1155.91 159.086 1193.21 93.8208 1256.76 66.0482C1322.97 37.1107 1378.46 25.2767 1456.82 19.2509" stroke="#AB21EC" stroke-width="5" stroke-linecap="round" stroke-dasharray="0.05 20"/>
<path opacity="0.608696" d="M-283.406 979.17H276.508C389.932 979.17 492.152 910.742 535.377 805.878L618.282 604.754C657.729 509.056 746.755 442.927 849.769 432.804L984.309 419.583C1083.56 409.831 1160.22 328.066 1163.58 228.398C1165.91 159.086 1203.21 93.8208 1266.76 66.0482C1332.97 37.1107 1388.46 25.2767 1466.82 19.2509" stroke="#AB21EC" stroke-width="5" stroke-linecap="round" stroke-dasharray="0.05 20"/>
<path opacity="0.652174" d="M-273.406 979.17H286.508C399.932 979.17 502.152 910.742 545.377 805.878L628.282 604.754C667.729 509.056 756.755 442.927 859.769 432.804L994.309 419.583C1093.56 409.831 1170.22 328.066 1173.58 228.398C1175.91 159.086 1213.21 93.8208 1276.76 66.0482C1342.97 37.1107 1398.46 25.2767 1476.82 19.2509" stroke="#AB21EC" stroke-width="5" stroke-linecap="round" stroke-dasharray="0.05 20"/>
<path opacity="0.695652" d="M-263.406 979.17H296.508C409.932 979.17 512.152 910.742 555.377 805.878L638.282 604.754C677.729 509.056 766.755 442.927 869.769 432.804L1004.31 419.583C1103.56 409.831 1180.22 328.066 1183.58 228.398C1185.91 159.086 1223.21 93.8208 1286.76 66.0482C1352.97 37.1107 1408.46 25.2767 1486.82 19.2509" stroke="#AB21EC" stroke-width="5" stroke-linecap="round" stroke-dasharray="0.05 20"/>
<path opacity="0.73913" d="M-253.406 979.17H306.508C419.932 979.17 522.152 910.742 565.377 805.878L648.282 604.754C687.729 509.056 776.755 442.927 879.769 432.804L1014.31 419.583C1113.56 409.831 1190.22 328.066 1193.58 228.398C1195.91 159.086 1233.21 93.8209 1296.76 66.0482C1362.97 37.1107 1418.46 25.2768 1496.82 19.251" stroke="#AB21EC" stroke-width="5" stroke-linecap="round" stroke-dasharray="0.05 20"/>
<path opacity="0.782609" d="M-243.406 979.17H316.508C429.932 979.17 532.152 910.742 575.377 805.878L658.282 604.754C697.729 509.056 786.755 442.927 889.769 432.804L1024.31 419.583C1123.56 409.831 1200.22 328.066 1203.58 228.398C1205.91 159.085 1243.21 93.8208 1306.76 66.0482C1372.97 37.1106 1428.46 25.2767 1506.82 19.2509" stroke="#AB21EC" stroke-width="5" stroke-linecap="round" stroke-dasharray="0.05 20"/>
<path opacity="0.826087" d="M-233.406 979.17H326.508C439.932 979.17 542.152 910.742 585.377 805.878L668.282 604.754C707.729 509.056 796.755 442.927 899.769 432.804L1034.31 419.583C1133.56 409.831 1210.22 328.066 1213.58 228.398C1215.91 159.085 1253.21 93.8208 1316.76 66.0482C1382.97 37.1106 1438.46 25.2767 1516.82 19.2509" stroke="#AB21EC" stroke-width="5" stroke-linecap="round" stroke-dasharray="0.05 20"/>
<path opacity="0.869565" d="M-223.406 979.17H336.508C449.932 979.17 552.152 910.742 595.377 805.878L678.282 604.754C717.729 509.056 806.755 442.927 909.769 432.804L1044.31 419.583C1143.56 409.831 1220.22 328.066 1223.58 228.398C1225.91 159.085 1263.21 93.8208 1326.76 66.0482C1392.97 37.1106 1448.46 25.2767 1526.82 19.2509" stroke="#AB21EC" stroke-width="5" stroke-linecap="round" stroke-dasharray="0.05 20"/>
<path opacity="0.913043" d="M-213.406 979.17H346.508C459.932 979.17 562.152 910.742 605.377 805.878L688.282 604.754C727.729 509.056 816.755 442.927 919.769 432.804L1054.31 419.583C1153.56 409.831 1230.22 328.066 1233.58 228.398C1235.91 159.085 1273.21 93.8208 1336.76 66.0482C1402.97 37.1106 1458.46 25.2767 1536.82 19.2509" stroke="#AB21EC" stroke-width="5" stroke-linecap="round" stroke-dasharray="0.05 20"/>
<path opacity="0.956522" d="M-203.406 979.17H356.508C469.932 979.17 572.152 910.742 615.377 805.878L698.282 604.754C737.729 509.056 826.755 442.927 929.769 432.804L1064.31 419.583C1163.56 409.831 1240.22 328.066 1243.58 228.398C1245.91 159.086 1283.21 93.8208 1346.76 66.0482C1412.97 37.1107 1468.46 25.2767 1546.82 19.2509" stroke="#AB21EC" stroke-width="5" stroke-linecap="round" stroke-dasharray="0.05 20"/>
<path d="M-193.406 979.17H366.508C479.932 979.17 582.151 910.742 625.377 805.878L708.282 604.754C747.729 509.056 836.755 442.927 939.769 432.804L1074.31 419.583C1173.56 409.831 1250.22 328.066 1253.58 228.398C1255.91 159.086 1293.21 93.8209 1356.76 66.0483C1422.97 37.1107 1478.46 25.2768 1556.82 19.251" stroke="#AB21EC" stroke-width="5" stroke-linecap="round" stroke-dasharray="0.05 20"/>
<path d="M-514.338 979.303H365.862C479.142 979.303 581.261 911.047 624.581 806.377L708.166 604.414C747.694 508.903 836.629 442.939 939.501 432.83L1074.31 419.583C1173.56 409.83 1250.23 328.066 1253.58 228.398C1255.91 159.085 1293.21 93.8205 1356.76 66.0479C1422.98 37.1106 1478.46 25.277 1556.82 19.2512" stroke="url(#paint0_linear_635_38)" stroke-width="6" stroke-linecap="round"/>
</g>
<g clip-path="url(#clip1_635_38)">
<mask id="mask1_635_38" style="mask-type:luminance" maskUnits="userSpaceOnUse" x="342" y="102" width="1857" height="978">
<path d="M2199 1080H342V102H2199V1080Z" fill="white"/>
</mask>
<g mask="url(#mask1_635_38)">
<path opacity="0.043478" d="M2162.41 106.874H1568.09C1472.72 106.874 1383.92 155.412 1332.42 235.677L1269.64 333.532C1218.14 413.798 1129.34 462.335 1033.97 462.335H936.681C801.041 462.335 698.521 585.171 722.781 718.619C747.041 852.067 644.52 974.904 508.88 974.904H348.98" stroke="#2D68FF" stroke-width="5" stroke-linecap="round" stroke-dasharray="0.05 20"/>
<path opacity="0.086957" d="M2172.41 106.874H1578.09C1482.72 106.874 1393.92 155.412 1342.42 235.677L1279.64 333.532C1228.14 413.798 1139.34 462.335 1043.97 462.335H946.681C811.041 462.335 708.521 585.171 732.781 718.619C757.041 852.067 654.52 974.904 518.88 974.904H358.98" stroke="#2D68FF" stroke-width="5" stroke-linecap="round" stroke-dasharray="0.05 20"/>
<path opacity="0.130435" d="M2182.41 106.874H1588.09C1492.72 106.874 1403.92 155.412 1352.42 235.677L1289.64 333.532C1238.14 413.798 1149.34 462.335 1053.97 462.335H956.681C821.041 462.335 718.521 585.171 742.781 718.619C767.041 852.067 664.52 974.904 528.88 974.904H368.98" stroke="#2D68FF" stroke-width="5" stroke-linecap="round" stroke-dasharray="0.05 20"/>
<path opacity="0.173913" d="M2192.41 106.874H1598.09C1502.72 106.874 1413.92 155.412 1362.42 235.677L1299.64 333.532C1248.14 413.798 1159.34 462.335 1063.97 462.335H966.68C831.04 462.335 728.52 585.171 752.78 718.619C777.04 852.067 674.52 974.904 538.88 974.904H378.98" stroke="#2D68FF" stroke-width="5" stroke-linecap="round" stroke-dasharray="0.05 20"/>
<path opacity="0.217391" d="M2202.41 106.874H1608.09C1512.72 106.874 1423.92 155.412 1372.42 235.677L1309.64 333.532C1258.14 413.798 1169.34 462.335 1073.97 462.335H976.68C841.04 462.335 738.52 585.171 762.78 718.619C787.04 852.067 684.52 974.904 548.88 974.904H388.98" stroke="#2D68FF" stroke-width="5" stroke-linecap="round" stroke-dasharray="0.05 20"/>
<path opacity="0.26087" d="M2212.41 106.874H1618.09C1522.72 106.874 1433.92 155.412 1382.42 235.677L1319.64 333.532C1268.14 413.798 1179.34 462.335 1083.97 462.335H986.681C851.041 462.335 748.521 585.171 772.781 718.619C797.041 852.067 694.52 974.904 558.88 974.904H398.98" stroke="#2D68FF" stroke-width="5" stroke-linecap="round" stroke-dasharray="0.05 20"/>
<path opacity="0.304348" d="M2222.41 106.874H1628.09C1532.72 106.874 1443.92 155.412 1392.42 235.677L1329.64 333.532C1278.14 413.798 1189.34 462.335 1093.97 462.335H996.681C861.041 462.335 758.521 585.171 782.781 718.619C807.041 852.067 704.52 974.904 568.88 974.904H408.98" stroke="#2D68FF" stroke-width="5" stroke-linecap="round" stroke-dasharray="0.05 20"/>
<path opacity="0.347826" d="M2232.41 106.874H1638.09C1542.72 106.874 1453.92 155.412 1402.42 235.677L1339.64 333.532C1288.14 413.798 1199.34 462.335 1103.97 462.335H1006.68C871.041 462.335 768.521 585.171 792.781 718.619C817.041 852.067 714.52 974.904 578.88 974.904H418.98" stroke="#2D68FF" stroke-width="5" stroke-linecap="round" stroke-dasharray="0.05 20"/>
<path opacity="0.391304" d="M2242.41 106.874H1648.09C1552.72 106.874 1463.92 155.412 1412.42 235.677L1349.64 333.532C1298.14 413.798 1209.34 462.335 1113.97 462.335H1016.68C881.041 462.335 778.521 585.171 802.781 718.619C827.041 852.067 724.52 974.904 588.88 974.904H428.98" stroke="#2D68FF" stroke-width="5" stroke-linecap="round" stroke-dasharray="0.05 20"/>
<path opacity="0.434783" d="M2252.41 106.874H1658.09C1562.72 106.874 1473.92 155.412 1422.42 235.677L1359.64 333.532C1308.14 413.798 1219.34 462.335 1123.97 462.335H1026.68C891.041 462.335 788.521 585.171 812.781 718.619C837.041 852.067 734.52 974.904 598.88 974.904H438.98" stroke="#2D68FF" stroke-width="5" stroke-linecap="round" stroke-dasharray="0.05 20"/>
<path opacity="0.478261" d="M2262.41 106.874H1668.09C1572.72 106.874 1483.92 155.412 1432.42 235.677L1369.64 333.532C1318.14 413.798 1229.34 462.335 1133.97 462.335H1036.68C901.041 462.335 798.521 585.171 822.781 718.619C847.041 852.067 744.52 974.904 608.88 974.904H448.98" stroke="#2D68FF" stroke-width="5" stroke-linecap="round" stroke-dasharray="0.05 20"/>
<path opacity="0.521739" d="M2272.41 106.874H1678.09C1582.72 106.874 1493.92 155.412 1442.42 235.677L1379.64 333.532C1328.14 413.798 1239.34 462.335 1143.97 462.335H1046.68C911.041 462.335 808.521 585.171 832.781 718.619C857.041 852.067 754.52 974.904 618.88 974.904H458.98" stroke="#2D68FF" stroke-width="5" stroke-linecap="round" stroke-dasharray="0.05 20"/>
<path opacity="0.565217" d="M2282.41 106.874H1688.09C1592.72 106.874 1503.92 155.412 1452.42 235.677L1389.64 333.532C1338.14 413.798 1249.34 462.335 1153.97 462.335H1056.68C921.041 462.335 818.521 585.171 842.781 718.619C867.041 852.067 764.52 974.904 628.88 974.904H468.98" stroke="#2D68FF" stroke-width="5" stroke-linecap="round" stroke-dasharray="0.05 20"/>
<path opacity="0.608696" d="M2292.41 106.874H1698.09C1602.72 106.874 1513.92 155.412 1462.42 235.677L1399.64 333.532C1348.14 413.798 1259.34 462.335 1163.97 462.335H1066.68C931.041 462.335 828.521 585.171 852.781 718.619C877.041 852.067 774.52 974.904 638.88 974.904H478.98" stroke="#2D68FF" stroke-width="5" stroke-linecap="round" stroke-dasharray="0.05 20"/>
<path opacity="0.652174" d="M2302.41 106.874H1708.09C1612.72 106.874 1523.92 155.412 1472.42 235.677L1409.64 333.532C1358.14 413.798 1269.34 462.335 1173.97 462.335H1076.68C941.04 462.335 838.52 585.171 862.78 718.619C887.04 852.067 784.52 974.904 648.88 974.904H488.98" stroke="#2D68FF" stroke-width="5" stroke-linecap="round" stroke-dasharray="0.05 20"/>
<path opacity="0.695652" d="M2312.41 106.874H1718.09C1622.72 106.874 1533.92 155.412 1482.42 235.677L1419.64 333.532C1368.14 413.798 1279.34 462.335 1183.97 462.335H1086.68C951.04 462.335 848.52 585.171 872.78 718.619C897.04 852.067 794.52 974.904 658.88 974.904H498.98" stroke="#2D68FF" stroke-width="5" stroke-linecap="round" stroke-dasharray="0.05 20"/>
<path opacity="0.73913" d="M2322.41 106.874H1728.09C1632.72 106.874 1543.92 155.412 1492.42 235.677L1429.64 333.532C1378.14 413.798 1289.34 462.335 1193.97 462.335H1096.68C961.04 462.335 858.52 585.171 882.78 718.619C907.04 852.067 804.52 974.904 668.88 974.904H508.98" stroke="#2D68FF" stroke-width="5" stroke-linecap="round" stroke-dasharray="0.05 20"/>
<path opacity="0.782609" d="M2332.41 106.874H1738.09C1642.72 106.874 1553.92 155.412 1502.42 235.677L1439.64 333.532C1388.14 413.798 1299.34 462.335 1203.97 462.335H1106.68C971.04 462.335 868.52 585.171 892.78 718.619C917.04 852.067 814.52 974.904 678.88 974.904H518.98" stroke="#2D68FF" stroke-width="5" stroke-linecap="round" stroke-dasharray="0.05 20"/>
<path opacity="0.826087" d="M2342.41 106.874H1748.09C1652.72 106.874 1563.92 155.412 1512.42 235.677L1449.64 333.532C1398.14 413.798 1309.34 462.335 1213.97 462.335H1116.68C981.04 462.335 878.52 585.171 902.78 718.619C927.04 852.067 824.52 974.904 688.88 974.904H528.98" stroke="#2D68FF" stroke-width="5" stroke-linecap="round" stroke-dasharray="0.05 20"/>
<path opacity="0.869565" d="M2352.41 106.874H1758.09C1662.72 106.874 1573.92 155.412 1522.42 235.677L1459.64 333.532C1408.14 413.798 1319.34 462.335 1223.97 462.335H1126.68C991.04 462.335 888.52 585.171 912.78 718.619C937.04 852.067 834.52 974.904 698.88 974.904H538.98" stroke="#2D68FF" stroke-width="5" stroke-linecap="round" stroke-dasharray="0.05 20"/>
<path opacity="0.913043" d="M2362.41 106.874H1768.09C1672.72 106.874 1583.92 155.412 1532.42 235.677L1469.64 333.532C1418.14 413.798 1329.34 462.335 1233.97 462.335H1136.68C1001.04 462.335 898.52 585.171 922.78 718.619C947.04 852.067 844.52 974.904 708.88 974.904H548.98" stroke="#2D68FF" stroke-width="5" stroke-linecap="round" stroke-dasharray="0.05 20"/>
<path opacity="0.956522" d="M2372.41 106.874H1778.09C1682.72 106.874 1593.92 155.412 1542.42 235.677L1479.64 333.532C1428.14 413.798 1339.34 462.335 1243.97 462.335H1146.68C1011.04 462.335 908.52 585.171 932.78 718.619C957.04 852.067 854.52 974.904 718.88 974.904H558.98" stroke="#2D68FF" stroke-width="5" stroke-linecap="round" stroke-dasharray="0.05 20"/>
<path d="M2382.41 106.874H1788.09C1692.72 106.874 1603.92 155.412 1552.42 235.677L1489.64 333.532C1438.14 413.798 1349.34 462.335 1253.97 462.335H1156.68C1021.04 462.335 918.52 585.171 942.78 718.619C967.04 852.067 864.52 974.904 728.88 974.904H568.98" stroke="#2D68FF" stroke-width="5" stroke-linecap="round" stroke-dasharray="0.05 20"/>
</g>
</g>
</g>
<defs>
<linearGradient id="paint0_linear_635_38" x1="-142.517" y1="975.407" x2="518.562" y2="972.552" gradientUnits="userSpaceOnUse">
<stop offset="0.2185" stop-color="#07071C"/>
<stop offset="0.508251" stop-color="#AB21EC"/>
<stop offset="0.755624" stop-color="#AB21EC" stop-opacity="0"/>
</linearGradient>
<clipPath id="clip0_635_38">
<rect width="1857" height="978" fill="white"/>
</clipPath>
<clipPath id="clip1_635_38">
<rect width="1857" height="978" fill="white" transform="matrix(-1 0 0 -1 2199 1080)"/>
</clipPath>
</defs>
</svg>
