<svg width="52" height="52" viewBox="0 0 52 52" fill="none" xmlns="http://www.w3.org/2000/svg">
<path d="M37.57 11.8302C37.0558 11.8302 36.5531 11.9826 36.1256 12.2683C35.698 12.554 35.3647 12.9601 35.168 13.4352C34.9712 13.9103 34.9197 14.433 35.02 14.9374C35.1203 15.4417 35.3679 15.905 35.7316 16.2686C36.0952 16.6323 36.5585 16.8799 37.0628 16.9802C37.5672 17.0805 38.0899 17.029 38.565 16.8322C39.0401 16.6355 39.4462 16.3022 39.7319 15.8746C40.0175 15.4471 40.17 14.9444 40.17 14.4302C40.17 13.7406 39.8961 13.0793 39.4085 12.5917C38.9209 12.1041 38.2596 11.8302 37.57 11.8302ZM47.5367 17.0735C47.4946 15.2758 47.1579 13.4972 46.54 11.8085C45.9891 10.3636 45.1317 9.05527 44.0267 7.9735C42.9538 6.86292 41.6424 6.01088 40.1917 5.48183C38.5075 4.84518 36.7269 4.50078 34.9267 4.4635C32.63 4.3335 31.8934 4.3335 26 4.3335C20.1067 4.3335 19.37 4.3335 17.0734 4.4635C15.2732 4.50078 13.4926 4.84518 11.8084 5.48183C10.3603 6.01623 9.05006 6.86754 7.97337 7.9735C6.8628 9.04638 6.01076 10.3578 5.48171 11.8085C4.84506 13.4927 4.50066 15.2733 4.46337 17.0735C4.33337 19.3702 4.33337 20.1068 4.33337 26.0002C4.33337 31.8935 4.33337 32.6302 4.46337 34.9268C4.50066 36.727 4.84506 38.5076 5.48171 40.1918C6.01076 41.6425 6.8628 42.9539 7.97337 44.0268C9.05006 45.1328 10.3603 45.9841 11.8084 46.5185C13.4926 47.1551 15.2732 47.4995 17.0734 47.5368C19.37 47.6668 20.1067 47.6668 26 47.6668C31.8934 47.6668 32.63 47.6668 34.9267 47.5368C36.7269 47.4995 38.5075 47.1551 40.1917 46.5185C41.6424 45.9894 42.9538 45.1374 44.0267 44.0268C45.1366 42.9491 45.9948 41.6396 46.54 40.1918C47.1579 38.5031 47.4946 36.7245 47.5367 34.9268C47.5367 32.6302 47.6667 31.8935 47.6667 26.0002C47.6667 20.1068 47.6667 19.3702 47.5367 17.0735ZM43.6367 34.6668C43.6209 36.0422 43.3718 37.4049 42.9 38.6968C42.5541 39.6397 41.9984 40.4917 41.275 41.1885C40.5723 41.9046 39.722 42.4591 38.7834 42.8135C37.4914 43.2853 36.1287 43.5344 34.7534 43.5502C32.5867 43.6585 31.785 43.6802 26.0867 43.6802C20.3884 43.6802 19.5867 43.6802 17.42 43.5502C15.992 43.5769 14.57 43.357 13.2167 42.9002C12.3192 42.5277 11.508 41.9745 10.8334 41.2752C10.1142 40.5791 9.56553 39.7264 9.23004 38.7835C8.70106 37.473 8.40767 36.0794 8.36337 34.6668C8.36337 32.5002 8.23337 31.6985 8.23337 26.0002C8.23337 20.3018 8.23337 19.5002 8.36337 17.3335C8.37309 15.9274 8.62977 14.534 9.12171 13.2168C9.50314 12.3023 10.0886 11.4871 10.8334 10.8335C11.4916 10.0885 12.3052 9.49687 13.2167 9.10016C14.5374 8.62359 15.9294 8.3745 17.3334 8.3635C19.5 8.3635 20.3017 8.2335 26 8.2335C31.6984 8.2335 32.5 8.2335 34.6667 8.3635C36.042 8.37927 37.4047 8.62836 38.6967 9.10016C39.6813 9.46558 40.565 10.0597 41.275 10.8335C41.9851 11.499 42.5399 12.3127 42.9 13.2168C43.3816 14.5362 43.6308 15.929 43.6367 17.3335C43.745 19.5002 43.7667 20.3018 43.7667 26.0002C43.7667 31.6985 43.745 32.5002 43.6367 34.6668ZM26 14.8852C23.8026 14.8894 21.6558 15.545 19.8308 16.7689C18.0058 17.9928 16.5845 19.7303 15.7466 21.7616C14.9086 23.793 14.6916 26.0272 15.1229 28.1818C15.5542 30.3365 16.6146 32.315 18.1699 33.8673C19.7252 35.4196 21.7057 36.476 23.8612 36.9031C26.0167 37.3303 28.2505 37.1089 30.2802 36.267C32.31 35.4251 34.0446 34.0004 35.265 32.1731C36.4854 30.3457 37.1367 28.1976 37.1367 26.0002C37.1396 24.5379 36.8533 23.0895 36.2944 21.7382C35.7355 20.387 34.9149 19.1596 33.8799 18.1266C32.8449 17.0936 31.6159 16.2755 30.2636 15.7192C28.9113 15.1629 27.4623 14.8794 26 14.8852ZM26 33.2152C24.573 33.2152 23.1781 32.792 21.9916 31.9992C20.8051 31.2064 19.8803 30.0796 19.3342 28.7612C18.7882 27.4429 18.6453 25.9922 18.9237 24.5926C19.2021 23.193 19.8892 21.9074 20.8983 20.8984C21.9073 19.8893 23.1929 19.2022 24.5925 18.9238C25.992 18.6454 27.4427 18.7883 28.7611 19.3344C30.0795 19.8805 31.2063 20.8052 31.9991 21.9917C32.7919 23.1782 33.215 24.5732 33.215 26.0002C33.215 26.9476 33.0284 27.8859 32.6658 28.7612C32.3032 29.6366 31.7718 30.432 31.1018 31.1019C30.4318 31.7719 29.6365 32.3034 28.7611 32.666C27.8857 33.0285 26.9475 33.2152 26 33.2152Z" fill="white"/>
</svg>
