<svg width="57" height="62" viewBox="0 0 57 62" fill="none" xmlns="http://www.w3.org/2000/svg">
<path d="M23.5249 41.1163C22.8073 41.1163 22.6279 41.8139 22.6279 42.1628C22.6279 43 23.2259 43.2093 23.5249 43.2093H34.289C34.588 43.2093 35.186 43 35.186 42.1628C35.186 41.3256 34.588 41.1163 34.289 41.1163H23.5249Z" fill="white" stroke="black" stroke-width="0.1"/>
<path d="M34.1665 44.3721H23.7146C22.9768 44.3721 23.4072 45.5814 24.0221 45.5814C26.0281 45.5814 24.6368 47.3953 29.248 47.3953C33.0911 47.3953 32.6295 45.5814 33.5517 45.5814C34.2895 45.5814 34.879 44.3721 34.1665 44.3721Z" fill="white" stroke="black" stroke-width="0.1"/>
<path d="M23.5249 38.3256C22.8073 38.3256 22.6279 38.8682 22.6279 39.1395C22.6279 39.7907 23.2259 39.9535 23.5249 39.9535H34.289C34.588 39.9535 35.186 39.7907 35.186 39.1395C35.186 38.4884 34.588 38.3256 34.289 38.3256H23.5249Z" fill="white" stroke="black" stroke-width="0.1"/>
<path d="M6.84717 22.2791C6.36876 22.2791 5.65115 22.2791 5.65115 23.093C5.65115 23.907 6.64783 23.907 6.84717 23.907H12.8272H12.8272C13.0266 23.907 14.0232 23.907 14.0232 23.093C14.0232 22.2791 13.0266 22.2791 12.8272 22.2791H12.8272H6.84717Z" fill="white" stroke="black" stroke-width="0.1"/>
<path d="M44.6544 22.2791C44.2159 22.2791 43.5581 22.2791 43.5581 23.093C43.5581 23.907 44.4717 23.907 44.6544 23.907H50.1362H50.1362C50.3189 23.907 51.2325 23.907 51.2325 23.093C51.2325 22.2791 50.3189 22.2791 50.1362 22.2791H50.1362H44.6544Z" fill="white" stroke="black" stroke-width="0.1"/>
<path d="M27.686 6.93027C27.686 7.30237 27.686 8.09306 28.6628 8.09306C29.6395 8.09306 29.6395 7.08531 29.6395 6.93027V2.27912V2.27911C29.6395 2.12405 29.6395 1.00005 28.6628 1.00005C27.686 1.00005 27.686 2.12405 27.686 2.27911V2.27912V6.93027Z" fill="white" stroke="black" stroke-width="0.0933333"/>
<path d="M21.606 8.27265C21.717 8.51998 21.9528 9.04556 22.6841 8.71741C23.4155 8.38925 23.1149 7.71939 23.0686 7.61633L21.6813 4.52467C21.6351 4.42161 21.2998 3.67445 20.5685 4.00261C19.8372 4.33077 20.1725 5.07791 20.2187 5.18097L20.2187 5.18098L21.606 8.27265Z" fill="white" stroke="black" stroke-width="0.0933333"/>
<path d="M13.1234 17.3774C13.3587 17.4766 13.8589 17.6873 14.1591 16.9748C14.4592 16.2624 13.8218 15.9938 13.7237 15.9525L10.7815 14.713L10.7815 14.713C10.6834 14.6717 9.9724 14.3721 9.67224 15.0846C9.37208 15.7971 10.0831 16.0966 10.1812 16.1379L10.1812 16.1379L13.1234 17.3774Z" fill="white" stroke="black" stroke-width="0.0933333"/>
<path d="M16.2985 11.7867C16.5248 12.0313 17.0058 12.5511 17.6491 11.9559C18.2924 11.3607 17.6793 10.6982 17.585 10.5963L14.7557 7.53857L14.7557 7.53857C14.6614 7.43663 13.9776 6.6977 13.3344 7.29293C12.6911 7.88815 13.3748 8.62708 13.4692 8.72902L13.4692 8.72902L16.2985 11.7867Z" fill="white" stroke="black" stroke-width="0.0933333"/>
<path d="M34.3683 7.3877C34.2579 7.63528 34.0232 8.16139 34.7553 8.48792C35.4873 8.81445 35.7864 8.14392 35.8324 8.04076L37.2128 4.94601C37.2588 4.84285 37.5924 4.09496 36.8604 3.76843C36.1283 3.4419 35.7948 4.18978 35.7487 4.29295L35.7487 4.29295L34.3683 7.3877Z" fill="white" stroke="black" stroke-width="0.0933333"/>
<path d="M44.0944 8.89794C44.3263 8.65859 44.8191 8.14998 44.1897 7.54012C43.5603 6.93027 42.9322 7.5785 42.8356 7.67823L39.9367 10.6701L39.9367 10.6701C39.84 10.7698 39.1395 11.4928 39.7689 12.1027C40.3983 12.7126 41.0989 11.9895 41.1955 11.8898L41.1955 11.8898L44.0944 8.89794Z" fill="white" stroke="black" stroke-width="0.0933333"/>
<path d="M47.3389 16.0525C47.5814 15.9476 48.0967 15.7247 47.8041 15.0484C47.5116 14.3721 46.8548 14.6562 46.7538 14.6999L43.7227 16.0112C43.6217 16.0549 42.8892 16.3717 43.1818 17.0481C43.4743 17.7244 44.2069 17.4075 44.3079 17.3638L47.3389 16.0525Z" fill="white" stroke="black" stroke-width="0.0933333"/>
<path d="M4.8372 47.2791C5.53488 45.0697 7.0465 41.3488 7.16278 41.1163C26.2325 48.2093 28.7907 52.9768 28.7907 52.9768C28.7907 52.9768 33.7907 47.0465 50.4185 41.1163C50.9999 42.1628 51.8139 44.6046 52.7441 47.2791C37.279 47.3953 28.7907 54.7209 28.7907 54.7209C28.7907 54.7209 23.093 48.4028 4.8372 47.2791Z" fill="white" stroke="black" stroke-width="0.1"/>
<path d="M1 56.2325C1.11628 55.6511 2.6279 51.2325 3.09302 49.4884C21.3488 49.2558 28.7907 56.4651 28.7907 56.4651C28.7907 56.4651 37.1628 49.1395 54.2558 49.4883C54.4883 50.3023 56.1162 55.186 56.3488 56.1162C31.3488 54.9535 34.3721 61 28.7907 61C23.3256 61 25.8837 54.7209 1 56.2325Z" fill="white" stroke="black" stroke-width="0.1"/>
<path d="M46.7778 31.4205C47.009 31.5483 47.5003 31.82 47.8569 31.1752C48.2135 30.5303 47.5873 30.1841 47.491 30.1308L44.6009 28.5325C44.5046 28.4793 43.8062 28.093 43.4496 28.7379C43.093 29.3827 43.7914 29.7689 43.8877 29.8222L46.7778 31.4205Z" fill="white" stroke="black" stroke-width="0.0933333"/>
<path d="M13.5893 30.006C13.8318 29.9011 14.347 29.6782 14.0545 29.0019C13.7619 28.3256 13.1052 28.6097 13.0041 28.6534L9.97307 29.9646C9.87204 30.0083 9.13953 30.3252 9.4321 31.0015C9.72467 31.6778 10.4572 31.361 10.5582 31.3172L13.5893 30.006Z" fill="white" stroke="black" stroke-width="0.0933333"/>
<path d="M17.541 35.0411C17.7756 34.7695 18.274 34.1923 17.5501 33.5672C16.8263 32.9421 16.1911 33.6777 16.0933 33.7909L13.1615 37.1861L13.1615 37.1861C13.0638 37.2993 12.3552 38.1197 13.0791 38.7448C13.803 39.3699 14.5115 38.5494 14.6092 38.4362L14.6092 38.4362L17.541 35.0411Z" fill="white" stroke="black" stroke-width="0.0933333"/>
<path d="M41.3499 33.9019C41.1371 33.6606 40.6848 33.1479 39.9876 33.7628C39.2905 34.3778 39.8668 35.0313 39.9555 35.1318L42.6157 38.1477L42.6157 38.1477C42.7044 38.2483 43.3473 38.9771 44.0444 38.3622C44.7416 37.7472 44.0988 37.0184 44.0101 36.9178L44.0101 36.9178L41.3499 33.9019Z" fill="white" stroke="black" stroke-width="0.0933333"/>
<path d="M29.2558 36.3488C28.8931 36.3692 28.3256 36.3488 28.3256 36.3488C28.3256 24.2558 23.3256 25.7675 23.3256 21.814C23.3256 20.1861 23.907 16.4651 28.6744 16.4651C33.4418 16.4651 34.2558 20.0698 34.2558 21.814C34.2558 25.6512 29.1395 25.0698 29.2558 36.3488Z" fill="white"/>
<path d="M27.3953 23.7907C27.3953 22.9535 26.9302 22.6279 26.4651 22.6279C26.1162 22.6279 25.5349 22.8605 25.5349 23.907C25.5349 24.7442 26.1162 25.1861 26.4651 25.1861C26.9302 25.1861 27.3953 24.6279 27.3953 23.7907Z" fill="black" fill-opacity="0.36"/>
<path d="M27.7442 23.7907C27.7442 23.0465 28.2093 22.5117 28.9069 22.5117C29.4883 22.5117 29.8372 23.093 29.8372 23.7907C29.8372 24.4884 29.3296 25.0698 28.9069 25.0698C28.5392 25.0698 27.7442 24.7209 27.7442 23.7907Z" fill="black" fill-opacity="0.36"/>
<path d="M32.279 23.7907C32.279 23.2326 31.9302 22.5117 31.4651 22.5117C30.8837 22.5117 30.4186 23.093 30.4186 23.907C30.4186 24.7209 30.7674 25.1861 31.2325 25.1861C31.6976 25.1861 32.279 24.4884 32.279 23.7907Z" fill="black" fill-opacity="0.36"/>
<path d="M23.2093 36.3488H26.4651C26.6976 26.6977 22.279 26.9303 21.6977 22.8605C21.4651 19.4884 22.279 14.3721 28.5581 14.3721C34.8372 14.3721 36.6976 18.4419 36.1162 22.8605C35.5348 27.2791 31.2325 25.6512 31.2325 36.3488H34.7209C35.0697 32.9768 40.7674 29.6047 40.7674 22.8605C40.7674 16.814 36.4651 10.6512 28.5581 10.6512C20.4186 10.6512 17.0465 17.3954 17.0465 22.6279C17.0465 29.1396 22.0465 32.2791 23.2093 36.3488Z" fill="white"/>
</svg>
