<svg width="26" height="20" viewBox="0 0 26 20" fill="none" xmlns="http://www.w3.org/2000/svg">
<path d="M23.4711 0.271484L13.0457 0.296875L2.62031 0.246094H2.61523C1.21367 0.246094 0.101562 1.56133 0.101562 3.20664V16.9887C0.101562 18.634 1.21367 19.9492 2.61523 19.9492H23.4863C24.8879 19.9492 26 18.634 26 16.9887V3.20664C26 1.56133 24.898 0.271484 23.4711 0.271484ZM22.6535 2.30273L13.3402 10.8188L13.3047 10.8492L13.2742 10.8848C13.1625 11.0066 13.0305 11.0219 12.9594 11.0219C12.8883 11.0219 12.7563 11.0016 12.6496 10.8746L12.6191 10.8391L3.71719 2.26211L13.0457 2.32305L22.6535 2.30273ZM23.4863 17.918H2.61523C2.4375 17.918 2.13281 17.5828 2.13281 16.9887V3.53164L11.1516 12.2457C11.6086 12.7535 12.2535 13.048 12.9391 13.0582H12.9695C13.6449 13.0582 14.2746 12.7789 14.7367 12.2914L23.9789 3.83125V16.9887C23.9688 17.5828 23.6641 17.918 23.4863 17.918Z" fill="url(#paint0_linear_1006_152)"/>
<defs>
<linearGradient id="paint0_linear_1006_152" x1="1.21875" y1="10.0977" x2="25.406" y2="10.0977" gradientUnits="userSpaceOnUse">
<stop stop-color="#FF884B"/>
<stop offset="0.35" stop-color="#FF634C"/>
<stop offset="0.655" stop-color="#FE4A4F"/>
<stop offset="1" stop-color="#FE4840"/>
</linearGradient>
</defs>
</svg>
