<svg width="30" height="23" viewBox="0 0 30 23" fill="none" xmlns="http://www.w3.org/2000/svg">
<path d="M26.6 0H3.4C1.805 0 0.5145 1.29375 0.5145 2.875L0.5 20.125C0.5 21.7062 1.805 23 3.4 23H26.6C28.195 23 29.5 21.7062 29.5 20.125V2.875C29.5 1.29375 28.195 0 26.6 0ZM25.15 20.125H4.85C4.0525 20.125 3.4 19.4781 3.4 18.6875V5.75L13.463 11.9888C14.4055 12.5781 15.5945 12.5781 16.537 11.9888L26.6 5.75V18.6875C26.6 19.4781 25.9475 20.125 25.15 20.125ZM15 10.0625L3.4 2.875H26.6L15 10.0625Z" fill="black"/>
</svg>
