<svg width="556" height="364" viewBox="0 0 556 364" fill="none" xmlns="http://www.w3.org/2000/svg">
<g clip-path="url(#clip0_455_37)">
<path d="M394.653 266.973H95.2396C92.5718 266.97 90.0141 266.03 88.1277 264.36C86.2413 262.689 85.1801 260.424 85.177 258.061V42.1484C85.1801 39.7858 86.2413 37.5206 88.1277 35.85C90.0141 34.1793 92.5718 33.2396 95.2396 33.2368H394.653C397.321 33.2396 399.879 34.1793 401.765 35.85C403.652 37.5206 404.713 39.7858 404.716 42.1484V258.061C404.713 260.424 403.652 262.689 401.765 264.36C399.879 266.03 397.321 266.97 394.653 266.973Z" fill="#E6E6E6"/>
<path d="M102.029 39.5798C99.4587 39.5825 96.9949 40.4878 95.1778 42.0971C93.3607 43.7064 92.3386 45.8884 92.3357 48.1643V252.051C92.3387 254.326 93.3609 256.508 95.178 258.117C96.9951 259.727 99.4588 260.632 102.029 260.634H306.965C330.984 260.61 354.011 252.15 370.995 237.109C387.978 222.068 397.532 201.675 397.559 180.404V48.1643C397.556 45.8884 396.534 43.7064 394.717 42.0971C392.899 40.4878 390.436 39.5825 387.866 39.5799L102.029 39.5798Z" fill="white"/>
<path d="M340.055 131.277H285.764C284.632 131.276 283.546 130.877 282.745 130.168C281.945 129.459 281.494 128.497 281.493 127.494V103.564C281.494 102.561 281.945 101.599 282.745 100.89C283.546 100.181 284.632 99.7825 285.764 99.7814H340.055C341.187 99.7825 342.273 100.181 343.073 100.89C343.874 101.599 344.324 102.561 344.326 103.564C347.685 112.032 348.162 120.079 344.326 127.494C344.324 128.497 343.874 129.459 343.073 130.168C342.273 130.877 341.187 131.276 340.055 131.277Z" fill="#E6E6E6"/>
<path d="M333.623 128.964H287.497C286.535 128.963 285.613 128.624 284.933 128.022C284.253 127.419 283.87 126.602 283.869 125.75V105.419C283.87 104.567 284.253 103.75 284.933 103.148C285.613 102.545 286.535 102.206 287.497 102.205H333.623C334.585 102.206 335.507 102.545 336.188 103.148C336.868 103.75 337.25 104.567 337.251 105.419C340.364 112.66 340.865 119.511 337.251 125.75C337.25 126.602 336.868 127.419 336.188 128.022C335.507 128.624 334.585 128.963 333.623 128.964Z" fill="white"/>
<path d="M331.136 143.812H294.563C293.487 143.814 292.455 143.436 291.693 142.764C290.931 142.091 290.502 141.178 290.5 140.225C290.498 139.273 290.923 138.358 291.682 137.683C292.441 137.008 293.472 136.627 294.548 136.625H331.136C332.21 136.627 333.24 137.006 334 137.68C334.759 138.354 335.185 139.267 335.185 140.219C335.185 141.171 334.759 142.084 334 142.757C333.24 143.431 332.21 143.81 331.136 143.812Z" fill="#E6E6E6"/>
<path d="M306.546 107.695C306.125 107.696 305.722 107.845 305.425 108.109C305.127 108.373 304.96 108.73 304.959 109.102V124.334C304.959 124.58 305.032 124.822 305.17 125.035C305.309 125.248 305.508 125.425 305.748 125.549C305.988 125.673 306.261 125.738 306.539 125.739C306.816 125.74 307.09 125.676 307.331 125.555L322.512 117.889C322.756 117.766 322.958 117.588 323.099 117.373C323.24 117.157 323.314 116.913 323.313 116.664C323.312 116.416 323.237 116.172 323.095 115.957C322.953 115.743 322.749 115.566 322.504 115.444L307.324 107.877C307.087 107.758 306.819 107.696 306.546 107.695Z" fill="#E6E6E6"/>
<path d="M528.023 334.857C527.186 333.915 526.049 333.215 524.759 332.85C523.469 332.485 522.085 332.47 520.785 332.808L520.501 332.883L517.952 341.696C517.57 340.383 516.753 337.418 516.238 334.515L516.193 334.275L515.94 334.374C513.275 335.417 510.77 336.754 508.484 338.354C504.434 341.231 501.14 344.854 498.831 348.973C496.522 353.091 495.254 357.605 495.113 362.202L495.109 362.371L495.104 362.477L495.442 362.371L502.685 360.078C505.891 360.328 509.121 359.941 512.137 358.945C515.153 357.949 517.88 356.369 520.119 354.321C523.045 351.587 525.053 348.071 526.993 344.67C527.562 343.679 528.143 342.656 528.738 341.673C529.402 340.604 529.689 339.383 529.561 338.168C529.434 336.953 528.898 335.8 528.023 334.857Z" fill="#F2F2F2"/>
<path d="M343.064 110.107C343.21 110.775 343.518 111.405 343.969 111.955C344.419 112.505 345 112.961 345.671 113.291C346.342 113.621 347.087 113.816 347.852 113.863C348.617 113.911 349.385 113.809 350.101 113.565L371.747 135.866L374.488 127.633L353.028 107.23C352.485 106.192 351.532 105.366 350.348 104.909C349.163 104.452 347.831 104.395 346.603 104.749C345.375 105.104 344.336 105.845 343.684 106.833C343.032 107.82 342.811 108.986 343.064 110.107Z" fill="#FFB8B8"/>
<path d="M430.304 357.04H423.14L419.732 332.569H430.305L430.304 357.04Z" fill="#FFB6B6"/>
<path d="M430.112 354.968L422.464 352.212L422.245 352.133L418.022 354.968C415.638 354.968 413.351 355.807 411.665 357.3C409.979 358.793 409.032 360.818 409.031 362.93V363.188H432.128V354.968H430.112Z" fill="#2F2E41"/>
<path d="M481.406 357.04H474.242L470.834 332.569H481.407L481.406 357.04Z" fill="#FFB6B6"/>
<path d="M481.215 354.968L473.566 352.212L473.347 352.133L469.124 354.968C466.74 354.968 464.453 355.807 462.767 357.3C461.081 358.793 460.134 360.818 460.134 362.93V363.188H483.231V354.968H481.215Z" fill="#2F2E41"/>
<path d="M464.499 210.914C464.499 210.914 473.484 219.193 473.484 225.995C473.484 232.797 471.238 242.136 473.484 244.18C475.73 246.224 478.538 248.711 475.169 251.695C471.799 254.679 470.115 256.171 472.361 258.16C474.607 260.15 473.484 294.962 473.484 294.962L485.277 341.711H470.42L451.583 294.962L446.529 256.171L430.184 293.47L431.989 342.112L416.457 341.711L410.027 289.989C410.027 289.989 419.574 240.789 417.889 239.528C416.205 238.267 417.889 235.722 417.889 235.722L422.382 216.882L464.499 210.914Z" fill="#2F2E41"/>
<path d="M446.907 152.22C446.907 152.22 449.962 141.558 435.887 138.501C421.812 135.444 381.578 131.517 381.578 131.517L361.245 112.409L354.355 121.271L377.149 146.356L431.157 156.181L446.907 152.22Z" fill="#3F3D56"/>
<path d="M357.704 120.617C358.335 119.893 358.829 119.082 359.167 118.217L362.083 111.872L361.326 111.844C360.278 111.669 359.201 111.693 358.164 111.913C357.128 112.132 356.156 112.544 355.311 113.12C354.467 113.696 353.769 114.423 353.265 115.255C352.76 116.086 352.459 117.002 352.382 117.944C352.287 118.758 352.452 119.58 352.859 120.315C353.066 120.679 353.368 120.995 353.739 121.237C354.111 121.478 354.542 121.638 354.996 121.703C355.513 121.728 356.029 121.642 356.5 121.453C356.971 121.264 357.384 120.977 357.704 120.617Z" fill="#E6E6E6"/>
<path d="M419.514 219.423L417.83 230.238C417.83 230.238 421.199 233.443 422.884 233.042C424.568 232.642 430.746 230.31 430.746 230.31C430.746 230.31 438.046 233.844 441.977 234.244C445.908 234.645 466.686 232.241 467.247 231.039C467.809 229.838 474.336 225.134 474.336 225.134L471.74 211.411L419.514 219.423Z" fill="#E6E6E6"/>
<path d="M474.227 181.587C474.227 181.587 472.801 192.016 473.924 192.976C475.047 193.93 472.801 199.973 470.555 203.952C468.308 207.93 472.239 208.428 472.239 211.412C472.239 214.395 473.924 225.337 473.924 225.337C473.924 225.337 456.516 226.331 453.708 223.845C450.9 221.358 446.408 223.347 440.23 228.818C434.053 234.289 420.638 229.813 417.83 227.326C415.022 224.839 420.014 215.887 421.699 214.152C423.384 212.416 420.076 214.425 418.391 208.925C416.707 203.424 420.014 203.952 422.822 201.465C425.63 198.978 422.822 194.502 420.576 190.026C418.329 185.551 420.014 152.23 420.014 144.272C420.014 136.315 432.368 135.321 432.368 135.321L437.26 129.875L440.854 125.871L447.896 125.623L448.081 125.618L454.893 125.374L458.2 128.786L465.501 136.315L473.924 137.807C480.663 139.797 478.978 152.23 478.978 152.23L474.227 181.587Z" fill="#3F3D56"/>
<path d="M447.548 123.465C455.52 123.465 461.983 117.742 461.983 110.681C461.983 103.621 455.52 97.8975 447.548 97.8975C439.576 97.8975 433.113 103.621 433.113 110.681C433.113 117.742 439.576 123.465 447.548 123.465Z" fill="#FFB6B6"/>
<path d="M464.285 106.381C460.315 104.224 460.824 98.5862 456.998 96.6173C455.097 95.6466 452.959 95.0971 450.766 95.0155C448.573 94.934 446.391 95.3228 444.404 96.1488C441.71 95.128 438.482 95.9427 436.326 97.7862C434.171 99.6296 433.004 102.349 432.66 105.084C432.411 107.832 432.634 110.598 433.32 113.287C433.535 112.206 433.749 111.126 433.963 110.046L445.343 107.843C444.335 108.644 443.328 109.446 442.32 110.248C447.474 111.287 452.882 110.538 457.431 108.155C462.385 110.122 461.487 114.539 457.139 120.401C458.824 122.887 468.809 108.838 464.285 106.381Z" fill="#2F2E41"/>
<path d="M458.2 128.786C458.168 128.809 458.134 128.83 458.099 128.85C456.909 129.479 455.548 129.806 454.163 129.795C452.35 129.929 450.55 129.429 449.148 128.403C448.412 127.786 445.486 129.089 443.566 129.81C441.551 130.55 439.293 130.573 437.26 129.875L440.854 125.871L446.777 124.708H448.256L454.893 125.374L458.2 128.786Z" fill="#E6E6E6"/>
<path d="M555.124 363.799L354.189 364C354.074 364.001 353.959 363.981 353.852 363.942C353.745 363.904 353.648 363.847 353.566 363.775C353.483 363.702 353.418 363.617 353.373 363.522C353.328 363.428 353.305 363.327 353.304 363.224C353.304 363.122 353.326 363.02 353.37 362.926C353.413 362.831 353.478 362.745 353.559 362.672C353.64 362.599 353.737 362.541 353.844 362.502C353.95 362.462 354.065 362.441 354.18 362.441H354.189L555.124 362.239C555.357 362.24 555.58 362.323 555.744 362.469C555.908 362.615 556 362.813 556 363.019C556 363.225 555.908 363.423 555.744 363.569C555.58 363.715 555.357 363.798 555.124 363.799Z" fill="#CACACA"/>
<path d="M314.533 101.953H313.054V8.2843H371.214V9.59396H314.533V101.953Z" fill="#3F3D56"/>
<path d="M416.445 0H377.256C374.707 0 372.262 0.896886 370.459 2.49335C368.657 4.08981 367.644 6.25507 367.644 8.51281C367.644 10.7705 368.657 12.9358 370.459 14.5323C372.262 16.1287 374.707 17.0256 377.256 17.0256H416.445C418.994 17.0256 421.439 16.1287 423.242 14.5323C425.045 12.9358 426.057 10.7705 426.057 8.51281C426.057 6.25507 425.045 4.08981 423.242 2.49335C421.439 0.896886 418.994 0 416.445 0Z" fill="#6C63FF"/>
<path d="M312.935 110.523C317.813 110.523 321.768 107.02 321.768 102.7C321.768 98.3798 317.813 94.8776 312.935 94.8776C308.057 94.8776 304.102 98.3798 304.102 102.7C304.102 107.02 308.057 110.523 312.935 110.523Z" fill="#6C63FF"/>
<path d="M206.496 132.094L245.246 124.153L256.369 121.873C257.76 121.588 257.182 119.691 255.79 119.977L217.04 127.918L205.918 130.197C204.527 130.482 205.105 132.379 206.496 132.094Z" fill="#F2F2F2"/>
<path d="M246.511 111.413L267.255 119.864C267.963 120.081 268.626 120.399 269.218 120.805C269.79 121.302 269.373 121.779 268.906 122.212C267.51 123.367 266.036 124.444 264.491 125.439L255.653 131.803C254.544 132.601 256.109 133.995 257.208 133.204L264.906 127.662L268.754 124.891C269.845 124.106 271.172 123.305 271.61 122.054C272.531 119.426 268.898 118.382 266.879 117.559L257.845 113.879L247.64 109.722C246.354 109.198 245.215 110.885 246.511 111.413Z" fill="#F2F2F2"/>
<path d="M532.775 175.746C529.08 173.527 524.59 172.703 520.202 172.423C515.214 172.182 510.215 172.188 505.227 172.438C500.047 172.62 494.877 172.952 489.717 173.434C484.565 173.917 479.434 174.55 474.325 175.333C469.751 175.963 465.224 176.841 460.771 177.96C456.555 178.993 452.585 180.691 449.05 182.973C445.947 185.04 443.56 187.836 442.162 191.043C440.789 194.052 440.556 197.374 441.497 200.51C441.998 202.033 442.857 203.446 444.017 204.655C445.357 205.982 446.945 207.096 448.711 207.947C452.377 209.8 456.53 210.915 459.846 213.289C460.721 213.909 461.518 214.611 462.224 215.382C462.703 215.978 463.366 216.44 464.133 216.712C464.86 216.937 465.646 216.967 466.392 216.797C467.138 216.627 467.811 216.265 468.325 215.757C468.989 214.952 469.542 214.08 469.974 213.159L471.723 210.171C471.84 209.909 471.987 209.659 472.161 209.424C472.292 209.285 472.057 209.427 472.102 209.39C472.127 209.37 472.177 209.371 472.205 209.355C472.35 209.291 472.501 209.24 472.657 209.201C474.275 208.655 475.9 208.126 477.533 207.614C483.558 205.712 489.657 203.959 495.851 202.539C499.039 201.782 502.272 201.183 505.535 200.745C509.761 200.212 514.051 200.274 518.297 199.909C522.868 199.517 527.584 198.697 531.504 196.468C534.745 194.724 537.242 192.077 538.604 188.943C539.194 187.449 539.396 185.856 539.196 184.283C538.687 180.724 536.061 177.719 532.775 175.746Z" fill="#E6E6E6"/>
<path d="M525.212 177.746C521.872 175.74 517.815 174.995 513.85 174.742C509.342 174.525 504.825 174.53 500.318 174.757C495.636 174.921 490.964 175.221 486.301 175.657C481.645 176.093 477.009 176.665 472.392 177.372C468.258 177.942 464.168 178.735 460.143 179.746C456.334 180.68 452.746 182.215 449.551 184.276C446.747 186.144 444.591 188.671 443.327 191.569C442.087 194.288 441.876 197.29 442.726 200.124C443.179 201.5 443.955 202.777 445.003 203.87C446.214 205.069 447.649 206.075 449.245 206.844C452.558 208.52 456.311 209.527 459.308 211.672C460.098 212.233 460.818 212.867 461.456 213.563C461.89 214.102 462.489 214.52 463.182 214.766C463.839 214.969 464.549 214.996 465.224 214.842C465.898 214.688 466.505 214.361 466.97 213.902C467.57 213.175 468.07 212.387 468.46 211.555L470.041 208.854C470.147 208.618 470.279 208.392 470.436 208.179C470.555 208.054 470.343 208.182 470.383 208.149C470.405 208.131 470.451 208.131 470.477 208.117C470.607 208.059 470.744 208.013 470.885 207.978C472.347 207.484 473.816 207.006 475.291 206.543C480.736 204.825 486.247 203.241 491.845 201.958C494.725 201.273 497.647 200.732 500.595 200.336C504.415 199.854 508.292 199.91 512.128 199.581C516.259 199.226 520.521 198.486 524.063 196.472C526.992 194.895 529.248 192.504 530.479 189.671C531.012 188.321 531.195 186.882 531.014 185.46C530.554 182.244 528.181 179.528 525.212 177.746Z" fill="white"/>
<path d="M518.217 181.367L463.796 190.256C463.64 190.282 463.48 190.281 463.325 190.252C463.17 190.224 463.023 190.168 462.892 190.089C462.761 190.01 462.649 189.909 462.562 189.792C462.476 189.674 462.416 189.543 462.387 189.405C462.358 189.267 462.359 189.125 462.392 188.988C462.425 188.851 462.488 188.721 462.578 188.605C462.667 188.489 462.782 188.39 462.915 188.314C463.048 188.237 463.196 188.185 463.352 188.16L463.359 188.158L517.781 179.269C517.936 179.244 518.096 179.246 518.25 179.275C518.405 179.304 518.552 179.36 518.682 179.44C518.812 179.519 518.923 179.62 519.009 179.738C519.095 179.855 519.154 179.987 519.183 180.125C519.212 180.262 519.209 180.404 519.176 180.541C519.143 180.677 519.08 180.807 518.991 180.923C518.901 181.038 518.786 181.137 518.654 181.213C518.521 181.289 518.373 181.341 518.217 181.367Z" fill="#E6E6E6"/>
<path d="M519.558 187.803L465.136 196.692C464.981 196.719 464.821 196.717 464.666 196.689C464.51 196.66 464.363 196.605 464.232 196.526C464.102 196.447 463.99 196.346 463.903 196.228C463.816 196.111 463.757 195.979 463.727 195.841C463.698 195.704 463.7 195.562 463.733 195.425C463.765 195.287 463.828 195.157 463.918 195.042C464.008 194.926 464.122 194.827 464.255 194.751C464.388 194.674 464.537 194.622 464.692 194.596L464.699 194.595L519.121 185.706C519.276 185.681 519.436 185.682 519.591 185.712C519.745 185.741 519.892 185.797 520.022 185.876C520.152 185.956 520.264 186.057 520.35 186.175C520.436 186.292 520.495 186.423 520.523 186.561C520.552 186.699 520.55 186.84 520.517 186.977C520.484 187.114 520.421 187.244 520.331 187.359C520.241 187.475 520.127 187.573 519.994 187.649C519.861 187.726 519.713 187.778 519.558 187.803Z" fill="#E6E6E6"/>
<path d="M472.819 202.093L466.477 203.129C466.163 203.179 465.84 203.117 465.578 202.957C465.316 202.796 465.136 202.551 465.079 202.273C465.021 201.996 465.09 201.709 465.27 201.477C465.45 201.244 465.727 201.084 466.04 201.032L472.382 199.996C472.696 199.945 473.019 200.007 473.281 200.168C473.544 200.328 473.724 200.574 473.781 200.852C473.839 201.129 473.77 201.416 473.59 201.649C473.409 201.881 473.132 202.041 472.819 202.093Z" fill="#E6E6E6"/>
<path d="M468.224 228.852C471.004 228.398 472.842 226.035 472.329 223.573C471.816 221.112 469.148 219.484 466.368 219.938C463.588 220.392 461.751 222.756 462.263 225.217C462.776 227.679 465.445 229.306 468.224 228.852Z" fill="#D1D3D4"/>
<path d="M186.584 130.064H140.1C137.942 130.062 135.873 129.302 134.347 127.95C132.821 126.599 131.963 124.767 131.96 122.856V95.7246C131.963 93.8135 132.821 91.9814 134.347 90.6301C135.873 89.2788 137.942 88.5186 140.1 88.5164H186.584C188.742 88.5186 190.81 89.2787 192.336 90.6301C193.862 91.9814 194.72 93.8135 194.723 95.7246V122.856C194.72 124.767 193.862 126.599 192.336 127.951C190.81 129.302 188.742 130.062 186.584 130.064Z" fill="#E6E6E6"/>
<path d="M181.475 128.603H141.02C139.142 128.601 137.341 127.939 136.013 126.763C134.685 125.587 133.938 123.992 133.936 122.329V98.7162C133.938 97.053 134.685 95.4584 136.013 94.2824C137.341 93.1063 139.142 92.4447 141.02 92.4427H181.475C183.354 92.4447 185.154 93.1063 186.482 94.2824C187.81 95.4584 188.557 97.053 188.559 98.7162V122.329C188.557 123.992 187.81 125.587 186.482 126.763C185.154 127.939 183.354 128.601 181.475 128.603Z" fill="white"/>
<path d="M193.131 154.508H133.486C133.117 154.507 132.764 154.377 132.504 154.146C132.244 153.915 132.097 153.602 132.097 153.275C132.097 152.949 132.244 152.636 132.504 152.405C132.764 152.174 133.117 152.044 133.486 152.043H193.131C193.5 152.044 193.853 152.174 194.113 152.405C194.373 152.636 194.519 152.949 194.519 153.275C194.519 153.602 194.373 153.915 194.113 154.146C193.853 154.377 193.5 154.507 193.131 154.508Z" fill="#E6E6E6"/>
<path d="M193.131 147.465H133.486C133.117 147.464 132.764 147.334 132.504 147.103C132.244 146.872 132.097 146.559 132.097 146.232C132.097 145.906 132.244 145.593 132.504 145.362C132.764 145.131 133.117 145.001 133.486 145H193.131C193.5 145.001 193.853 145.131 194.113 145.362C194.373 145.593 194.519 145.906 194.519 146.232C194.519 146.559 194.373 146.872 194.113 147.103C193.853 147.334 193.5 147.464 193.131 147.465Z" fill="#E6E6E6"/>
<path d="M193.131 161.551H133.486C133.117 161.551 132.763 161.421 132.502 161.19C132.241 160.959 132.094 160.645 132.094 160.318C132.094 159.992 132.241 159.678 132.502 159.447C132.763 159.216 133.117 159.086 133.486 159.086H193.131C193.5 159.086 193.854 159.216 194.115 159.447C194.376 159.678 194.523 159.992 194.523 160.318C194.523 160.645 194.376 160.959 194.115 161.19C193.854 161.421 193.5 161.551 193.131 161.551Z" fill="#E6E6E6"/>
<path d="M193.131 168.594H133.486C133.117 168.594 132.763 168.464 132.502 168.233C132.241 168.002 132.094 167.688 132.094 167.361C132.094 167.035 132.241 166.721 132.502 166.49C132.763 166.259 133.117 166.129 133.486 166.129H193.131C193.5 166.129 193.854 166.259 194.115 166.49C194.376 166.721 194.523 167.035 194.523 167.361C194.523 167.688 194.376 168.002 194.115 168.233C193.854 168.464 193.5 168.594 193.131 168.594Z" fill="#E6E6E6"/>
<path d="M193.131 175.637H133.486C133.117 175.637 132.763 175.507 132.502 175.276C132.241 175.045 132.094 174.731 132.094 174.404C132.094 174.078 132.241 173.764 132.502 173.533C132.763 173.302 133.117 173.172 133.486 173.172H193.131C193.5 173.172 193.854 173.302 194.115 173.533C194.376 173.764 194.523 174.078 194.523 174.404C194.523 174.731 194.376 175.045 194.115 175.276C193.854 175.507 193.5 175.637 193.131 175.637Z" fill="#E6E6E6"/>
<path d="M193.131 182.68H133.486C133.117 182.679 132.764 182.549 132.504 182.318C132.244 182.087 132.097 181.774 132.097 181.447C132.097 181.121 132.244 180.808 132.504 180.577C132.764 180.346 133.117 180.216 133.486 180.215H193.131C193.5 180.216 193.853 180.346 194.113 180.577C194.373 180.808 194.519 181.121 194.519 181.447C194.519 181.774 194.373 182.087 194.113 182.318C193.853 182.549 193.5 182.679 193.131 182.68Z" fill="#E6E6E6"/>
<path d="M160.326 166.528H161.805V216.978H54.8442V215.668H160.326V166.528Z" fill="#3F3D56"/>
<path d="M9.61233 225.262H48.8011C51.3504 225.262 53.7954 224.365 55.598 222.769C57.4007 221.172 58.4134 219.007 58.4134 216.749C58.4134 214.492 57.4007 212.326 55.598 210.73C53.7954 209.133 51.3504 208.236 48.8011 208.236H9.61233C7.06298 208.236 4.61805 209.133 2.81539 210.73C1.01273 212.326 0 214.492 0 216.749C0 219.007 1.01273 221.172 2.81539 222.769C4.61805 224.365 7.06298 225.262 9.61233 225.262Z" fill="#6C63FF"/>
<path d="M162.096 170.329C166.974 170.329 170.929 166.827 170.929 162.507C170.929 158.186 166.974 154.684 162.096 154.684C157.217 154.684 153.263 158.186 153.263 162.507C153.263 166.827 157.217 170.329 162.096 170.329Z" fill="#6C63FF"/>
<path d="M207.75 164.68C220.719 167.121 217.42 167.598 230.388 170.039L241.555 172.141C242.952 172.403 243.334 170.468 241.937 170.205C228.969 167.764 232.268 167.288 219.299 164.847L208.132 162.745C206.735 162.482 206.353 164.417 207.75 164.68Z" fill="#F2F2F2"/>
<path d="M237.62 158.969L252.379 174.398C252.917 174.86 253.366 175.396 253.708 175.986C253.99 176.651 253.384 176.928 252.754 177.145C250.937 177.668 249.086 178.092 247.211 178.415L236.163 180.869C234.777 181.177 235.529 183.027 236.903 182.722L246.525 180.584L251.336 179.515C252.699 179.212 254.285 178.984 255.279 178.014C257.368 175.979 254.576 173.671 253.139 172.169L246.712 165.45L239.451 157.859C238.536 156.903 236.698 158.005 237.62 158.969Z" fill="#F2F2F2"/>
<path d="M284.416 226.228C295.76 226.228 304.957 218.083 304.957 208.036C304.957 197.99 295.76 189.845 284.416 189.845C273.072 189.845 263.875 197.99 263.875 208.036C263.875 218.083 273.072 226.228 284.416 226.228Z" fill="#E6E6E6"/>
<path d="M282.414 223.908C291.038 223.908 298.03 217.717 298.03 210.079C298.03 202.441 291.038 196.249 282.414 196.249C273.79 196.249 266.798 202.441 266.798 210.079C266.798 217.717 273.79 223.908 282.414 223.908Z" fill="white"/>
<path d="M279.612 219.547C279.257 219.547 278.908 219.474 278.59 219.333C278.273 219.193 277.997 218.989 277.784 218.737L272.181 212.12C272 211.908 271.869 211.666 271.795 211.408C271.72 211.151 271.703 210.883 271.746 210.62C271.788 210.357 271.888 210.104 272.041 209.875C272.194 209.646 272.396 209.447 272.636 209.287C272.876 209.128 273.149 209.011 273.44 208.945C273.73 208.879 274.033 208.865 274.33 208.902C274.627 208.939 274.913 209.028 275.171 209.164C275.429 209.299 275.655 209.478 275.835 209.69L275.836 209.692L279.503 214.021L288.919 201.512C289.085 201.291 289.299 201.101 289.548 200.952C289.798 200.804 290.078 200.701 290.372 200.649C290.666 200.596 290.97 200.596 291.264 200.647C291.559 200.699 291.839 200.801 292.089 200.949C292.339 201.096 292.554 201.286 292.721 201.507C292.888 201.728 293.004 201.976 293.062 202.237C293.121 202.498 293.121 202.766 293.063 203.027C293.004 203.288 292.888 203.536 292.721 203.757L281.513 218.646C281.311 218.915 281.038 219.137 280.718 219.294C280.399 219.451 280.041 219.537 279.676 219.546C279.654 219.547 279.633 219.547 279.612 219.547Z" fill="#E6E6E6"/>
<path d="M476.218 226.776C476.879 226.432 477.447 225.963 477.882 225.404C478.317 224.844 478.608 224.206 478.734 223.536C478.86 222.866 478.819 222.179 478.614 221.525C478.408 220.87 478.043 220.263 477.544 219.747L494.037 194.223L484.36 194.689L469.825 219.423C468.901 220.223 468.341 221.295 468.251 222.436C468.16 223.577 468.545 224.708 469.333 225.615C470.121 226.521 471.257 227.14 472.526 227.354C473.795 227.568 475.109 227.363 476.218 226.776Z" fill="#FFB8B8"/>
<path d="M457.641 137.31C457.641 137.31 475.109 132.337 479.601 144.272C484.094 156.208 499.196 188.535 499.196 188.535L482.971 217.877L475.67 210.914L483.473 190.524L461.01 160.684L457.641 137.31Z" fill="#3F3D56"/>
<path d="M483.527 214.88C483.001 214.092 482.334 213.385 481.552 212.787L475.979 208.036L475.669 208.649C475.097 209.446 474.723 210.34 474.569 211.274C474.416 212.208 474.487 213.161 474.778 214.069C475.069 214.977 475.573 215.82 476.258 216.543C476.942 217.267 477.792 217.854 478.751 218.266C479.569 218.647 480.492 218.815 481.414 218.753C481.873 218.718 482.316 218.587 482.707 218.371C483.098 218.154 483.425 217.859 483.662 217.51C483.88 217.094 483.981 216.638 483.957 216.18C483.933 215.723 483.786 215.277 483.527 214.88Z" fill="#E6E6E6"/>
<path d="M284.238 232.51H282.759V282.96H332.786V281.65H284.238V232.51Z" fill="#3F3D56"/>
<path d="M387.63 282.731C387.627 280.474 386.614 278.31 384.812 276.714C383.01 275.118 380.566 274.221 378.017 274.219H338.829C336.279 274.219 333.834 275.116 332.032 276.712C330.229 278.308 329.216 280.474 329.216 282.731C329.216 284.989 330.229 287.154 332.032 288.751C333.834 290.347 336.279 291.244 338.829 291.244H378.017C380.566 291.242 383.01 290.344 384.812 288.749C386.614 287.153 387.627 284.989 387.63 282.731Z" fill="#6C63FF"/>
<path d="M282.469 236.311C287.347 236.311 291.302 232.809 291.302 228.489C291.302 224.169 287.347 220.666 282.469 220.666C277.591 220.666 273.636 224.169 273.636 228.489C273.636 232.809 277.591 236.311 282.469 236.311Z" fill="#6C63FF"/>
</g>
<defs>
<clipPath id="clip0_455_37">
<rect width="556" height="364" fill="white"/>
</clipPath>
</defs>
</svg>
