<svg width="30" height="29" viewBox="0 0 30 29" fill="none" xmlns="http://www.w3.org/2000/svg">
<path fill-rule="evenodd" clip-rule="evenodd" d="M15.001 14.5C11.7863 14.5 9.17342 11.8987 9.17342 8.69998C9.17342 5.50128 11.7863 2.89998 15.001 2.89998C18.2156 2.89998 20.8285 5.50128 20.8285 8.69998C20.8285 11.8987 18.2156 14.5 15.001 14.5ZM20.4762 15.4758C21.6742 14.5218 22.5982 13.2674 23.1539 11.8404C23.7097 10.4133 23.8774 8.86438 23.6401 7.3514C23.0644 3.54805 19.886 0.504567 16.0479 0.0608665C10.7525 -0.552484 6.26036 3.55103 6.26036 8.69998C6.26036 11.4405 7.53636 13.8822 9.52576 15.4758C4.63636 17.3042 1.06646 21.5977 0.506756 27.3919C0.487187 27.5951 0.510242 27.8003 0.574438 27.9941C0.638633 28.1879 0.742562 28.3661 0.879578 28.5175C1.01659 28.6688 1.18368 28.7898 1.37016 28.8729C1.55664 28.956 1.75841 28.9993 1.96256 29C2.32042 29.0029 2.66643 28.8721 2.93279 28.6331C3.19915 28.3941 3.36664 28.0641 3.40241 27.708C3.98676 21.2367 8.96461 17.4 15.001 17.4C21.0373 17.4 26.0152 21.2367 26.5995 27.708C26.6353 28.0641 26.8028 28.3941 27.0691 28.6331C27.3355 28.8721 27.6815 29.0029 28.0394 29C28.9036 29 29.5764 28.2489 29.4937 27.3919C28.9355 21.5977 25.3656 17.3042 20.4747 15.4758" fill="black"/>
</svg>
