<svg width="44" height="50" viewBox="0 0 44 50" fill="none" xmlns="http://www.w3.org/2000/svg">
<path d="M44 21.4352V12.7074C39.9361 12.7074 36.8347 11.6165 34.8333 9.496C32.7792 7.07598 31.6284 4.01129 31.5792 0.829749V0.199754L23.375 0V35.4487C23.0936 36.9953 22.3471 38.4179 21.2363 39.5243C20.1256 40.6308 18.704 41.3678 17.1636 41.6359C15.6231 41.9041 14.038 41.6904 12.6221 41.0237C11.2062 40.3571 10.0278 39.2696 9.24598 37.908C8.46412 36.5464 8.11645 34.9764 8.24991 33.4098C8.38336 31.8432 8.99152 30.3555 9.99228 29.1475C10.993 27.9396 12.3382 27.0695 13.8462 26.6548C15.3542 26.2401 16.9524 26.3007 18.425 26.8285V18.3774C17.5664 18.2359 16.6978 18.1639 15.8278 18.1623C12.6973 18.1623 9.6372 19.0959 7.03434 20.8451C4.43148 22.5943 2.40279 25.0805 1.20482 27.9892C0.00685763 30.898 -0.306585 34.0988 0.304133 37.1867C0.914852 40.2747 2.4223 43.1112 4.63585 45.3375C6.84941 47.5638 9.66965 49.0799 12.7399 49.6941C15.8102 50.3083 18.9927 49.9931 21.8848 48.7882C24.777 47.5834 27.2489 45.543 28.9881 42.9252C30.7273 40.3073 31.6556 37.2296 31.6556 34.0811C31.6539 33.4288 31.613 32.7771 31.5333 32.1297V18.0701C35.2639 20.4132 39.6042 21.5848 44 21.4352Z" fill="white"/>
</svg>
