<svg width="520" height="444" viewBox="0 0 520 444" fill="none" xmlns="http://www.w3.org/2000/svg">
<g clip-path="url(#clip0_462_489)">
<path d="M458.885 442.27L458.896 441.752C459.13 433.07 461.251 424.544 465.109 416.766C468.968 408.987 474.473 402.143 481.241 396.709C485.062 393.691 489.247 391.167 493.698 389.196L494.122 389.007L494.195 389.466C495.057 394.947 496.421 400.542 497.057 403.026L501.32 386.377L501.794 386.24C503.965 385.602 506.279 385.63 508.435 386.319C510.591 387.009 512.491 388.329 513.891 390.109C515.352 391.89 516.247 394.068 516.46 396.363C516.673 398.657 516.195 400.963 515.087 402.983C514.094 404.835 513.117 406.769 512.172 408.638C508.927 415.062 505.571 421.705 500.68 426.866C496.94 430.737 492.383 433.722 487.343 435.604C482.303 437.486 476.906 438.217 471.547 437.744L458.885 442.27Z" fill="#F2F2F2"/>
<path d="M405.738 434.57L398.321 434.569L394.792 405.932L405.739 405.933L405.738 434.57Z" fill="#FFB6B6"/>
<path d="M405.999 442.316L383.189 442.315V442.026C383.189 439.669 384.125 437.409 385.79 435.742C387.455 434.076 389.713 433.14 392.067 433.139L396.234 429.976L404.008 433.14L406 433.14L405.999 442.316Z" fill="#2F2E41"/>
<path d="M482.519 413.654L476.659 418.205L456.329 397.747L464.977 391.029L482.519 413.654Z" fill="#FFB6B6"/>
<path d="M487.47 419.611L469.45 433.61L469.273 433.381C467.83 431.52 467.184 429.16 467.478 426.822C467.773 424.483 468.983 422.358 470.843 420.913L472.197 415.856L480.277 413.585L481.85 412.363L487.47 419.611Z" fill="#2F2E41"/>
<path d="M450.434 275.096C450.434 275.096 449.928 282.849 449.289 293.933C449.184 295.751 449.802 297.725 449.692 299.703C449.619 301.015 448.819 302.29 448.745 303.658C448.666 305.102 449.77 306.38 449.692 307.873C449.615 309.332 448.355 311.005 448.279 312.498C447.461 328.567 444.497 347.804 447.465 353.181C448.928 355.831 471.212 392.547 471.212 392.547C471.212 392.547 460.823 408.145 457.854 402.945C453.934 396.078 423.719 363.951 423.719 357.816C423.719 351.688 416.729 305.764 416.729 305.764L411.855 332.941L409.62 338.326L410.322 341.487L408.878 345.754L408.8 349.976L407.394 357.816C407.394 357.816 411.624 418.9 409.242 420.601C406.852 422.309 395.283 425.377 393.918 422.309C392.56 419.241 387.358 358.559 387.358 358.559C387.358 358.559 385.933 330.75 384.39 304.902C384.301 303.402 383.247 301.589 383.166 300.111C383.069 298.396 383.737 296.167 383.648 294.504C383.551 292.595 382.705 291.25 382.624 289.423C381.993 275.303 381.897 264.177 383.024 262.484C386.431 257.373 389.495 253.288 389.495 253.288C389.495 253.288 438.175 241.36 450.434 256.69L450.434 275.096Z" fill="#2F2E41"/>
<path d="M406.652 128.87L418.39 128.213L427.235 133.046L451.833 272.472C451.833 272.472 426.688 284.105 411.104 279.649C395.521 275.192 379.11 275.443 379.11 275.443L391.069 142.239L400.715 133.326L406.652 128.87Z" fill="#E6E6E6"/>
<path d="M426.233 131.826L444.401 139.252C447.191 139.388 449.853 140.466 451.952 142.309C454.052 144.152 455.467 146.653 455.966 149.404L454.76 185.318L448.208 202.402L452.88 241.323L450.434 246.225L452.548 251.228C449.445 256.271 450.076 262.879 451.918 269.993H449.692L445.239 269.25C445.239 269.25 435.437 272.656 433.429 260.422C428.172 228.399 425.203 242.511 425.203 242.511L422.616 143.151L426.233 131.826Z" fill="#3F3D56"/>
<path d="M401.457 131.841L384.486 149.651C381.696 149.787 379.035 150.864 376.935 152.707C374.835 154.551 373.42 157.051 372.922 159.802L379.938 215.029L376.645 236.22L378.453 241.025L377.144 246.457L379.196 251.424L377.711 258.109L379.938 267.764L391.069 264.793L390.983 256.874L393.952 149.175L401.457 131.841Z" fill="#3F3D56"/>
<path d="M344.858 223.39L321.739 240.182C320.854 240.228 319.996 240.506 319.252 240.99C318.508 241.473 317.904 242.144 317.502 242.935C317.1 243.726 316.912 244.609 316.959 245.495C317.006 246.382 317.286 247.24 317.77 247.984C318.254 248.728 318.925 249.331 319.715 249.733C320.506 250.135 321.389 250.321 322.274 250.273C323.16 250.225 324.017 249.944 324.76 249.459C325.502 248.974 326.104 248.302 326.505 247.51L357.942 230.712L344.858 223.39Z" fill="#FFB6B6"/>
<path d="M376.969 152.638C372.575 154.667 361.721 206.6 358.535 207.701C355.349 208.802 356.566 208.637 356.119 209.556C355.672 210.475 355.564 214.591 352.505 215.074C349.447 215.557 333.289 230.302 333.289 230.302L337.385 243.968C337.385 243.968 368.478 226.188 377.052 216.342C385.625 206.496 390.241 155.86 390.241 155.86L391.118 150.808C391.118 150.808 381.363 150.609 376.969 152.638Z" fill="#3F3D56"/>
<path d="M446.695 216.533L426.092 236.336C425.221 236.503 424.409 236.897 423.739 237.477C423.068 238.058 422.562 238.805 422.272 239.644C421.981 240.483 421.917 241.383 422.085 242.255C422.252 243.127 422.647 243.939 423.228 244.609C423.809 245.28 424.556 245.785 425.394 246.075C426.233 246.365 427.132 246.428 428.003 246.259C428.874 246.09 429.684 245.694 430.354 245.112C431.023 244.53 431.527 243.781 431.816 242.942L460.658 221.992L446.695 216.533Z" fill="#FFB6B6"/>
<path d="M449.692 157.094C445.617 159.706 461.101 197.59 458.096 199.117C455.091 200.644 456.273 200.314 455.956 201.286C455.639 202.257 456.096 206.35 453.132 207.247C450.169 208.145 436.181 224.966 436.181 224.966L442.108 237.942C442.108 237.942 470.476 216.066 477.621 205.137C484.766 194.209 480.116 190.518 480.116 190.518C471.252 171.673 462.96 140.939 450.434 142.982C450.434 142.982 453.766 154.483 449.692 157.094Z" fill="#3F3D56"/>
<path d="M409.169 125.929C420.155 125.929 429.061 117.015 429.061 106.019C429.061 95.0222 420.155 86.1079 409.169 86.1079C398.183 86.1079 389.277 95.0222 389.277 106.019C389.277 117.015 398.183 125.929 409.169 125.929Z" fill="#FFB6B6"/>
<path d="M429.313 118.848C429.313 118.848 424.932 120.05 422.382 120.72C422.514 118.821 423.335 117.043 423.753 115.185C424.17 113.328 424.079 111.143 422.7 109.831C421.321 108.52 418.448 109.031 418.226 110.918C417.059 108.421 415.89 105.919 414.718 103.412C411.377 110.295 404.547 104.429 397.099 106.169C393.3 107.064 388.538 106.68 386.531 103.329C387.659 102.381 388.609 101.24 389.337 99.9587C388.18 100.299 386.975 100.451 385.77 100.411C385.797 99.2126 386.112 98.0382 386.687 96.9867C387.263 95.9353 388.082 95.0375 389.077 94.3691C390.148 93.6681 387.496 91.1739 388.431 90.2959C390.349 88.504 391.635 89.7208 392.768 87.3588C393.498 85.8982 394.624 84.6722 396.016 83.8202C397.408 82.9682 399.011 82.5246 400.643 82.5397C403.899 82.616 409.732 82.5846 410.995 85.5865C415.02 82.949 420.623 83.6941 424.558 86.4609C427.828 88.7518 431.55 95.6762 432.372 99.5851C433.193 103.494 431.383 115.441 429.313 118.848Z" fill="#2F2E41"/>
<path d="M182.919 75.0204H55.5447C53.2538 75.0499 51.0368 74.2096 49.34 72.6688C47.6431 71.128 46.5924 69.001 46.3993 66.7159C46.3167 65.4972 46.4852 64.2744 46.8942 63.1235C47.3032 61.9726 47.9441 60.918 48.7772 60.0253C49.6102 59.1325 50.6176 58.4206 51.7368 57.9336C52.8561 57.4466 54.0634 57.195 55.2838 57.1943H182.919C185.281 57.1943 187.546 58.1334 189.216 59.8049C190.886 61.4764 191.824 63.7435 191.824 66.1074C191.824 68.4712 190.886 70.7383 189.216 72.4098C187.546 74.0813 185.281 75.0204 182.919 75.0204Z" fill="#6C63FF"/>
<path d="M256.188 89.5041H46.7501C46.5533 89.5041 46.3646 89.4258 46.2254 89.2865C46.0862 89.1472 46.0081 88.9583 46.0081 88.7613C46.0081 88.5643 46.0862 88.3754 46.2254 88.2361C46.3646 88.0968 46.5533 88.0186 46.7501 88.0186H256.188C256.385 88.0186 256.573 88.0968 256.713 88.2361C256.852 88.3754 256.93 88.5643 256.93 88.7613C256.93 88.9583 256.852 89.1472 256.713 89.2865C256.573 89.4258 256.385 89.5041 256.188 89.5041Z" fill="#E6E6E6"/>
<path d="M247.479 75.3918H55.2839C52.8238 75.3918 50.4644 74.4136 48.7249 72.6725C46.9853 70.9313 46.0081 68.5698 46.0081 66.1074C46.0081 63.645 46.9853 61.2835 48.7249 59.5423C50.4644 57.8012 52.8238 56.823 55.2839 56.823H247.479C249.939 56.823 252.298 57.8012 254.038 59.5423C255.777 61.2835 256.755 63.645 256.755 66.1074C256.755 68.5698 255.777 70.9313 254.038 72.6725C252.298 74.4136 249.939 75.3918 247.479 75.3918ZM55.2839 58.3085C53.2174 58.3085 51.2355 59.1302 49.7743 60.5927C48.3131 62.0553 47.4922 64.039 47.4922 66.1074C47.4922 68.1758 48.3131 70.1595 49.7743 71.6221C51.2355 73.0846 53.2174 73.9063 55.2839 73.9063H247.479C249.545 73.9063 251.527 73.0846 252.988 71.6221C254.45 70.1595 255.271 68.1758 255.271 66.1074C255.271 64.039 254.45 62.0553 252.988 60.5927C251.527 59.1302 249.545 58.3085 247.479 58.3085H55.2839Z" fill="#3F3D56"/>
<path d="M125.78 144.839H55.5447C53.2538 144.868 51.0368 144.028 49.34 142.487C47.6431 140.947 46.5924 138.82 46.3993 136.535C46.3167 135.316 46.4852 134.093 46.8942 132.942C47.3032 131.791 47.9441 130.737 48.7772 129.844C49.6102 128.951 50.6176 128.239 51.7368 127.752C52.8561 127.265 54.0634 127.014 55.2838 127.013H125.78C128.142 127.013 130.407 127.952 132.077 129.624C133.747 131.295 134.685 133.562 134.685 135.926C134.685 138.29 133.747 140.557 132.077 142.228C130.407 143.9 128.142 144.839 125.78 144.839Z" fill="#6C63FF"/>
<path d="M256.188 159.323H46.7501C46.5533 159.323 46.3646 159.244 46.2254 159.105C46.0862 158.966 46.0081 158.777 46.0081 158.58C46.0081 158.383 46.0862 158.194 46.2254 158.055C46.3646 157.915 46.5533 157.837 46.7501 157.837H256.188C256.385 157.837 256.573 157.915 256.713 158.055C256.852 158.194 256.93 158.383 256.93 158.58C256.93 158.777 256.852 158.966 256.713 159.105C256.573 159.244 256.385 159.323 256.188 159.323Z" fill="#E6E6E6"/>
<path d="M247.479 145.21H55.2839C52.8238 145.21 50.4644 144.232 48.7249 142.491C46.9853 140.75 46.0081 138.388 46.0081 135.926C46.0081 133.464 46.9853 131.102 48.7249 129.361C50.4644 127.62 52.8238 126.642 55.2839 126.642H247.479C249.939 126.642 252.298 127.62 254.038 129.361C255.777 131.102 256.755 133.464 256.755 135.926C256.755 138.388 255.777 140.75 254.038 142.491C252.298 144.232 249.939 145.21 247.479 145.21ZM55.2839 128.127C53.2174 128.127 51.2355 128.949 49.7743 130.411C48.3131 131.874 47.4922 133.858 47.4922 135.926C47.4922 137.994 48.3131 139.978 49.7743 141.441C51.2355 142.903 53.2174 143.725 55.2839 143.725H247.479C249.545 143.725 251.527 142.903 252.988 141.441C254.45 139.978 255.271 137.994 255.271 135.926C255.271 133.858 254.45 131.874 252.988 130.411C251.527 128.949 249.545 128.127 247.479 128.127H55.2839Z" fill="#3F3D56"/>
<path d="M220.022 214.658H55.5447C53.2538 214.687 51.0368 213.847 49.34 212.306C47.6431 210.765 46.5924 208.638 46.3993 206.353C46.3167 205.135 46.4852 203.912 46.8942 202.761C47.3032 201.61 47.9441 200.555 48.7772 199.663C49.6102 198.77 50.6176 198.058 51.7368 197.571C52.8561 197.084 54.0634 196.832 55.2838 196.832H220.022C222.384 196.832 224.649 197.771 226.319 199.442C227.989 201.114 228.927 203.381 228.927 205.745C228.927 208.109 227.989 210.376 226.319 212.047C224.649 213.719 222.384 214.658 220.022 214.658Z" fill="#6C63FF"/>
<path d="M256.188 229.142H46.7501C46.5533 229.142 46.3646 229.063 46.2254 228.924C46.0862 228.785 46.0081 228.596 46.0081 228.399C46.0081 228.202 46.0862 228.013 46.2254 227.874C46.3646 227.734 46.5533 227.656 46.7501 227.656H256.188C256.385 227.656 256.573 227.734 256.713 227.874C256.852 228.013 256.93 228.202 256.93 228.399C256.93 228.596 256.852 228.785 256.713 228.924C256.573 229.063 256.385 229.142 256.188 229.142Z" fill="#E6E6E6"/>
<path d="M247.479 215.029H55.2839C52.8238 215.029 50.4644 214.051 48.7249 212.31C46.9853 210.569 46.0081 208.207 46.0081 205.745C46.0081 203.282 46.9853 200.921 48.7249 199.18C50.4644 197.439 52.8238 196.46 55.2839 196.46H247.479C249.939 196.46 252.298 197.439 254.038 199.18C255.777 200.921 256.755 203.282 256.755 205.745C256.755 208.207 255.777 210.569 254.038 212.31C252.298 214.051 249.939 215.029 247.479 215.029ZM55.2839 197.946C53.2174 197.946 51.2355 198.768 49.7743 200.23C48.3131 201.693 47.4922 203.676 47.4922 205.745C47.4922 207.813 48.3131 209.797 49.7743 211.26C51.2355 212.722 53.2174 213.544 55.2839 213.544H247.479C249.545 213.544 251.527 212.722 252.988 211.26C254.45 209.797 255.271 207.813 255.271 205.745C255.271 203.676 254.45 201.693 252.988 200.23C251.527 198.768 249.545 197.946 247.479 197.946H55.2839Z" fill="#3F3D56"/>
<path d="M170.834 65.9608H169.35V8.73694H276.695V10.2224H170.834V65.9608Z" fill="#CCCCCC"/>
<path d="M281.283 17.7457C286.179 17.7457 290.148 13.7732 290.148 8.87284C290.148 3.97251 286.179 0 281.283 0C276.387 0 272.418 3.97251 272.418 8.87284C272.418 13.7732 276.387 17.7457 281.283 17.7457Z" fill="#CCCCCC"/>
<path d="M119.314 135.78H120.798V103.067H13.4529V104.552H119.314V135.78Z" fill="#CCCCCC"/>
<path d="M8.86464 112.075C13.7604 112.075 17.7293 108.103 17.7293 103.202C17.7293 98.3021 13.7604 94.3296 8.86464 94.3296C3.96883 94.3296 0 98.3021 0 103.202C0 108.103 3.96883 112.075 8.86464 112.075Z" fill="#CCCCCC"/>
<path d="M219.81 208.12H218.326V249.003H309.346V247.518H219.81V208.12Z" fill="#CCCCCC"/>
<path d="M313.934 257.74C318.83 257.74 322.799 253.767 322.799 248.867C322.799 243.967 318.83 239.994 313.934 239.994C309.038 239.994 305.069 243.967 305.069 248.867C305.069 253.767 309.038 257.74 313.934 257.74Z" fill="#CCCCCC"/>
<path d="M519.116 443.772L317.46 444C317.344 444 317.229 443.978 317.121 443.933C317.014 443.889 316.916 443.824 316.834 443.742C316.751 443.66 316.686 443.562 316.641 443.455C316.597 443.347 316.574 443.232 316.574 443.116C316.574 442.999 316.597 442.884 316.641 442.777C316.686 442.669 316.751 442.571 316.834 442.489C316.916 442.407 317.014 442.342 317.121 442.298C317.229 442.253 317.344 442.231 317.46 442.231L519.116 442.003C519.351 442.003 519.575 442.096 519.741 442.262C519.907 442.428 520 442.653 520 442.887C520 443.122 519.907 443.347 519.741 443.513C519.575 443.678 519.351 443.772 519.116 443.772Z" fill="#CACACA"/>
<path d="M437.878 131.843C437.415 131.117 436.688 130.6 435.851 130.401C435.014 130.203 434.133 130.338 433.394 130.779C434.484 129.262 433.663 126.669 431.953 125.621C430.016 124.433 427.569 124.63 425.309 124.866L406.79 126.802C404.654 127.025 402.46 127.266 400.559 128.265C398.658 129.264 397.095 131.214 397.205 133.36C395.753 132.827 394.203 132.617 392.662 132.743C391.139 132.984 389.638 134.097 389.476 135.631C389.215 138.093 392.137 139.514 394.516 140.189C398.934 141.442 403.352 142.695 407.77 143.948L406.408 144.239C415.102 145 423.854 143.733 431.976 140.537C433.837 139.803 435.722 138.923 437.025 137.403C438.328 135.884 438.897 133.566 437.878 131.843Z" fill="#E6E6E6"/>
</g>
<defs>
<clipPath id="clip0_462_489">
<rect width="520" height="444" fill="white"/>
</clipPath>
</defs>
</svg>
