<svg width="50" height="50" viewBox="0 0 50 50" fill="none" xmlns="http://www.w3.org/2000/svg">
<path d="M16.7464 7.64307C15.1578 7.64307 10.3685 9.58596 9.50922 9.97424C8.64998 10.3625 7.69625 11.5746 6.61408 13.5751C5.53043 15.5756 4.66085 17.9141 3.24797 21.3541C1.83656 24.794 1.50734 31.4258 1.55458 33.4499C1.60182 35.474 1.83361 37.0552 3.9079 38.2525C5.98072 39.4484 7.81436 40.7003 9.74397 41.4533C11.675 42.2062 12.992 42.748 13.8866 41.9951C14.7813 41.2421 15.3704 39.9238 15.3704 39.9238C15.3704 39.9238 16.2178 38.7471 14.6174 38.0414C13.0171 37.3342 12.2169 36.8396 12.2863 36.1103C12.3571 35.381 12.4738 34.9809 12.8739 35.0754C13.274 35.1699 14.2173 36.8633 17.8418 37.6398C21.4663 38.4164 24.9992 38.2998 24.9992 38.2998C24.9992 38.2998 28.5336 38.4179 32.1581 37.6398C35.7826 36.8633 36.7245 35.1699 37.1246 35.0754C37.5247 34.9809 37.6413 35.381 37.7122 36.1088C37.7831 36.8396 36.9829 37.3342 35.3825 38.0414C33.7821 38.7471 34.6295 39.9238 34.6295 39.9238C34.6295 39.9238 35.2186 41.2407 36.1133 41.9951C37.0065 42.748 38.3249 42.2062 40.2545 41.4533C42.1841 40.7003 44.0192 39.4498 46.092 38.2525C48.1663 37.0552 48.3981 35.474 48.4454 33.4499C48.4926 31.4273 48.1634 24.794 46.7505 21.3541C45.3391 17.9141 44.468 15.5756 43.3844 13.5751C42.3037 11.5746 41.3485 10.3625 40.4907 9.97277C39.6315 9.58596 34.8407 7.64307 33.2521 7.64307C31.6635 7.64307 31.1941 8.75034 31.1941 8.75034L30.6404 9.97424C30.6404 9.97424 26.92 9.26707 25.0243 9.26559C23.1287 9.26559 19.3595 9.97424 19.3595 9.97424L18.8059 8.74886C18.8059 8.74886 18.3364 7.64307 16.7464 7.64307ZM16.9191 22.3299H16.9781C19.2946 22.3299 21.171 24.357 21.171 26.8565C21.171 29.3574 19.2946 31.383 16.9781 31.383C14.6617 31.383 12.7853 29.3574 12.7853 26.8565C12.7838 24.3806 14.6263 22.3639 16.9191 22.3299ZM33.0218 22.3299H33.0808C35.3736 22.3639 37.2147 24.3821 37.2147 26.8565C37.2147 29.3574 35.3382 31.383 33.0218 31.383C30.7039 31.383 28.8289 29.3574 28.8289 26.8565C28.8289 24.357 30.7039 22.3299 33.0218 22.3299Z" fill="white"/>
</svg>
