<svg width="50" height="50" viewBox="0 0 50 50" fill="none" xmlns="http://www.w3.org/2000/svg">
<path d="M36.125 11.3752C35.6306 11.3752 35.1472 11.5217 34.7361 11.7965C34.325 12.0712 34.0045 12.4616 33.8154 12.9185C33.6261 13.3753 33.5766 13.8779 33.6731 14.3629C33.7695 14.8478 34.0076 15.2933 34.3573 15.6429C34.7069 15.9926 35.1524 16.2307 35.6373 16.3271C36.1223 16.4236 36.6249 16.3741 37.0817 16.1848C37.5385 15.9957 37.929 15.6752 38.2037 15.2641C38.4783 14.853 38.625 14.3696 38.625 13.8752C38.625 13.2121 38.3616 12.5763 37.8928 12.1074C37.4239 11.6386 36.7881 11.3752 36.125 11.3752ZM45.7084 16.4168C45.6679 14.6883 45.3441 12.9781 44.75 11.3543C44.2203 9.96501 43.3958 8.707 42.3333 7.66684C41.3017 6.59897 40.0408 5.77971 38.6458 5.271C37.0264 4.65884 35.3143 4.32769 33.5834 4.29184C31.375 4.16684 30.6667 4.16684 25 4.16684C19.3333 4.16684 18.625 4.16684 16.4167 4.29184C14.6858 4.32769 12.9736 4.65884 11.3542 5.271C9.96181 5.78485 8.70197 6.60342 7.66669 7.66684C6.59883 8.69846 5.77956 9.95944 5.27086 11.3543C4.6587 12.9738 4.32754 14.6859 4.29169 16.4168C4.16669 18.6252 4.16669 19.3335 4.16669 25.0002C4.16669 30.6668 4.16669 31.3752 4.29169 33.5835C4.32754 35.3144 4.6587 37.0266 5.27086 38.646C5.77956 40.0409 6.59883 41.3018 7.66669 42.3335C8.70197 43.3969 9.96181 44.2155 11.3542 44.7293C12.9736 45.3415 14.6858 45.6726 16.4167 45.7085C18.625 45.8335 19.3333 45.8335 25 45.8335C30.6667 45.8335 31.375 45.8335 33.5834 45.7085C35.3143 45.6726 37.0264 45.3415 38.6458 44.7293C40.0408 44.2206 41.3017 43.4014 42.3333 42.3335C43.4006 41.2972 44.2258 40.0381 44.75 38.646C45.3441 37.0222 45.6679 35.312 45.7084 33.5835C45.7084 31.3752 45.8333 30.6668 45.8333 25.0002C45.8333 19.3335 45.8334 18.6252 45.7084 16.4168ZM41.9583 33.3335C41.9432 34.656 41.7036 35.9663 41.25 37.2085C40.9174 38.1151 40.3831 38.9343 39.6875 39.6043C39.0118 40.2929 38.1942 40.8261 37.2917 41.1668C36.0494 41.6205 34.7391 41.86 33.4167 41.8752C31.3333 41.9793 30.5625 42.0002 25.0834 42.0002C19.6042 42.0002 18.8333 42.0002 16.75 41.8752C15.3769 41.9009 14.0096 41.6894 12.7083 41.2502C11.8454 40.892 11.0654 40.3601 10.4167 39.6877C9.72518 39.0184 9.19761 38.1985 8.87502 37.2918C8.36639 36.0317 8.08428 34.6917 8.04169 33.3335C8.04169 31.2502 7.91669 30.4793 7.91669 25.0002C7.91669 19.521 7.91669 18.7502 8.04169 16.6668C8.05103 15.3148 8.29784 13.975 8.77086 12.7085C9.13762 11.8291 9.70056 11.0453 10.4167 10.4168C11.0496 9.70049 11.8319 9.13162 12.7083 8.75017C13.9783 8.29193 15.3167 8.05242 16.6667 8.04184C18.75 8.04184 19.5208 7.91684 25 7.91684C30.4792 7.91684 31.25 7.91684 33.3333 8.04184C34.6558 8.057 35.966 8.29651 37.2084 8.75017C38.1551 9.10153 39.0048 9.6728 39.6875 10.4168C40.3703 11.0567 40.9037 11.8391 41.25 12.7085C41.7131 13.9771 41.9527 15.3164 41.9583 16.6668C42.0625 18.7502 42.0833 19.521 42.0833 25.0002C42.0833 30.4793 42.0625 31.2502 41.9583 33.3335ZM25 14.3127C22.8871 14.3167 20.8229 14.9471 19.0681 16.124C17.3133 17.3008 15.9466 18.9715 15.1409 20.9246C14.3352 22.8779 14.1265 25.0262 14.5412 27.0979C14.9559 29.1697 15.9756 31.0721 17.471 32.5647C18.9665 34.0573 20.8709 35.0731 22.9434 35.4838C25.016 35.8945 27.1639 35.6816 29.1156 34.8721C31.0673 34.0626 32.7352 32.6927 33.9086 30.9357C35.0821 29.1786 35.7083 27.1131 35.7083 25.0002C35.7111 23.5941 35.4358 22.2015 34.8984 20.9021C34.361 19.6029 33.572 18.4227 32.5768 17.4294C31.5816 16.4362 30.3999 15.6495 29.0996 15.1146C27.7993 14.5797 26.406 14.3071 25 14.3127ZM25 31.9377C23.6279 31.9377 22.2866 31.5308 21.1458 30.7685C20.0049 30.0062 19.1157 28.9227 18.5906 27.655C18.0656 26.3874 17.9282 24.9925 18.1959 23.6467C18.4635 22.301 19.1242 21.0648 20.0945 20.0946C21.0647 19.1243 22.3009 18.4637 23.6466 18.196C24.9923 17.9283 26.3872 18.0657 27.6549 18.5908C28.9226 19.1159 30.006 20.005 30.7683 21.1459C31.5307 22.2867 31.9375 23.6281 31.9375 25.0002C31.9375 25.9112 31.7581 26.8134 31.4094 27.655C31.0608 28.4967 30.5498 29.2616 29.9056 29.9057C29.2613 30.5499 28.4966 31.061 27.6549 31.4096C26.8132 31.7582 25.911 31.9377 25 31.9377Z" fill="white"/>
</svg>
