<svg width="58" height="62" viewBox="0 0 58 62" fill="none" xmlns="http://www.w3.org/2000/svg">
<path d="M24.0249 41.1163C23.3073 41.1163 23.1279 41.8139 23.1279 42.1628C23.1279 43 23.7259 43.2093 24.0249 43.2093H34.789C35.088 43.2093 35.686 43 35.686 42.1628C35.686 41.3256 35.088 41.1163 34.789 41.1163H24.0249Z" fill="white" stroke="black" stroke-width="0.1"/>
<path d="M34.6665 44.3721H24.2146C23.4768 44.3721 23.9072 45.5814 24.5221 45.5814C26.5281 45.5814 25.1368 47.3953 29.748 47.3953C33.5911 47.3953 33.1295 45.5814 34.0517 45.5814C34.7895 45.5814 35.379 44.3721 34.6665 44.3721Z" fill="white" stroke="black" stroke-width="0.1"/>
<path d="M24.0249 38.3256C23.3073 38.3256 23.1279 38.8682 23.1279 39.1395C23.1279 39.7907 23.7259 39.9535 24.0249 39.9535H34.789C35.088 39.9535 35.686 39.7907 35.686 39.1395C35.686 38.4884 35.088 38.3256 34.789 38.3256H24.0249Z" fill="white" stroke="black" stroke-width="0.1"/>
<path d="M7.34714 22.2791C6.86873 22.2791 6.15112 22.2791 6.15112 23.093C6.15112 23.907 7.1478 23.907 7.34714 23.907H13.3272C13.5266 23.907 14.5232 23.907 14.5232 23.093C14.5232 22.2791 13.5266 22.2791 13.3272 22.2791H7.34714Z" fill="white" stroke="black" stroke-width="0.1"/>
<path d="M45.1544 22.2791C44.7159 22.2791 44.0581 22.2791 44.0581 23.093C44.0581 23.907 44.9717 23.907 45.1544 23.907H50.6362C50.8189 23.907 51.7325 23.907 51.7325 23.093C51.7325 22.2791 50.8189 22.2791 50.6362 22.2791H45.1544Z" fill="white" stroke="black" stroke-width="0.1"/>
<path d="M28.186 6.93028C28.186 7.30238 28.186 8.09307 29.1628 8.09307C30.1395 8.09307 30.1395 7.08532 30.1395 6.93028V2.27913C30.1395 2.12407 30.1395 1.00006 29.1628 1.00006C28.186 1.00006 28.186 2.12406 28.186 2.27912V6.93028Z" fill="white" stroke="black" stroke-width="0.0933333"/>
<path d="M22.106 8.27265C22.217 8.51998 22.4528 9.04556 23.1841 8.71741C23.9155 8.38925 23.6149 7.71939 23.5686 7.61633L22.1813 4.52467C22.1351 4.42161 21.7998 3.67445 21.0685 4.00261C20.3372 4.33077 20.6725 5.07791 20.7187 5.18097L22.106 8.27265Z" fill="white" stroke="black" stroke-width="0.0933333"/>
<path d="M13.6234 17.3774C13.8587 17.4766 14.3589 17.6873 14.6591 16.9748C14.9592 16.2624 14.3218 15.9938 14.2237 15.9525L11.2815 14.713C11.1834 14.6717 10.4724 14.3721 10.1722 15.0846C9.87206 15.7971 10.5831 16.0966 10.6812 16.1379L13.6234 17.3774Z" fill="white" stroke="black" stroke-width="0.0933333"/>
<path d="M16.7985 11.7867C17.0248 12.0313 17.5058 12.5511 18.1491 11.9559C18.7924 11.3607 18.1793 10.6982 18.085 10.5963L15.2557 7.53856C15.1614 7.43662 14.4776 6.69769 13.8344 7.29292C13.1911 7.88814 13.8748 8.62707 13.9692 8.72901L16.7985 11.7867Z" fill="white" stroke="black" stroke-width="0.0933333"/>
<path d="M34.8683 7.3877C34.7579 7.63528 34.5232 8.16139 35.2553 8.48792C35.9873 8.81445 36.2864 8.14392 36.3324 8.04076L37.7128 4.94601C37.7588 4.84285 38.0924 4.09496 37.3604 3.76843C36.6283 3.4419 36.2948 4.18978 36.2487 4.29295L34.8683 7.3877Z" fill="white" stroke="black" stroke-width="0.0933333"/>
<path d="M44.5944 8.89794C44.8263 8.65859 45.3191 8.14998 44.6897 7.54012C44.0603 6.93027 43.4322 7.5785 43.3356 7.67823L40.4367 10.6701C40.34 10.7698 39.6395 11.4928 40.2689 12.1027C40.8983 12.7126 41.5989 11.9895 41.6955 11.8898L44.5944 8.89794Z" fill="white" stroke="black" stroke-width="0.0933333"/>
<path d="M47.8389 16.0525C48.0814 15.9476 48.5967 15.7247 48.3041 15.0484C48.0116 14.3721 47.3548 14.6562 47.2538 14.6999L44.2227 16.0112C44.1217 16.0549 43.3892 16.3717 43.6818 17.0481C43.9743 17.7244 44.7069 17.4075 44.8079 17.3638L47.8389 16.0525Z" fill="white" stroke="black" stroke-width="0.0933333"/>
<path d="M5.33722 47.2791C6.0349 45.0697 7.54652 41.3488 7.6628 41.1163C26.7325 48.2093 29.2907 52.9768 29.2907 52.9768C29.2907 52.9768 34.2907 47.0465 50.9185 41.1163C51.4999 42.1628 52.3139 44.6046 53.2441 47.2791C37.779 47.3953 29.2907 54.7209 29.2907 54.7209C29.2907 54.7209 23.593 48.4028 5.33722 47.2791Z" fill="white" stroke="black" stroke-width="0.1"/>
<path d="M1.5 56.2325C1.61628 55.6511 3.1279 51.2325 3.59302 49.4884C21.8488 49.2558 29.2907 56.4651 29.2907 56.4651C29.2907 56.4651 37.6628 49.1395 54.7558 49.4883C54.9883 50.3023 56.6162 55.186 56.8488 56.1162C31.8488 54.9535 34.8721 61 29.2907 61C23.8256 61 26.3837 54.7209 1.5 56.2325Z" fill="white" stroke="black" stroke-width="0.1"/>
<path d="M47.2778 31.4205C47.509 31.5483 48.0003 31.82 48.3569 31.1752C48.7135 30.5303 48.0873 30.1841 47.991 30.1308L45.1009 28.5325C45.0046 28.4793 44.3062 28.093 43.9496 28.7379C43.593 29.3827 44.2914 29.7689 44.3877 29.8222L47.2778 31.4205Z" fill="white" stroke="black" stroke-width="0.0933333"/>
<path d="M14.0893 30.006C14.3318 29.9011 14.847 29.6782 14.5545 29.0019C14.2619 28.3256 13.6052 28.6097 13.5041 28.6534L10.4731 29.9646C10.3721 30.0083 9.63956 30.3252 9.93213 31.0015C10.2247 31.6778 10.9572 31.361 11.0582 31.3172L14.0893 30.006Z" fill="white" stroke="black" stroke-width="0.0933333"/>
<path d="M18.041 35.0411C18.2756 34.7695 18.774 34.1923 18.0501 33.5672C17.3263 32.9421 16.6911 33.6777 16.5933 33.7909L13.6615 37.1861C13.5638 37.2993 12.8552 38.1197 13.5791 38.7448C14.303 39.3699 15.0115 38.5494 15.1092 38.4362L18.041 35.0411Z" fill="white" stroke="black" stroke-width="0.0933333"/>
<path d="M41.8499 33.9019C41.6371 33.6606 41.1848 33.1479 40.4876 33.7628C39.7905 34.3778 40.3668 35.0313 40.4555 35.1318L43.1157 38.1477C43.2044 38.2483 43.8473 38.9771 44.5444 38.3622C45.2416 37.7472 44.5988 37.0184 44.5101 36.9178L41.8499 33.9019Z" fill="white" stroke="black" stroke-width="0.0933333"/>
<path d="M29.7558 36.3488C29.3931 36.3692 28.8256 36.3488 28.8256 36.3488C28.8256 24.2558 23.8256 25.7675 23.8256 21.814C23.8256 20.1861 24.407 16.4651 29.1744 16.4651C33.9418 16.4651 34.7558 20.0698 34.7558 21.814C34.7558 25.6512 29.6395 25.0698 29.7558 36.3488Z" fill="white"/>
<path d="M27.8953 23.7907C27.8953 22.9535 27.4302 22.6279 26.9651 22.6279C26.6162 22.6279 26.0349 22.8605 26.0349 23.907C26.0349 24.7442 26.6162 25.1861 26.9651 25.1861C27.4302 25.1861 27.8953 24.6279 27.8953 23.7907Z" fill="black" fill-opacity="0.36"/>
<path d="M28.2442 23.7907C28.2442 23.0465 28.7093 22.5117 29.4069 22.5117C29.9883 22.5117 30.3372 23.093 30.3372 23.7907C30.3372 24.4884 29.8296 25.0698 29.4069 25.0698C29.0392 25.0698 28.2442 24.7209 28.2442 23.7907Z" fill="black" fill-opacity="0.36"/>
<path d="M32.779 23.7907C32.779 23.2326 32.4302 22.5117 31.9651 22.5117C31.3837 22.5117 30.9186 23.093 30.9186 23.907C30.9186 24.7209 31.2674 25.1861 31.7325 25.1861C32.1976 25.1861 32.779 24.4884 32.779 23.7907Z" fill="black" fill-opacity="0.36"/>
<path d="M23.7093 36.3488H26.9651C27.1976 26.6977 22.779 26.9303 22.1977 22.8605C21.9651 19.4884 22.779 14.3721 29.0581 14.3721C35.3372 14.3721 37.1976 18.4419 36.6162 22.8605C36.0348 27.2791 31.7325 25.6512 31.7325 36.3488H35.2209C35.5697 32.9768 41.2674 29.6047 41.2674 22.8605C41.2674 16.814 36.9651 10.6512 29.0581 10.6512C20.9186 10.6512 17.5465 17.3954 17.5465 22.6279C17.5465 29.1396 22.5465 32.2791 23.7093 36.3488Z" fill="white"/>
</svg>
