<svg width="45" height="50" viewBox="0 0 45 50" fill="none" xmlns="http://www.w3.org/2000/svg">
<g clip-path="url(#clip0_2_10)">
<path d="M44.5 21.4352V12.7074C40.4361 12.7074 37.3347 11.6165 35.3333 9.496C33.2792 7.07598 32.1284 4.01129 32.0792 0.829749V0.199754L23.875 0V35.4487C23.5936 36.9953 22.8471 38.4179 21.7363 39.5243C20.6256 40.6308 19.204 41.3678 17.6636 41.6359C16.1231 41.9041 14.538 41.6904 13.1221 41.0237C11.7062 40.3571 10.5278 39.2696 9.74598 37.908C8.96412 36.5464 8.61645 34.9764 8.74991 33.4098C8.88336 31.8432 9.49152 30.3555 10.4923 29.1475C11.493 27.9396 12.8382 27.0695 14.3462 26.6548C15.8542 26.2401 17.4524 26.3007 18.925 26.8285V18.3774C18.0664 18.2359 17.1978 18.1639 16.3278 18.1623C13.1973 18.1623 10.1372 19.0959 7.53434 20.8451C4.93148 22.5943 2.90279 25.0805 1.70482 27.9892C0.506858 30.898 0.193415 34.0988 0.804133 37.1867C1.41485 40.2747 2.9223 43.1112 5.13585 45.3375C7.34941 47.5638 10.1696 49.0799 13.2399 49.6941C16.3102 50.3083 19.4927 49.9931 22.3848 48.7882C25.277 47.5834 27.7489 45.543 29.4881 42.9252C31.2273 40.3073 32.1556 37.2296 32.1556 34.0811C32.1539 33.4288 32.113 32.7771 32.0333 32.1297V18.0701C35.7639 20.4132 40.1042 21.5848 44.5 21.4352Z" fill="white"/>
</g>
<defs>
<clipPath id="clip0_2_10">
<rect width="44" height="50" fill="white" transform="translate(0.5)"/>
</clipPath>
</defs>
</svg>
